/* XPM */
static char *result[] = {
/* columns rows colors chars-per-pixel */
"48 48 240 2 ",
"   c #030201",
".  c #0B0200",
"X  c #030B00",
"o  c #0A0D01",
"O  c #02020A",
"+  c #040809",
"@  c #1C0C01",
"#  c #140300",
"$  c #041200",
"%  c #0C1801",
"&  c #16160B",
"*  c #090811",
"=  c #191815",
"-  c #270801",
";  c #3A0C03",
":  c #2A1A09",
">  c #361609",
",  c #3B1D14",
"<  c #2D1913",
"1  c #182705",
"2  c #2C2907",
"3  c #3B2609",
"4  c #3A3306",
"5  c #2A2315",
"6  c #3B2414",
"7  c #372719",
"8  c #2F3715",
"9  c #282827",
"0  c #342722",
"q  c #39352B",
"w  c #3A3933",
"e  c #2E3224",
"r  c #470B01",
"t  c #570C04",
"y  c #43190E",
"u  c #481607",
"i  c #53130B",
"p  c #5B190A",
"a  c #581707",
"s  c #421D13",
"d  c #4C1D12",
"f  c #491916",
"g  c #551C14",
"h  c #5E1913",
"j  c #561815",
"k  c #640F07",
"l  c #631402",
"z  c #6C1405",
"x  c #6C1904",
"c  c #63150B",
"v  c #6E160A",
"b  c #651B0B",
"n  c #6C1A0B",
"m  c #651804",
"M  c #731504",
"N  c #73150C",
"B  c #731B0D",
"V  c #751A08",
"C  c #641C13",
"Z  c #6B1B12",
"A  c #6A1814",
"S  c #731B14",
"D  c #771C17",
"F  c #740F08",
"G  c #54240B",
"H  c #443C0C",
"J  c #4B3A0C",
"K  c #473609",
"L  c #432413",
"P  c #44231A",
"I  c #492718",
"U  c #582717",
"Y  c #483A16",
"T  c #553917",
"R  c #4A2B0E",
"E  c #67200C",
"W  c #672214",
"Q  c #74220C",
"!  c #452C25",
"~  c #592724",
"^  c #41322C",
"/  c #553328",
"(  c #463A33",
")  c #553A35",
"_  c #723E37",
"`  c #68302A",
"'  c #384711",
"]  c #3C4E26",
"[  c #47460C",
"{  c #474612",
"}  c #555818",
"|  c #485218",
" . c #4F611E",
".. c #585724",
"X. c #464939",
"o. c #55463A",
"O. c #4A5139",
"+. c #54583D",
"@. c #69473B",
"#. c #75443D",
"$. c #675637",
"%. c #6F5030",
"&. c #58672A",
"*. c #586A3A",
"=. c #5C7438",
"-. c #556F31",
";. c #656828",
":. c #677D3A",
">. c #717837",
",. c #676B34",
"<. c #414344",
"1. c #5B4B46",
"2. c #5D5545",
"3. c #5A5853",
"4. c #4F4F51",
"5. c #6B574B",
"6. c #775647",
"7. c #6F5D5A",
"8. c #6B4E46",
"9. c #5B764A",
"0. c #64684A",
"q. c #697A48",
"w. c #7A7943",
"e. c #676758",
"r. c #74695A",
"t. c #6C7D52",
"y. c #767C5A",
"u. c #79624B",
"i. c #757769",
"p. c #767773",
"a. c #736B6A",
"s. c #885A32",
"d. c #886546",
"f. c #856B57",
"g. c #916856",
"h. c #8A745A",
"j. c #987A5B",
"k. c #A67C56",
"l. c #867668",
"z. c #967B6A",
"x. c #887875",
"c. c #91706C",
"v. c #A17B7A",
"b. c #69843A",
"n. c #78863B",
"m. c #7AA639",
"M. c #6B8448",
"N. c #778948",
"B. c #7A944C",
"V. c #7C9C4B",
"C. c #749549",
"Z. c #698355",
"A. c #788B58",
"S. c #7D9B52",
"D. c #7C9556",
"F. c #7CA444",
"G. c #7CA44A",
"H. c #78A648",
"J. c #7DA152",
"K. c #75896A",
"L. c #859F3A",
"P. c #84A33D",
"I. c #839D44",
"U. c #849849",
"Y. c #848953",
"T. c #849E54",
"R. c #829D5B",
"E. c #869856",
"W. c #82844C",
"Q. c #84A449",
"!. c #86A558",
"~. c #998677",
"^. c #8A936F",
"/. c #A3836B",
"(. c #AF8F76",
"). c #94A877",
"_. c #8BA46C",
"`. c #C4997C",
"'. c #D7A87B",
"]. c #F0BE7F",
"[. c #858184",
"{. c #9A928C",
"}. c #989695",
"|. c #9C8D92",
" X c #A6968A",
".X c #B79689",
"XX c #A79B95",
"oX c #B49892",
"OX c #A18582",
"+X c #94A68C",
"@X c #A6A496",
"#X c #BAA698",
"$X c #A9B492",
"%X c #A09EA1",
"&X c #A8A8A5",
"*X c #B9B2A9",
"=X c #B9B0AF",
"-X c #C19D87",
";X c #C9A381",
":X c #D8A987",
">X c #C7B39E",
",X c #DFB997",
"<X c #D0AE91",
"1X c #EBB88C",
"2X c #FABA84",
"3X c #F6BD8A",
"4X c #EAB996",
"5X c #F6BD92",
"6X c #C4B9B6",
"7X c #CBBAAB",
"8X c #B6C09C",
"9X c #B7C4A9",
"0X c #ECC28F",
"qX c #F4C28B",
"wX c #F8C188",
"eX c #F9C394",
"rX c #E6C19B",
"tX c #C2C6B9",
"yX c #D7C5BA",
"uX c #D0C8AB",
"iX c #EBC5A7",
"pX c #F5CCAA",
"aX c #E0C0BB",
"sX c #C6BCC5",
"dX c #CDC4C7",
"fX c #D5C9C6",
"gX c #D7D5CC",
"hX c #CFCED1",
"jX c #CBD9D2",
"kX c #D4D4D1",
"lX c #DAD8D7",
"zX c #D1D3D0",
"xX c #E0D4CF",
"cX c #E1DAD6",
"vX c #EACEC9",
"bX c #F7E3D8",
"nX c #E9E5E6",
"mX c #FBF4EC",
"MX c #F4F8F3",
"NX c None",
/* pixels */
"NXNXNXNXNXNXNXNXNXNXNXNXY.*.' ' ] ]  .-.C._.).).).$XNXNXNXNXNXNXNXNXNXNXNXNXNXNXNXNXNXNXNXNXNXNX",
"NXNXNXNXNXNXNXNXNXNXK.t.M.:.M.D.V.V.H.H.C.C.M.M.M.M.=.q.+XNXNXNXNXNXNXNXNXNXNXNXNXNXNXNXNXNXNXNX",
"NXNXNXNXNXNXNXNXt.A.S.Q.G.G.G.H.V.G.F.F.H.F.Q.Q.G.U.V.V.M.-.A.NXNXNXNXNXNXNXNXNXNXNXNXNXNXNXNXNX",
"NXNXNXNXNXNXt.-.B.V.F.m.m.m.H.H.F.F.m.m.F.F.Q.P.m.Q.Q.U.Q.T.N.q.NXNXNXNXNXNXNXNXNXNXNXNXNXNXNXNX",
"NXNXNXNXNX^.D.V.Q.m.P.m.m.P.F.V.F.F.F.H.H.F.Q.U.d.L.>.N.w.w.$.$.2.NXNXNXNXNXNXNXNXNXNXNXNXNXNXNX",
"NXNXNXNXi.0.E.!.V.Q.P.P.P.I.E.U.I.n.b.=.=.&.} } [ [ [ { { K T { Y NXNXNXNXNXNXNXNXNXNXNXNXNXNXNX",
"NXNX{.p.O.O.*.$.;.} } ;.;.....$.{ J K 4 H J T J [ J { { { Y J K 4 O.NXNXNXNXNXNXNXNXNXNXNXNXNXNX",
"NXK.NX3.2 4 2 2 4 4 K K [ J Y Y T J K J [ J J K J [ { ' ....;.>.y.0.NXNXNXNXNXNXNXNXNXNXNXNXNXNX",
"NX[.}.5 8 { { [ H [ [ [ } &.[ &.;.,.:.b.N.n.>.n.L.n.S.J.G.Q.U.T.^.^.e.NXNXNXNXNXNXNXNXNXNXNXNXNX",
"NXNX<.e i.Y.W.W.Y.h.Y.U.B.E.!.S.!.!.V.J.!.V.Q.T.T.T.J.J.J.S.T.B.q.+.X.NXNXNXNXNXNXNXNXNXNXNXNXNX",
"NXNXNXX.y.K.D.N.Z.t.t.q.*.-.*.*.-.=.q.:.:.q.t.t.t.Z.9.9.*.] 8 1 % X o NXNXNXNXNXNXNXNXNXNXNXNXNX",
"NXNXNXe.1 8 1 1 % % $ $ X X X X $ $ o % X X o X $ $ $ $ X             NXNXNXNXNXNXNXNXNXNXNXNXNX",
"NXNXNXe.+   X   X     . Y f.%.@     @ Y : # .   o     X     . +       NXNXNXNXNXNXNXNXNXNXNXNXNX",
"NXNXNXw     & %   . . : 0.(./.$.@ # 6.,X;Xu.@ .   .       .     O   9 NXNXNXNXNXNXNXNXNXNXNXNXNX",
"NXNXNX* 9 r.r.~.: . @ o.0.8.XX*X~.c.,XeX0XrXu.:     . : :   O * O O w NXNXNXNXNXNXNXNXNXNXNXNXNX",
"NXNXp.[.NX7X~.uXh.# L >Xz.r.mXmXbXiX0X0XqX0X4Xf.: . 7 (.5.. O O * O 9 NXNXNXNXNXNXNXNXNXNXNXNXNX",
"NXNXNXNXNXh.z.,X4Xs.k.pXd.Y l.#XpX3X3XqX].wX0X4XT G (.pXh.#   + *   * NXNXNXNXNXNXNXNXNXNXNXNXNX",
"NXNXNXNX XuXg.'.5X3X1X5X:Xk.j.;X3XeX2XwXwX3XqX'.s.1XiX<Xz.2   9 <.*   NXNXNXNXNXNXNXNXNXNXNXNXNX",
"NXNXNXNX{.7X(.%.:XeXeX3XwXwXqX3X5X2X2X].2X2X5X:X(.(. X9XtX}.= 4.NXp.= w NXNXNXNXNXNXNXNXNXNXNXNX",
"NXNXNXNX6X X X/./.-X'.1X1XeXwX3X5X5X2XwX5X5X4X(.6.~.nXmXMXnXp.4.NXNXNXNXNXNXNXNXNXNXNXNXNXNXNXNX",
"NXNXNXNXNXNXNXNXNXvX-XoX;X<X:X:X1X1X1X'.k.d.h.oXXX%X=XnXnXlXsX[.NXNXNXNXNXNXNXNXNXNXNXNXNXNXNXNX",
"NXNXNXNXNXNXNXNXNXNXNXNXNXNX>Xz.#.d.`.%.R 3 @XzXlXhX=Xp.XX|.6XsXnXNXNXNXNXNXNXNXNXNXNXNXNXNXNXNX",
"NXNXNXNXNXNXNXNXNXNXNXNXNXNXNXXXr.>X6.I , l.kXjXhXjXhXr.x.vXsXhXhX&X}.NXNXNXNXNXNXNXNXNXNXNXNXNX",
"NXNXNXNXNXNXNXNXK.Z.Z.K.+X9XkXtXX.q : ! 1.6XzXjXzXkX6X8.~ oXxXlX9X&XtX@X<.NXNXNXNXNXNXNXNXNXNXNX",
"NXNXNXNXNXNXNX9XA.D.S.D.9.0.&X}.9 & 0 7.6XcXkXlXgX#Xg.U g @.=X&X}.tX9X*.M.D.NXNXNXNXNXNXNXNXNXNX",
"NXNXNXNXNXNXNXNX).D.R.E.*.$X6X|.}.[.XXdXxXfXxX7Xz.` b n a I 7XNX&X$X*.q._.S.R.NXNXNXNXNXNXNXNXNX",
"NXNXNXNXNXNXNXNXNXuX_.0.i.gX&XsXlXcXkXxXxXsXoX#.Z B V M C d 1.NXcX*Xy.t.C.S.D.Z.NXNXNXNXNXNXNXNX",
"NXNXNXNXNXNXNXNXNXNXNX*XXX&X%XhXdX6X XoX~.6.~ h S F F V p d ! x.NXNXNX8X^.Z.Z.NXNXNXNXNXNXNXNXNX",
"NXNXNXNXNXNXNXNXNXNXNXNXNXNXNXNXNX6X8./ R a W Z Z l l r a I I / v.NXNXNXNXNXNXNXNXNXNXNXNXNXNXNX",
"NXNXNXNXNXNXNXNXNXNXNXNXNXNXNXNXNXNX5./ U a U c C t U U T W d ; s v.NXNXNXNXNXNXNXNXNXNXNXNXNXNX",
"NXNXNXNXNXNXNXNXNXNXNXNXNXNXNXNXNXNXz.R R u a g G / G U r r p W g ~ fXNXNXNXNXNXNXNXNXNXNXNXNXNX",
"NXNXNXNXNXNXNXNXNXNXNXNXNXNXNXNXNXNXyX@.G G G G y u u r a n x b A h c.NXNXNXNXNXNXNXNXNXNXNXNXNX",
"NXNXNXNXNXNXNXNXNXNXNXNXNXNXNXNXNXNXbXg.j t a a t p m b v N V v S j #.NXNXNXNXNXNXNXNXNXNXNXNXNX",
"NXNXNXNXNXNXNXNXNXNXNXNXNXNXNXNXNXOXd.~ c S B x x n B B N M N M A t r 8.#XNXNXNXNXNXNXNXNXNXNXNX",
"NXNXNXNXNXNXNXNXNXNXNXNXNXNXNX.X#.U C m A N z B S N N z z B x m t n A i L ~.NXNXNXNXNXNXNXNXNXNX",
"NXNXNXNXNXNXNXNXNXNXNXNXNXNXv.` p n m x M M M Z n c S D Z l t l m v c A C g v.NXNXNXNXNXNXNXNXNX",
"NXNXNXNXNXNXNXNXNXNXNXNXNXNX~ c n x x V M N N t h j k t t t t m Q x x V v Z C 8.oXNXNXNXNXNXNXNX",
"NXNXNXNXNXNXNXNXNXNXNXNXNXNX~ C x x M M M k p s._ f - ; j h C S m x V V M D k p y @.XXNXNXNXNXNX",
"NXNXNXNXNXNXNXNXNXNXNXNXNXNXj C m V M N v t _ vXNX*Xa.c.f.~ f i b E n B F F S A A j f 5.NXNXNXNX",
"NXNXNXNXNXNXNXNXNXNXNXNXNXNXNXj A S N c C p y 7.NXNXNXNXNXNXoX7.u r p p Z S k D A j > - 5.NXNXNX",
"NXNXNXNXNXNXNXNXNXNXNXNXNXNXNXNX~ h A j r ; 6 5 <.NXNXNXNXNXNXNX>Xf.7 - > d h u u ; > 6 5 e a.zX",
"NXNXNXNXNXNXNXNXNXNXNXNXNXNXNXNXNX_ ; f y P 7 8 1 3.NXNXNXNXNXNXNXNXNXXX7.) > ; ; L L 6 I 0 & w ",
"NXNXNXNXNXNXNXNXNXNXNXNXNXNXNXNXNXNX/ , s 6 6 7 q 5 NXNXNXNXNXNXNXNXNXNXNXNXNXo.: > R I 6 , 5 0 ",
"NXNXNXNXNXNXNXNXNXNXNXNXNXNXNXNXNXNXNX> P I L 6 5 ( NXNXNXNXNXNXNXNXNXNXNXNXNX7.: L R y s ! 8.6X",
"NXNXNXNXNXNXNXNXNXNXNXNXNXNXNXNXNXNX1.> ! s L , 1.NXNXNXNXNXNXNXNXNXNXNXNXNXNX^.5 6 L I s ) NXNX",
"NXNXNXNXNXNXNXNXNXNXNXNXNXNXNXNXNXNX^ 0 f , 6 NXNXNXNXNXNXNXNXNXNXNXNXNXNXNXNX0 5 6 , L ! NXNXNX",
"NXNXNXNXNXNXNXNXNXNXNXNXNXNXNXNXNXNXNX^ ^ ( NXNXNXNXNXNXNXNXNXNXNXNXNXNXNXNXNX< P I 7 5 NXNXNXNX",
"NXNXNXNXNXNXNXNXNXNXNXNXNXNXNXNXNXNXNXNXNXNXNXNXNXNXNXNXNXNXNXNXNXNXNXNXNXNXNXl.6 6 6 5.NXNXNXNX"
};
