/* XPM */
static char *result[] = {
/* columns rows colors chars-per-pixel */
"48 48 212 2 ",
"   c #020202",
".  c #0B0A0A",
"X  c #0A0A05",
"o  c #0D1108",
"O  c #13120D",
"+  c #1B110E",
"@  c #151B0D",
"#  c #1B1410",
"$  c #141611",
"%  c #2A0B06",
"&  c #330A06",
"*  c #3C0D06",
"=  c #3B0E09",
"-  c #25150D",
";  c #2A140C",
":  c #27190F",
">  c #2B190E",
",  c #36140B",
"<  c #3C130B",
"1  c #321C0E",
"2  c #3B180B",
"3  c #2B1611",
"4  c #281B15",
"5  c #341613",
"6  c #331D11",
"7  c #3A1E14",
"8  c #381B17",
"9  c #2F220E",
"0  c #2A241A",
"q  c #3C2212",
"w  c #3C2C12",
"e  c #33241D",
"r  c #37261A",
"t  c #2A3619",
"y  c #3C3413",
"u  c #3C2D22",
"i  c #362827",
"p  c #2D3521",
"a  c #3D3E24",
"s  c #2F2F2B",
"d  c #420E07",
"f  c #440F0A",
"g  c #500F07",
"h  c #45120B",
"j  c #4B110A",
"k  c #431B0E",
"l  c #4C170B",
"z  c #53130B",
"x  c #5B130B",
"c  c #481812",
"v  c #521D14",
"b  c #5C1B13",
"n  c #531E18",
"m  c #6D1506",
"M  c #63160A",
"N  c #6C1509",
"B  c #6B180C",
"V  c #731607",
"C  c #731509",
"Z  c #701805",
"A  c #601D13",
"S  c #42230F",
"D  c #422411",
"F  c #492414",
"G  c #442A14",
"H  c #4B2B14",
"J  c #44281E",
"K  c #552E14",
"L  c #592E15",
"P  c #522D18",
"I  c #4C3918",
"U  c #553215",
"Y  c #5C3214",
"T  c #5D381A",
"R  c #593619",
"E  c #613316",
"W  c #462E25",
"Q  c #42342A",
"!  c #4A3A2D",
"~  c #453327",
"^  c #5B382A",
"/  c #4B3C33",
"(  c #433A36",
")  c #583F31",
"_  c #60312B",
"`  c #6C3B33",
"'  c #37461F",
"]  c #354321",
"[  c #3C4C23",
"{  c #3C492B",
"}  c #3D5223",
"|  c #4B481D",
" . c #55411B",
".. c #4B4A21",
"X. c #564825",
"o. c #425622",
"O. c #455A26",
"+. c #46562F",
"@. c #465A2A",
"#. c #495E2A",
"$. c #48572A",
"%. c #545B25",
"&. c #5C5B2B",
"*. c #535827",
"=. c #5A4939",
"-. c #4A5635",
";. c #664B39",
":. c #7E5E3E",
">. c #4C622A",
",. c #5D662B",
"<. c #5E6C2C",
"1. c #53682A",
"2. c #5A732E",
"3. c #4F6333",
"4. c #5A7432",
"5. c #5D7B33",
"6. c #5B6E3A",
"7. c #616C2E",
"8. c #646F32",
"9. c #627D34",
"0. c #647D3C",
"q. c #637031",
"w. c #64772E",
"e. c #484543",
"r. c #4D5045",
"t. c #5E5A59",
"y. c #665746",
"u. c #755E4A",
"i. c #655D57",
"p. c #6E685F",
"a. c #647053",
"s. c #696564",
"d. c #756C60",
"f. c #79706B",
"g. c #7E7B7B",
"h. c #876349",
"j. c #8B6D55",
"k. c #987658",
"l. c #8A735D",
"z. c #A17C5A",
"x. c #817F7C",
"c. c #877C73",
"v. c #907665",
"b. c #6A8334",
"n. c #658239",
"m. c #6B843C",
"M. c #6C8C3A",
"N. c #678736",
"B. c #71893F",
"V. c #72943C",
"C. c #749A3E",
"Z. c #789E3F",
"A. c #7BA53E",
"S. c #7CA83F",
"D. c #759A42",
"F. c #789E41",
"G. c #759544",
"H. c #71884C",
"J. c #7CA541",
"K. c #AE845D",
"L. c #AD8462",
"P. c #A98A6B",
"I. c #B58961",
"U. c #BC8F67",
"Y. c #BD9269",
"T. c #A68374",
"R. c #C49469",
"E. c #C99A72",
"W. c #CEA176",
"Q. c #DBA676",
"!. c #DCAA7D",
"~. c #D3A276",
"^. c #E1AC79",
"/. c #E6B07E",
"(. c #EEB17D",
"). c #828281",
"_. c #8B8D88",
"`. c #9E988F",
"'. c #8F8F93",
"]. c #989493",
"[. c #948C86",
"{. c #A39B94",
"}. c #BD9488",
"|. c #A09FA0",
" X c #A4A3A3",
".X c #AAA9A8",
"XX c #BBBBBB",
"oX c #B7B3B1",
"OX c #B2ADAA",
"+X c #CDA48E",
"@X c #D5A789",
"#X c #ECB684",
"$X c #E7B181",
"%X c #F3BA85",
"&X c #FCBD84",
"*X c #FCBF89",
"=X c #F3B785",
"-X c #C4BFBE",
";X c #E8B3A0",
":X c #FFC084",
">X c #FAC391",
",X c #F4D1B5",
"<X c #CCCCCD",
"1X c #C7C6C5",
"2X c #D0CECE",
"3X c #CED0CE",
"4X c #D4D4D4",
"5X c #D5D5D8",
"6X c #E6D3C4",
"7X c #FCF0EA",
"8X c #FFF8F6",
"9X c None",
/* pixels */
"9X9X9X9X9X9X9X9X9X9X9X{ ] [ o.>.0.9.5.5.2.>.O.' 9X9X9X9X9X9X9X9X9X9X9X9X9X9X9X9X9X9X9X9X9X9X9X9X",
"9X9X9X9X9X9X9X9X9X+.0.G.C.D.F.A.S.A.S.S.A.Z.Z.C.M.1.O.' 9X9X9X9X9X9X9X9X9X9X9X9X9X9X9X9X9X9X9X9X",
"9X9X9X9X9X9X9X9X3.G.A.S.S.A.A.A.A.A.A.J.A.A.A.A.S.J.F.N.1.9X9X9X9X9X9X9X9X9X9X9X9X9X9X9X9X9X9X9X",
"9X9X9X9X9X9X9X#.D.A.A.A.J.J.S.A.A.A.A.A.A.A.A.A.S.S.S.S.J.n.9X9X9X9X9X9X9X9X9X9X9X9X9X9X9X9X9X9X",
"9X9X9X9X9X9X2.A.A.A.A.A.A.J.S.A.A.J.A.S.S.S.A.Z.C.V.V.b.w.q.*.9X9X9X9X9X9X9X9X9X9X9X9X9X9X9X9X9X",
"9X9X9X9X9X[ V.S.A.S.S.A.S.J.S.S.F.M.M.b.w.7.,.| |  .T R U Y L r 9X9X9X9X9X9X9X9X9X9X9X9X9X9X9X9X",
"9X9X9Xs.r.@.m.N.N.5.2.b.9.q.q.,...y G G U Y Y Y Y Y Y Y Y Y L 6 9X9X9X9X9X9X9X9X9X9X9X9X9X9X9X9X",
"9X9Xg. X-.9 r 9 w w G U Y U U Y U L U U L K L Y U H H | | | &.3.9X9X9X9X9X9X9X9X9X9X9X9X9X9X9X9X",
"9X9X'.).: H P K L E L E E T U  .X.X.*.,.,.*.%.,.<.N.M.C.A.Z.S.J.>.9X9X9X9X9X9X9X9X9X9X9X9X9X9X9X",
"9X9X].s a &.&.&.&.*.&.7.0.B.m.C.A.Z.F.J.S.J.S.S.A.A.S.S.S.S.J.D.+.9X9X9X9X9X9X9X9X9X9X9X9X9X9X9X",
"9X9Xs.0 6.J.J.J.S.S.J.K.J.J.J.A.A.A.J.J.J.J.J.J.A.J.J.D.M.0.@.t $ 9X9X9X9X9X9X9X9X9X9X9X9X9X9X9X",
"9X9X9X9X-.n.H.5.n.>.O.o.] t ] ' ' o.#.o.O.O.#.3.O.O.[ t @ X     X 9X9X9X9X9X9X9X9X9X9X9X9X9X9X9X",
"9X9X9X9X0 $ o X X         .                                       . 9X9X9X9X9X9X9X9X9X9X9X9X9X9X",
"9X9X9X9X.               y.P.!       Q W X                           9X9X9X9X9X9X9X9X9X9X9X9X9X9X",
"9X9X9X9X    . $       + j.I.K.!   a !./.k.O                       9X9X9X9X9X9X9X9X9X9X9X9X9X9X9X",
"9X9X9XX     / v.0   X =.;.i.].{.p.U.:X&X=Xj.O       4 .         X 9X9X9X9X9X9X9X9X9X9X9X9X9X9X9X",
"9X9X9X. 9X9Xu.=Xz.X e !.k.].8X7X,X%X&X&X&X/.u.O   u P.0           9X9X9X9X9X9X9X9X9X9X9X9X9X9X9X",
"9X9X9X9X9X9Xy.=X=X;.:.%X;.s.oX6X>X&X&X&X&X:X!.u r R./.u         X 9X9X9X9X9X9X9X9X9X9X9X9X9X9X9X",
"9X9X9X9X9X}.k.E.:X^.^.&XI.X.y.@X:X%X&X%X:X:X/.;.E.:X#X=.          9X9X9X9X9X9X9X9X9X9X9X9X9X9X9X",
"9X9X9X9X9X;X@Xh.(.:X*X&X&X#X%X&X&X&X&X:X(.&X~.I.#XQ.L.( X   9XX     9X9X9X9X9X9X9X9X9X9X9X9X9X9X",
"9X9X9X9X9XT.+Xr.k.%X:X:X&X(.:X:X&X&X&X%X:X:X^.z.h.9X9X9X9X. 9X9X    9X9X9X9X9X9X9X9X9X9X9X9X9X9X",
"9X9X9X9X9X9X9X9X9Xz.U.!.%X*X:X:X&X&X:X&X$XW.l.e.9X9X9X9X9X. 9X9X9X9X9X9X9X9X9X9X9X9X9X9X9X9X9X9X",
"9X9X9X9X9X9X9X9X9X9X9X9XL.U.Y.R.Q.!.W.h.) p.XX1X X9X9X9X9X9X9X9X9X9X9X9X9X9X9X9X9X9X9X9X9X9X9X9X",
"9X9X9X9X9X9X9X9X9X9X9X9X9X9X9X! y.[.d.G W .X5X4X5X X9X9X9X9X9X9X9X9X9X9X9X9X9X9X9X9X9X9X9X9X9X9X",
"9X9X9X9X9X9X9X9X9X9X9X9X9X9X9Xe.`.'.u H f.4X4X4X4X-X/ 9X9X9X9X9X9X9X9X9X9X9X9X9X9X9X9X9X9X9X9X9X",
"9X9X9X9X9X9X9X9X9X9X9X9X9X9X9X9XW i D P c.2X4X2X4X-X` j 9X9X9X9X9X9X9X9X9X9X9X9X9X9X9X9X9X9X9X9X",
"9X9X9X9X9X9X9X9X9X9X9X9X9X9X9X9X= , Y P t.<X4X4X5X].A z 9X9X9X9X9X9X9X9X9X9X9X9X9X9X9X9X9X9X9X9X",
"9X9X9X9X9X9X9X9X9X9X9X9X9X9X9X9X3 F E F W XX4X4X5Xl.N M 8 9X9X9X9X9X9X9X9X9X9X9X9X9X9X9X9X9X9X9X",
"9X9X9X9X9X9X9X9X9X9X9X9X9X9X9X9X3 U P 2 8 OX5X4X<X;.m N j 9X9X9X9X9X9X9X9X9X9X9X9X9X9X9X9X9X9X9X",
"9X9X9X9X9X9X9X9X9X9X9X9X9X9X9X9X9XP D < r XX5X4XXX_ m B v Q 9X9X9X9X9X9X9X9X9X9X9X9X9X9X9X9X9X9X",
"9X9X9X9X9X9X9X9X9X9X9X9X9X9X9X9X9Xi e u p.<X4X5XoX_ A v F P u 9X9X9X9X9X9X9X9X9X9X9X9X9X9X9X9X9X",
"9X9X9X9X9X9X9X9X9X9X9X9X9X9X9X9Xp g.).'.2X4X5X<Xx.W F H P F r 5 9X9X9X9X9X9X9X9X9X9X9X9X9X9X9X9X",
"9X9X9X9X9X9X9X9X9X9X9X9X9X} 9.M.4.).<X.X4X4X.Xi.W P L K k f M d 9X9X9X9X9X9X9X9X9X9X9X9X9X9X9X9X",
"9X9X9X9X9X9X9X9X9X9X9X9X9XH.K.S.C.a.1X|. Xc.X.U K H 7 < x C V m % 9X9X9X9X9X9X9X9X9X9X9X9X9X9X9X",
"9X9X9X9X9X9X9X9X9X9X9X9X9XG.C.C.G.-._.).u G S 2 , * g N V C V N = 9X9X9X9X9X9X9X9X9X9X9X9X9X9X9X",
"9X9X9X9X9X9X9X9X9X9X9X9X9X9X9X9X9X9X9X( q S k g M V C C C C C m 2 9X9X9X9X9X9X9X9X9X9X9X9X9X9X9X",
"9X9X9X9X9X9X9X9X9X9X9X9X9X9X9X9X9X9X9Xc z x m C C V V V V V V C c 5 8 9X9X9X9X9Xs 9X9X9X9X9X9X9X",
"9X9X9X9X9X9X9X9X9X9X9X9X9X9X9X9X9X9X9XM x x V C C V V V V V V V m M x b c n v z n J 9X9X9X9X9X9X",
"9X9X9X9X9X9X9X9X9X9X9X9X9X9X9X9X9X9Xb V N * x C V V V V V C C V C C C C B C V C N = 6 > - + 9X9X",
"9X9X9X9X9X9X9X9X9X9X9X9X9X9X9X9Xl x V V C j & M V V V V C C C C C C C V C C C C f ; S S q 7 3 # ",
"9X9X9X9X9X9X9X9X9X9X9X9X9X9Xh b N C C C Z N = % M V V C Z C V V V m N C N C C j ; q D D S D 9 9X",
"9X9X9X9X9X9X9X9X9X9X9X9Xn x N C V V V C N x , s 8 f j f = * * f h d * = & & l ; - 1 D D D D 6 9X",
"9X9X9X9X9X9X: : 9X9X# > B V V C V V V B l % 9X9X9X9X9X9X9X9X9X9X9X9X9X9X9X9X9X9X9X# q S D D : 9X",
"9X9X9X9X9Xq D D w > q ; g V C C C C N b 9X9X9X9X9X9X9X9X9X9X9X9X9X9X9X9X9X9X9X9X9X9X: D D D ; 9X",
"9X9X9X9X9X6 D D D D D q h M V C B j f 9X9X9X9X9X9X9X9X9X9X9X9X9X9X9X9X9X9X9X9X9X9X9X4 D D D > 9X",
"9X9X9X9X9X9X> D D S D F S , x z = 9X9X9X9X9X9X9X9X9X9X9X9X9X9X9X9X9X9X9X9X9X9X9X9X9X> D D q - 9X",
"9X9X9X9X9X9X9X: D S D D q 6 ; 9X9X9X9X9X9X9X9X9X9X9X9X9X9X9X9X9X9X9X9X9X9X9X9X9X9X9X9X6 q 9 9X9X",
"9X9X9X9X9X9X9X9Xe D D 6 3 # 9X9X9X9X9X9X9X9X9X9X9X9X9X9X9X9X9X9X9X9X9X9X9X9X9X9X9X9X9X9X9X9X9X9X"
};
