/* XPM */
static char *result[] = {
/* columns rows colors chars-per-pixel */
"48 48 202 2 ",
"   c #020202",
".  c #090605",
"X  c #060804",
"o  c #0B0A0A",
"O  c #0A0B06",
"+  c #140E0B",
"@  c #1B0F0A",
"#  c #1A0C07",
"$  c #1C130C",
"%  c #151B0B",
"&  c #191413",
"*  c #0E1308",
"=  c #270D06",
"-  c #390D08",
";  c #25140B",
":  c #2B140B",
">  c #2D180D",
",  c #33130A",
"<  c #331C0E",
"1  c #3D1B0C",
"2  c #3F1309",
"3  c #231A13",
"4  c #2A1B14",
"5  c #271511",
"6  c #361C11",
"7  c #3B1714",
"8  c #1F2911",
"9  c #1B260F",
"0  c #3C210F",
"q  c #282E15",
"w  c #3D2112",
"e  c #34251C",
"r  c #382716",
"t  c #2A3618",
"y  c #3A3916",
"u  c #392D22",
"i  c #383636",
"p  c #420F06",
"a  c #530D07",
"s  c #431207",
"d  c #44130B",
"f  c #4B1309",
"g  c #4A1409",
"h  c #5D1407",
"j  c #541209",
"k  c #5C1309",
"l  c #411D10",
"z  c #631306",
"x  c #631309",
"c  c #6D1509",
"v  c #6D1406",
"b  c #731607",
"n  c #731508",
"m  c #41220F",
"M  c #422411",
"N  c #4B2818",
"B  c #562816",
"V  c #4C3A16",
"C  c #4A3718",
"Z  c #5A3316",
"A  c #543A17",
"S  c #613415",
"D  c #462F22",
"F  c #483829",
"G  c #50322B",
"H  c #463D3A",
"J  c #583732",
"K  c #6A3C35",
"L  c #2F4218",
"P  c #32431C",
"I  c #34471B",
"U  c #3F531F",
"Y  c #3B4C21",
"T  c #3F5224",
"R  c #4A491C",
"E  c #4F521D",
"W  c #445B24",
"Q  c #485727",
"!  c #595B24",
"~  c #525134",
"^  c #5D5E30",
"/  c #52452C",
"(  c #684638",
")  c #6C543D",
"_  c #4D662A",
"`  c #526C2C",
"'  c #57692A",
"]  c #57752D",
"[  c #546B33",
"{  c #5A7432",
"}  c #5D7B31",
"|  c #627C33",
" . c #627B3C",
".. c #626629",
"X. c #4B4A48",
"o. c #574944",
"O. c #5A5150",
"+. c #645D57",
"@. c #755D4C",
"#. c #617249",
"$. c #637649",
"%. c #61605F",
"&. c #6A7C54",
"*. c #7C6147",
"=. c #6A6969",
"-. c #7E6F6B",
";. c #7B7269",
":. c #7D7D7D",
">. c #777974",
",. c #87674A",
"<. c #986F4D",
"1. c #806E5D",
"2. c #947254",
"3. c #997859",
"4. c #A57D5C",
"5. c #887A75",
"6. c #907C6A",
"7. c #A17B63",
"8. c #648335",
"9. c #6A8C39",
"0. c #688736",
"q. c #6D9139",
"w. c #71963C",
"e. c #769E3D",
"r. c #77A13E",
"t. c #7AA53E",
"y. c #698443",
"u. c #728B4E",
"i. c #729542",
"p. c #74865C",
"a. c #748955",
"s. c #789251",
"d. c #7AA440",
"f. c #7AA641",
"g. c #778663",
"h. c #AD835D",
"j. c #82827D",
"k. c #899A6F",
"l. c #AD8360",
"z. c #A88A6E",
"x. c #B58962",
"c. c #B98D63",
"v. c #B48967",
"b. c #BC926B",
"n. c #A08A73",
"m. c #C2966C",
"M. c #CD9A6D",
"N. c #C39366",
"B. c #CD9C72",
"V. c #CC9C7A",
"C. c #D39F72",
"Z. c #D4A074",
"A. c #DAA776",
"S. c #D4A378",
"D. c #DDAA7A",
"F. c #E4AD7B",
"G. c #E6AC79",
"H. c #EDB37F",
"J. c #F0B47F",
"K. c #868584",
"L. c #8B8A8B",
"P. c #948E8B",
"I. c #93968B",
"U. c #959494",
"Y. c #9B9D98",
"T. c #8E9885",
"R. c #A29E9D",
"E. c #9CA199",
"W. c #9EA2A2",
"Q. c #A5A6A5",
"!. c #A9AAA7",
"~. c #B3AEAC",
"^. c #ADB5B3",
"/. c #BCBCBC",
"(. c #B6B7B5",
"). c #DCAD83",
"_. c #C1AA99",
"`. c #ECAF80",
"'. c #EEB581",
"]. c #E2B080",
"[. c #F5B982",
"{. c #FCBD84",
"}. c #F2B681",
"|. c #EDB699",
" X c #F7BBA2",
".X c #FCC087",
"XX c #DEC4AD",
"oX c #C1C0BF",
"OX c #F0D5BC",
"+X c #BABEC0",
"@X c #B5BDC2",
"#X c #BAC2C3",
"$X c #C4C4C4",
"%X c #CBCBCB",
"&X c #C7C7C8",
"*X c #D1CECF",
"=X c #C3CBD0",
"-X c #CED4D6",
";X c #D3D3D3",
":X c #DADBDA",
">X c #D9E5E6",
",X c None",
/* pixels */
",X,X,X,X,X,X,X,X,X,X,X,X,X,X,X` } 8.9.} ` W T ,X,X,X,X,X,X,X,X,X,X,X,X,X,X,X,X,X,X,X,X,X,X,X,X,X",
",X,X,X,X,X,X,X,X,X,X,X,X,X_ 0.e.r.t.f.r.r.r.q.} T Q ,X,X,X,X,X,X,X,X,X,X,X,X,X,X,X,X,X,X,X,X,X,X",
",X,X,X,X,X,X,X,X,X,X,X,X] 9.f.t.t.t.r.f.t.t.f.f.e.9.W q ,X,X,X,X,X,X,X,X,X,X,X,X,X,X,X,X,X,X,X,X",
",X,X,X,X,X,X,X,X,X,X| w.d.r.t.t.t.f.f.t.t.t.t.t.f.r.| A N N ,X,X,X,X,X,X,X,X,X,X,X,X,X,X,X,X,X,X",
",X,X,X,X,X,X,X,X,X` e.t.t.t.t.t.t.t.t.t.t.t.t.f.w.E R Z S N r ,X,X,X,X,X,X,X,X,X,X,X,X,X,X,X,X,X",
",X,X,X,X,X,X,X,X_ w.t.f.t.t.t.t.t.t.k.i.w.e.u.{ A S S B A ! ` ,X,X,X,X,X,X,X,X,X,X,X,X,X,X,X,X,X",
",X,X,X,X,X,X,XY 8.t.f.t.t.r.t.t.t.t.q.&.k.(.(.;.Z Z C E 0.r.f.} ,X,X,X,X,X,X,X,X,X,X,X,X,X,X,X,X",
",X,X,X,X,X,X,X8.d.t.q. .a.p.$.w.w.0.Q g.#X>X=X!.~ E 0.t.t.r.9.T t ,X,X,X,X,X,X,X,X,X,X,X,X,X,X,X",
",X,X,X,X,X,XQ ' | { &.P.#X@XY.~ V V y >.!./.Q.k.w.t.f.9.[ P % X O ,X,X,X,X,X,X,X,X,X,X,X,X,X,X,X",
",X,X,X,X,X,XA Z Z / P.=X>X-X+X+.C C ! a.g.&.y.w.w.' t * O           ,X,X,X,X,X,X,X,X,X,X,X,X,X,X",
",X,X,X,X,X,XR ' ! ^ I.^.W.Y.Y.#.9.w.f.d.w.q.} T 8 X                   ,X,X,X,X,X,X,X,X,X,X,X,X,X",
",X,X,X,X,XT 8.w.r.e.$.a.#.[ } 0.q.9.] _ L 9 O                       X ,X,X,X,X,X,X,X,X,X,X,X,X,X",
",X,X,X,X,XY P q L I Y I W P q 9 9 * .   . $       . u o                 ,X,X,X,X,X,X,X,X,X,X,X,X",
",X,X,X,X,X,X.                 .         *.M.u       2.3.$         o X   . ,X,X,X,X,X,X,X,X,X,X,X",
",X,X,X,X,Xo           .     u *.X     ( H.J.B.u   o x..Xc.4       ,X,X,Xo ,X,X,X,X,X,X,X,X,X,X,X",
",X,X,X,X& .           F / & l.}.,.$ 3 m.{.{.{.v.+ e A.{.{.m.e     ,X,X,X,X,X,X,X,X,X,X,X,X,X,X,X",
",X,X,X,X.   ,X      . ,.M.4.Z.H.J.b.x.J.{.{.{.[.) ) v.z.m.}.x.+   ,X,X,X,X,X,X,X,X,X,X,X,X,X,X,X",
",X,X,X,X,X,X,XX     F D.M.6._.'..X{.{..X{.{.{.{.M.N.z.oXXXG.[.F   ,X,X,X,X,X,X,X,X,X,X,X,X,X,X,X",
",X,X,X,X,X,X,X    + v.[.M.6.~.)..XJ.{.{.{.{.{.{.J.J.3.Q.OX{.[.,.,X,X,X,X,X,X,X,X,X,X,X,X,X,X,X,X",
",X,X,X,X,X,X,X    & Z.{.{.2.D c..X{.{.{.[.[.{.{.{..X4.) ).{.H.,X,X,X,X,X,X,X,X,X,X,X,X,X,X,X,X,X",
",X,X,X,X,X,X,X. . ,Xx..X{.F.C.[..XH.N.Z.B.B.C.{.{.{.}.}.{.{.A.,X,X,X,X,X,X,X,X,X,X,X,X,X,X,X,X,X",
",X,X,X,X,X,X,X+ ,X,X,.F.{.{.{.{.{.<.7. X X|.4.G.{.{.{.{.{.F.l.,X,X,X,X,X,X,X,X,X,X,X,X,X,X,X,X,X",
",X,X,X,X,X,X,X,X,X,X,X2.D.{.{.{.{.c.h.V.V.v.4.'.{.{.{.[.].b.,X,X,X,X,X,X,X,X,X,X,X,X,X,X,X,X,X,X",
",X,X,X,X,X,X,X,X,X,X,X,X,Xm.].}.{.{.[.J.J.J.{.{.[.'.S.x.,X,X,X,X,X,X,X,X,X,X,X,X,X,X,X,X,X,X,X,X",
",X,X,X,X,X,X,X,X,X,X,X,X,X,X,X,XC.x.c.M.M.c.v.).,X,X,X,X,X,X,X,X,X,X,X,X,X,X,X,X,X,X,X,X,X,X,X,X",
",X,X,X,X,X,X,X,X,X,X,X,X,X,X,X,X,X1.m.A.F.V.-.,X,X,X,X,X,X,X,X,X,X,X,X,X,X,X,X,X,X,X,X,X,X,X,X,X",
",X,X,X,X,X,X,X,X,X,X,X,X,X,X,X%.1.R.z.C.V.n.@.D 4 i ,X,X,X,X,X,X,X,X,X,X,X,X,X,X,X,X,X,X,X,X,X,X",
",X,X,X,X,X,X,X,X,X,X,X,X,X,X>.5.B 5.K.j.P.;.7 : o.~.=.,X,X,X,X,X,X,X,X,X,X,X,X,X,X,X,X,X,X,X,X,X",
",X,X,X,X,X,X,X,X,X,X,X,X,X=.%X%XK B G K G > : 3 R.:XQ.,X,X,X,X,X,X,X,X,X,X,X,X,X,X,X,X,X,X,X,X,X",
",X,X,X,X,X,X,X,X,X,X,X,X,XU.:X&XO.a n v = ; < 6 P.;X(.,X,X,X,X,X,X,X,X,X,X,X,X,X,X,X,X,X,X,X,X,X",
",X,X,X,X,X,X,X,X,X,X,X,X,X$X;XK.7 c n p @ ; : , +.;X$X,X,X,X,X,X,X,X,X,X,X,X,X,X,X,X,X,X,X,X,X,X",
",X,X,X,X,X,X,X,X,X,X,X,X,X&X=X%.a n a - 6 : p j H +X*X:.,X,X,X,X,X,X,X,X,X,X,X,X,X,X,X,X,X,X,X,X",
",X,X,X,X,X,X,X,X,X,X,X,X:.%X&X%.a c d < > s c k 5 U.*XK.,X,X,X,X,X,X,X,X,X,X,X,X,X,X,X,X,X,X,X,X",
",X,X,X,X,X,X,X,X,X,X,X,X:.*X/.X.s g M M 1 x n c 7 U.;XY.,X,X,X,X,X,X,X,X,X,X,X,X,X,X,X,X,X,X,X,X",
",X,X,X,X,X,X,X,X,X,X,X,XK.%X/.X.= < w < f x f d = L.*X~.,X,X,X,X,X,X,X,X,X,X,X,X,X,X,X,X,X,X,X,X",
",X,X,X,X,X,X,X,X,X,X,X,XK.;X(.H > > < ; , ; = ; + K.;X(.,X,X,X,X,X,X,X,X,X,X,X,X,X,X,X,X,X,X,X,X",
",X,X,X,X,X,X,X,X,X,X,X,XK.%XQ.,Xd d 1 1 , ; = : # =.$X!.,X,X,X,X,X,X,X,X,X,X,X,X,X,X,X,X,X,X,X,X",
",X,X,X,X,X,X,X,X,X,X,X,X,X/.W.J k n c z z x k h p O.W.E.,X,X,X,X,X,X,X,X,X,X,X,X,X,X,X,X,X,X,X,X",
",X,X,X,X,X,X,X,X,X,X,X,X$.k.g.D x n n n c n b n x R a.a.,X,X,X,X,X,X,X,X,X,X,X,X,X,X,X,X,X,X,X,X",
",X,X,X,X,X,X,X,X,X,X,X,X] q._ l n b n c a c n n x y ] q.,X,X,X,X,X,X,X,X,X,X,X,X,X,X,X,X,X,X,X,X",
",X,X,X,X,X,X,X,X,X,X,X,X` 8.,Xg c n b c - x n n x , { 8.,X,X,X,X,X,X,X,X,X,X,X,X,X,X,X,X,X,X,X,X",
",X,X,X,X,X,X,X,X,X,X,X,X,X,X,Xj n n b h ,Xz b n v d ,X,X,X,X,X,X,X,X,X,X,X,X,X,X,X,X,X,X,X,X,X,X",
",X,X,X,X,X,X,X,X,X,X,X,X,X,X,Xj n b b a ,Xk n b c f ,X,X,X,X,X,X,X,X,X,X,X,X,X,X,X,X,X,X,X,X,X,X",
",X,X,X,X,X,X,X,X,X,X,X,X,X,X,Xk n b c j ,Xj v n b j ,X,X,X,X,X,X,X,X,X,X,X,X,X,X,X,X,X,X,X,X,X,X",
",X,X,X,X,X,X,X,X,X,X,X,X,X,X,X, f f s , ,X,Xj k h s ,X,X,X,X,X,X,X,X,X,X,X,X,X,X,X,X,X,X,X,X,X,X",
",X,X,X,X,X,X,X,X,X,X,X,X,X,X@ 6 0 0 < # ,X,X; 1 m w ,X,X,X,X,X,X,X,X,X,X,X,X,X,X,X,X,X,X,X,X,X,X",
",X,X,X,X,X,X,X,X,X,X,X,X,X,X; m M M < ,X,X,X@ 0 M M 0 r ; ,X,X,X,X,X,X,X,X,X,X,X,X,X,X,X,X,X,X,X",
",X,X,X,X,X,X,X,X,X,X,X,X,X> 0 m w M > ,X,X,X+ r M m m 6 ; ,X,X,X,X,X,X,X,X,X,X,X,X,X,X,X,X,X,X,X"
};
