/* XPM */
static char *result[] = {
/* columns rows colors chars-per-pixel */
"48 48 216 2 ",
"   c #020202",
".  c #0B0B0B",
"X  c #090906",
"o  c #120E0B",
"O  c #1C0905",
"+  c #0D1009",
"@  c #1C110C",
"#  c #16160C",
"$  c #171516",
"%  c #1C1513",
"&  c #1D1C1D",
"*  c #3D0E09",
"=  c #360F0A",
"-  c #25150C",
";  c #2B160D",
":  c #2D1A0E",
">  c #33120B",
",  c #3C130B",
"<  c #37170A",
"1  c #221612",
"2  c #2C1C14",
"3  c #261E18",
"4  c #331D11",
"5  c #3B1F14",
"6  c #3F1511",
"7  c #1B2116",
"8  c #3E210F",
"9  c #24261A",
"0  c #3C2212",
"q  c #372417",
"w  c #34371A",
"e  c #242220",
"r  c #3B2E22",
"t  c #3C3D32",
"y  c #3B342B",
"u  c #4E1106",
"i  c #4C130B",
"p  c #4D1A0D",
"a  c #45150B",
"s  c #5C1306",
"d  c #53130A",
"f  c #5C150B",
"g  c #541D0F",
"h  c #5A190D",
"j  c #471A14",
"k  c #5E1A11",
"l  c #631207",
"z  c #6D1506",
"x  c #63150A",
"c  c #6C1609",
"v  c #631A0D",
"b  c #6B180B",
"n  c #731607",
"m  c #731609",
"M  c #781507",
"N  c #651D15",
"B  c #44240F",
"V  c #4A200D",
"C  c #51200C",
"Z  c #422411",
"A  c #4A2512",
"S  c #4D2B13",
"D  c #482919",
"F  c #512412",
"G  c #532C14",
"H  c #5A2E14",
"J  c #5B2819",
"K  c #4A3917",
"L  c #533114",
"P  c #5C3115",
"I  c #523419",
"U  c #5C3119",
"Y  c #543E1B",
"T  c #593C1A",
"R  c #593817",
"E  c #613516",
"W  c #483729",
"Q  c #4E3F33",
"!  c #413A35",
"~  c #573932",
"^  c #563122",
"/  c #7C3F36",
"(  c #3A4B1E",
")  c #38441F",
"_  c #354222",
"`  c #3B4924",
"'  c #36412E",
"]  c #3F5324",
"[  c #4E431B",
"{  c #44491E",
"}  c #554A1E",
"|  c #55431C",
" . c #51561F",
".. c #444722",
"X. c #574A21",
"o. c #5A4A22",
"O. c #55402B",
"+. c #435625",
"@. c #435A25",
"#. c #44562B",
"$. c #485B28",
"%. c #545423",
"&. c #5D5626",
"*. c #525E23",
"=. c #554537",
"-. c #4A5731",
";. c #49433B",
":. c #684F3A",
">. c #6D533A",
",. c #4C632B",
"<. c #52692D",
"1. c #596629",
"2. c #556B33",
"3. c #596A3C",
"4. c #5C7636",
"5. c #5D7737",
"6. c #5A752F",
"7. c #636A2D",
"8. c #60752F",
"9. c #627A32",
"0. c #637737",
"q. c #72793B",
"w. c #4A4645",
"e. c #554A44",
"r. c #4F5A41",
"t. c #54544F",
"y. c #5D5048",
"u. c #69554A",
"i. c #755A44",
"p. c #635D5A",
"a. c #5F6B52",
"s. c #7A614A",
"d. c #69635F",
"f. c #75605B",
"g. c #667A42",
"h. c #625F60",
"j. c #6A6460",
"k. c #70736A",
"l. c #7B7B7B",
"z. c #797874",
"x. c #83634F",
"c. c #96704F",
"v. c #947051",
"b. c #97785D",
"n. c #8C735D",
"m. c #A37D5C",
"M. c #8B6A65",
"N. c #8B766E",
"B. c #97796F",
"V. c #997A72",
"C. c #658236",
"Z. c #6B8C37",
"A. c #648139",
"S. c #6C8D3B",
"D. c #6A863B",
"F. c #708E38",
"G. c #6F923C",
"H. c #72953C",
"J. c #759C3D",
"K. c #799E3E",
"L. c #7BA43E",
"P. c #6E8B40",
"I. c #769C42",
"U. c #7A9F42",
"Y. c #7BA541",
"T. c #7BA942",
"R. c #A7815D",
"E. c #B4845E",
"W. c #B1885E",
"Q. c #86887A",
"!. c #AB8562",
"~. c #B58962",
"^. c #B98B62",
"/. c #BC936D",
"(. c #BA9175",
"). c #C5976B",
"_. c #C69B74",
"`. c #D39F72",
"'. c #CEA179",
"]. c #CEA277",
"[. c #D4A376",
"{. c #D6A87B",
"}. c #E3AC7B",
"|. c #ECB37F",
" X c #E5B17D",
".X c #8C8C8C",
"XX c #888883",
"oX c #92908F",
"OX c #9E9D9C",
"+X c #989694",
"@X c #928E85",
"#X c #BFA187",
"$X c #AAAAAA",
"%X c #B5B5B4",
"&X c #BDBEBE",
"*X c #BAB7B6",
"=X c #C79988",
"-X c #F5BA83",
";X c #FCBD84",
":X c #F7BB87",
">X c #E9B384",
",X c #C5BCB8",
"<X c #F8BEA7",
"1X c #FCC086",
"2X c #FEC28C",
"3X c #F0C297",
"4X c #C5C0BC",
"5X c #C3C3C2",
"6X c #CCCBCB",
"7X c #C7C8C5",
"8X c #D1CCC9",
"9X c #D4D4D5",
"0X c #DAD4D3",
"qX c #F9E1CE",
"wX c #E8E4E4",
"eX c None",
/* pixels */
"eXeXeXeXeXeXeXeXeXeXeXeXeXeXeXeXeXeXeXeXeXeXeXeX( ,.,.,.,.<.<.<.+.` ` _ _ eXeXeXeXeXeXeXeXeXeXeX",
"eXeXeXeXeXeXeXeXeXeXeXeXeXeXeXeXeXeXeXeX] ,.5.G.G.J.J.L.L.L.L.L.L.I.I.H.H.P.g.#.eXeXeXeXeXeXeXeX",
"eXeXeXeXeXeXeXeXeXeXeXeXeXeXeXeXeXeX<.C.L.L.L.L.L.L.L.L.L.L.L.L.L.L.L.L.Y.L.T.I.2.eXeXeXeXeXeXeX",
"eXeXeXeXeXeXeXeXeXeXeXeXeXeXeXeX-.A.I.T.L.L.L.L.L.L.L.L.T.L.L.L.L.L.L.L.L.L.L.L.I.6.` eXeXeXeXeX",
"eXeXeXeXeXeXeXeXeXeXeXeXeXeXeXeXO.&.%.1.7.9.9.C.G.H.K.K.L.T.T.L.L.L.L.L.L.L.L.L.L.L.D.) eXeXeXeX",
"eXeXeXeXeXeXeXeXeXeXeXeXeXeXeX5 U E P P P P G K I T } %. .*.<.9.H.J.H.K.L.L.I.Y.Y.L.Y.<.' eXeXeX",
"eXeXeXeXeXeXeXeXeXeXeXeXeXeXeXw Y K L L L G P P E P H H G S A S T | | } %.[ K ..{ ( ..) ! l.XXeX",
"eXeXeXeXeXeXeXeXeXeXeXeXeXeX] I.H.Z.D.C.8.1.%.} } Y Y X.o.Y Y R R G G U P G H H G B A A : d.*Xw.",
"eXeXeXeXeXeXeXeXeXeXeXeXeXeX,.Y.T.L.L.L.L.Y.L.K.J.J.J.L.I.H.H.F.Z.9.6.q.7.&.o.} o.o.o.X.W 9 oXz.",
"eXeXeXeXeXeXeXeXeXeXeXeXeXeX7 _ <.C.G.J.Y.Y.L.T.L.L.L.L.Y.T.R.Y.T.T.Y.Y.Y.U.U.Y.Y.I.I.Y.S.9 w.z.",
"eXeXeXeXeXeXeXeXeXeXeXeXeX$       X # 9 _ #.+.$.,.+.+.#.] @.@.( _ _ w w ` -.#.,.2.4.A.D.2.t eXeX",
"eXeXeXeXeXeXeXeXeXeXeXeXeXX                                 X X     . $             . + $ eXeXeX",
"eXeXeXeXeXeXeXeXeXeXeXeXeX                            9 :.s.#     q !._.W                 eXeXeX",
"eXeXeXeXeXeXeXeXeXeXeXeXeXeX                        W _.1X1Xn.# ! n.b.i.:..     X y 3       eXeX",
"eXeXeXeXeXeXeXeXeXeXeXeXeXeX            =.r     X Q [.;X1X|.|.#X8X0X5Xy.!.s..   :.#Xi.eXX   eXeX",
"eXeXeXeXeXeXeXeXeXeXeXeXeXeXX         X m.[.W   Q [.;X;X1X1X1X2XqXwX9Xe.~.}.q K [.1Xx.eXeXeXeXeX",
"eXeXeXeXeXeXeXeXeXeXeXeXeX.     X     % /.2X}.:.i.;X;X;X;X|.1X1X3XN.e.W ).1XW.`.;X Xx.V.eXeXeXeX",
"eXeXeXeXeXeXeXeXeXeXeXeXeXX   X eX    e b.{.|.}.c.>X;X;X;X;X1X|.;X>X[.}.;X;X1X2X-Xc.(.<XV.eXeXeX",
"eXeXeXeXeXeXeXeXeXeXeXeXeXX   eXeXX $ eXeXeXi.b.~.|.1X;X1X|.1X;X;X;X;X;X;X;X;X>Xm.=.=X=XeXeXeXeX",
"eXeXeXeXeXeXeXeXeXeXeXeXeXeXeXeXeXX eXeXeXeXeXeXeXc._.}.|.1X1X1X;X;X;X-X|.`.~.R.eXeXeXeXeXeXeXeX",
"eXeXeXeXeXeXeXeXeXeXeXeXeXeXeXeXeXeXeXeXeXeXz.l.f.~ D ^ i.(.].).^.E.~.~.eXeXeXeXeXeXeXeXeXeXeXeX",
"eXeXeXeXeXeXeXeXeXeXeXeXeXeXeXeXeXeXeXeX&X5X7X9X8X,XN.5 G :.+XQ.;.eXeXeXeXeXeXeXeXeXeXeXeXeXeXeX",
"eXeXeXeXeXeXeXeXeXeXeXeXeXeXeXeXeX+X%X6X9X9X9X9X9X9X9Xp.A 0 t.Q.w.eXeXeXeXeXeXeXeXeXeXeXeXeXeXeX",
"eXeXeXeXeXeXeXeXeXeXeXeXeXeXeXXX&X9X9X9X9X9X9X9X9X9X4Xu.A U ; a > eXeXeXeXeXeXeXeXeXeXeXeXeXeXeX",
"eXeXeXeXeXeXeXeXeXeXeXeXeXeX+X7X9X6X%X@XN.M.M.B.V.M./ h F E A p A eXeXeXeXeXeXeXeXeXeXeXeXeXeXeX",
"eXeXeXeXeXeXeXeXeXeXeXeXeXeX5X9X9X$X~ f z z c m m z n x A E J J eXeXeXeX<.S.H.D.g.eXeXeXeXeXeXeX",
"eXeXeXeXeXeXeXeXeXeXeXeXeXXX5X5X5Xd.j f z m m m m m m f J E H J eXoXt.2.Y.T.L.Y.g.eXeXeXeXeXeXeX",
"eXeXeXeXeXeXeXeXeXeXeXeXeXOX*X%X%Xj.0 j g f c m m m M f G E D e.l.*X&Xa.C.T.Y.D.eXeXeXeXeXeXeXeX",
"eXeXeXeXeXeXeXeXeXeXeXeXeXk.Q.@XQ.j.D L A Z p x m n M f G P u.*X5XOX5X&Xr.5.P.eXeXeXeXeXeXeXeXeX",
"eXeXeXeXeXeXeXeXeXeXeXeXeX0.G.G.Z.] ; A G H G V p f m g G P N.0X9X5X.X&X.XeXeXeXeXeXeXeXeXeXeXeX",
"eXeXeXeXeXeXeXeXeXeXeXeXeXP.Y.L.T.1.u d , < B S G S V p J I z.%X*XeXeXeXeXeXeXeXeXeXeXeXeXeXeXeX",
"eXeXeXeXeXeXeXeXeXeXeXeXeXeX9.L.S.[ x m z f u a , a p C A eXeXeXeXeXeXeXeXeXeXeXeXeXeXeXeXeXeXeX",
"eXeXeXeXeXeXeXeXeXeXeXeXeXeXZ T G f n n m M M n c z b l f h eXeXeXeXeXeXeXeXeXeXeXeXeXeXeXeXeXeX",
"eXeXeXeXeXeXeXeXeXeXeXeXeXi x m m M n m m z m m m m c l m m v i eXeXeXeXeXeXeXeXeXeXeXeXeXeXeXeX",
"eXeXeXeXeXeXeXeXeXeXeXeXi c n m m m n n n n m m m l s z m n m z v k eXeXeXeXeXeXeXeXeXeXeXeXeXeX",
"eXeXeXeXeXeXeXeXeXeX, f z n m m m m n M m M n c l s z m m m m m m m N eXeXeXeXeXeXeXeXeXeXeXeXeX",
"eXeXeXeXeXeXeXeX* d c m m n m n n m m n c m x u d x b z n n M m m n b j eXeXeXeXeXeXeXeXeXeXeXeX",
"eXeXeXeXeXeXi f b m m m m m n n M n x d u eXeXeXeXeX> d n n n m n n b , eXeXeXeXeXeXeXeXeXeXeXeX",
"eXeXeXeX1 > d m m n M m n M n l x d eXeXeXeXeXeXeXeXa b z m n m m x p eXeXeXeXeXeXeXeXeXeXeXeXeX",
"eXeXeX@ 4 5 > , f c m z l d * * eXeXeXeXeXeXeXeX% 4 , u b n M m f = eXeXeXeXeXeXeXeXeXeXeXeXeXeX",
"eXo - 0 Z B B 4 ; * g , O eXeXeXeXeXeXeXeXeXeX@ 2 Z 8 6 a d x v , eXeXeXeXeXeXeXeXeXeXeXeXeXeXeX",
"o @ 0 Z Z 8 B 0 ; o % eXeXeXeXeXeXeXeXeXeXeXeX2 Z Z Z Z 5 ; : eXeXeXeXeXeXeXeXeXeXeXeXeXeXeXeXeX",
"eX@ 4 Z B B B 0 1 & eXeXeXeXeXeXeXeXeXeXeXeXeXq B B Z Z Z : eXeXeXeXeXeXeXeXeXeXeXeXeXeXeXeXeXeX",
"eXeXeXq Z Z B 0 2 eXeXeXeXeXeXeXeXeXeXeXeXeXeX2 q 8 Z B Z : eXeXeXeXeXeXeXeXeXeXeXeXeXeXeXeXeXeX",
"eXeXeXeX4 8 B Z 4 1 eXeXeXeXeXeXeXeXeXeXeXeXeXeXeX- 0 B B 0 1 eXeXeXeXeXeXeXeXeXeXeXeXeXeXeXeXeX",
"eXeXeXeX- 8 0 Z Z ; eXeXeXeXeXeXeXeXeXeXeXeXeXeXeXeX3 0 0 4 eXeXeXeXeXeXeXeXeXeXeXeXeXeXeXeXeXeX",
"eXeXeXeXeX; 0 A 0 ; eXeXeXeXeXeXeXeXeXeXeXeXeXeXeXeXeXeXeXeXeXeXeXeXeXeXeXeXeXeXeXeXeXeXeXeXeXeX",
"eXeXeXeXeXeX- 4 eXeXeXeXeXeXeXeXeXeXeXeXeXeXeXeXeXeXeXeXeXeXeXeXeXeXeXeXeXeXeXeXeXeXeXeXeXeXeXeX"
};
