/* XPM */
static char *result[] = {
/* columns rows colors chars-per-pixel */
"48 48 213 2 ",
"   c #020202",
".  c #090605",
"X  c #090A07",
"o  c #0B0A0B",
"O  c #080709",
"+  c #140E0C",
"@  c #190E0A",
"#  c #150905",
"$  c #0E1108",
"%  c #1C130D",
"&  c #14150E",
"*  c #1D1513",
"=  c #1C1D13",
"-  c #161614",
";  c #270C0A",
":  c #350F09",
">  c #3A0F0B",
",  c #370B05",
"<  c #24140C",
"1  c #2A140C",
"2  c #2E1A0E",
"3  c #361207",
"4  c #34130D",
"5  c #3D150C",
"6  c #331B0E",
"7  c #3B1B0E",
"8  c #241A14",
"9  c #2A1B12",
"0  c #271A16",
"q  c #341D12",
"w  c #3B1C11",
"e  c #391711",
"r  c #1A220F",
"t  c #1E2418",
"y  c #3E220E",
"u  c #2D231B",
"i  c #272F1C",
"p  c #3C2212",
"a  c #37231A",
"s  c #2D381D",
"d  c #383517",
"f  c #1E1F20",
"g  c #3B2C24",
"h  c #35372A",
"j  c #2F3228",
"k  c #420E06",
"l  c #4A0F07",
"z  c #410D08",
"x  c #4E1207",
"c  c #44130B",
"v  c #4C130A",
"b  c #4C180E",
"n  c #53130A",
"m  c #5C1409",
"M  c #541A0D",
"N  c #561408",
"B  c #421A14",
"V  c #481B14",
"C  c #591C14",
"Z  c #6C1507",
"A  c #65150A",
"S  c #6C160A",
"D  c #651609",
"F  c #731606",
"G  c #731608",
"H  c #631B14",
"J  c #44240F",
"K  c #4B270F",
"L  c #432412",
"P  c #492413",
"I  c #452914",
"U  c #4C2914",
"Y  c #4F2E1A",
"T  c #45241E",
"R  c #532D13",
"E  c #5B2F13",
"W  c #57281B",
"Q  c #4A3415",
"!  c #483A1A",
"~  c #553315",
"^  c #5D3115",
"/  c #5B3319",
"(  c #553A19",
")  c #603316",
"_  c #452D29",
"`  c #44352C",
"'  c #4B3A2C",
"]  c #403E20",
"[  c #5A322C",
"{  c #473B35",
"}  c #35461D",
"|  c #3B4B23",
" . c #3B4927",
".. c #3E5226",
"X. c #47461D",
"o. c #53421B",
"O. c #544B1F",
"+. c #5B441F",
"@. c #564C23",
"#. c #584825",
"$. c #415325",
"%. c #425329",
"&. c #475B2C",
"*. c #425A24",
"=. c #545423",
"-. c #5D5726",
";. c #474A38",
":. c #5B4739",
">. c #61472F",
",. c #684C36",
"<. c #4E652C",
"1. c #4F6125",
"2. c #52632C",
"3. c #546C2D",
"4. c #59682B",
"5. c #5E722D",
"6. c #536B32",
"7. c #556936",
"8. c #5C7433",
"9. c #5E7B35",
"0. c #5C7539",
"q. c #657D33",
"w. c #64793F",
"e. c #727C3E",
"r. c #65652E",
"t. c #484746",
"y. c #524C47",
"u. c #5B534D",
"i. c #5F5956",
"p. c #6C5542",
"a. c #745A44",
"s. c #785E47",
"d. c #645D55",
"f. c #6C544E",
"g. c #566247",
"h. c #7C654E",
"j. c #6E6357",
"k. c #6F714C",
"l. c #6C6966",
"z. c #7D7776",
"x. c #726E69",
"c. c #83654B",
"v. c #8D7056",
"b. c #957457",
"n. c #916E56",
"m. c #A97E5A",
"M. c #A27B58",
"N. c #89756A",
"B. c #847A75",
"V. c #8E7061",
"C. c #66853B",
"Z. c #6B853B",
"A. c #6C8C3A",
"S. c #698736",
"D. c #6E923B",
"F. c #72943D",
"G. c #759B3E",
"H. c #789F3F",
"J. c #7BA53E",
"K. c #7BA83F",
"L. c #77A13D",
"P. c #6A8040",
"I. c #728F41",
"U. c #769B41",
"Y. c #759642",
"T. c #7BA441",
"R. c #7DA842",
"E. c #A9825C",
"W. c #B2875F",
"Q. c #9D8167",
"!. c #8B857E",
"~. c #B68C67",
"^. c #BB916B",
"/. c #A08175",
"(. c #B68F70",
"). c #C19469",
"_. c #CD9D71",
"`. c #D9A678",
"'. c #CCA076",
"]. c #E4AD7A",
"[. c #ECB17C",
"{. c #898A88",
"}. c #9B9996",
"|. c #919087",
" X c #A89D98",
".X c #A8A8A7",
"XX c #B2ABAA",
"oX c #B4B1AF",
"OX c #AEAFB1",
"+X c #BEBEBD",
"@X c #BAB7B5",
"#X c #D29F8A",
"$X c #C39A87",
"%X c #C9A18C",
"&X c #EDB582",
"*X c #E2B282",
"=X c #F4BA84",
"-X c #FBBD84",
";X c #FCBF88",
":X c #F4BD8A",
">X c #C1BDBC",
",X c #F1B9A7",
"<X c #FFC087",
"1X c #F3C59D",
"2X c #F3D3B8",
"3X c #C7C9C7",
"4X c #CDCBCB",
"5X c #C0C3C4",
"6X c #D0CFD0",
"7X c #D4D4D4",
"8X c #D5D6D8",
"9X c #F5ECEB",
"0X c None",
/* pixels */
"0X0X0X0X0X0X0X0X0X0X0X0X0X0X0X0X0X0X0X0X0X0X0X0X0X0X0X0X0X0X .| } } } i i i 0X0X0X0X0X0X0X0X0X0X",
"0X0X0X0X0X0X0X0X0X0X0X0X0X0X0X0X0X0X0X0X0X0X0X} ..3.9.C.D.D.Y.G.D.L.D.S.C.C.0.0.&.0X0X0X0X0X0X0X",
"0X0X0X0X0X0X0X0X0X0X0X0X0X0X0X0X0X0X0X0X$.<.9.F.H.J.J.J.J.K.J.J.K.K.J.J.L.K.K.R.G.k...0X0X0X0X0X",
"0X0X0X0X0X0X0X0X0X0X0X0X0X0X0X0X0X0X0X*.S.L.J.J.J.J.J.J.J.J.J.J.K.K.Q.J.L.L.K.L.L.T.w.| 0X0X0X0X",
"0X0X0X0X0X0X0X0X0X0X0X0X0X0X0X0X0X0X;.P.F.H.J.J.U.J.J.K.J.J.J.T.L.J.J.J.J.J.J.J.K.K.J.D.<.0X0X0X",
"0X0X0X0X0X0X0X0X0X0X0X0X0X0X0X0X0X0X( ( ( o.O.=.=.4.5.q.S.F.G.H.T.T.J.J.J.J.J.J.K.K.J.K.G.} 0X0X",
"0X0X0X0X0X0X0X0X0X0X0X0X0X0X0X0X0Xq R ^ ) ) ^ ^ ) E R ~ ~ ( Q X.X.1.q.Z.A.D.G.F.D.D.G.G.H.<. .0X",
"0X0X0X0X0X0X0X0X0X0X0X0X0X0X0X0X0XX.@.! ! Q Q R R ^ ^ ) E E E E R R ~ ( ( ~ +.Q d d d d d d h t.",
"0X0X0X0X0X0X0X0X0X0X0X0X0X0X0X0X..Y.L.F.F.D.q.8.1.=.=.X.X.=.@.o.( o.^ ~ E ^ ^ ^ E E R P U P 9 - ",
"0X0X0X0X0X0X0X0X0X0X0X0X0X0X0X0X&.T.R.R.R.J.J.T.J.J.L.G.H.L.L.H.F.F.D.q.5.e.r.-.@.O.#.#.#.#.] - ",
"0X0X0X0X0X0X0X0X0X0X0X0X0X0X0X0Xt | 6.C.F.U.T.R.K.K.J.R.K.K.R.T.K.K.K.R.R.R.R.T.J.H.U.T.T.U.P.t ",
"0X0X0X0X0X0X0X0X0X0X0X0X0X0X0X0X    . $ r s %.<.3.3.8.3.3.3.<.3.3.&.*.$.%.| &.6.6.8.C.C.F.Y.0.h ",
"0X0X0X0X0X0X0X0X0X0X0X0X0X0X0X+                   . O   . .               O   O . . o $ & = = 0X",
"0X0X0X0X0X0X0X0X0X0X0X0X0X0X0XO                           . u ` .     & h.b.u                 0X",
"0X0X0X0X0X0X0X0X0X0X0X0X0X0X0X0X                        & v.`.*X,.  8 h.~.~.,.O       + o     O ",
"0X0X0X0X0X0X0X0X0X0X0X0X0X0X0X0XO           8 +       = v.<X<X<X`.f.|. X!.{ h.a     u Q.{     o ",
"0X0X0X0X0X0X0X0X0X0X0X0X0X0X0X0X.           h.b.+   8 v.&X-X-X-X-X1X9X9X9Xd._.^.& @ W.=Xs.0X0X  ",
"0X0X0X0X0X0X0X0X0X0X0X0X0X0X0X0X.         . b.<Xb.% ,.&X;X:X-X-X-X=X2X@X}.g E.[.>.c.=X=Xa.0X0X0X",
"0X0X0X0X0X0X0X0X0X0X0X0X0X0X0Xo     O .   - (.;X<Xm.a.=X<X<X-X-X-X-X:XQ.:.h.].<X].[.<X_.b.%Xv.0X",
"0X0X0X0X0X0X0X0X0X0X0X0X0X0X0X.   . 0X. . f s.^.`.*XM.].<X[.-X-X-X;X;X-X=X=X[.-X-X<X].a.#X,XN.0X",
"0X0X0X0X0X0X0X0X0X0X0X0X0X0X0X. 0X0X0XO - 0X0X0X0Xp.M.].<X[.<X<X-X-X-X-X-X;X;X;X[.&Xv.:.$XN.0X0X",
"0X0X0X0X0X0X0X0X0X0X0X0X0X0X0X0X0X0X0XO 0X0X0X0X0Xt.d.N.^.`.[.<X-X-X-X-X;X=X].).M.0X0X0X0X0X0X0X",
"0X0X0X0X0X0X0X0X0X0X0X0X0X0X0X0X0X0X0X0X0X0X0X0X{.+X6X5Xj.! ,.^._.^.W.E.m.M.0X0X0X0X0X0X0X0X0X0X",
"0X0X0X0X0X0X0X0X0X0X0X0X0X0X0X0X0X0X0X0X0X0X0Xl.3X7X8X8X@X' I u.}.B.;.0X0X0X0X0X0X0X0X0X0X0X0X0X",
"0X0X0X0X0X0X0X0X0X0X0X0X0X0X0X0X0X0X0X0X0X0X5 B.7X6X7X7X7X!.U p d.}.y.0X0X0X0X0X0X0X0X0X0X0X0X0X",
"0X0X0X0X0X0X0X0X0X0X0X0X0X0X0X0X0X0X0X0X0X0Xm V.6X7X7X7X6Xx.R Q 0 V 4 0X0X0X0X0X0X0X0X0X0X0X0X0X",
"0X0X0X0X0X0X0X0X0X0X0X0X0X0X0X0X0X0X0X0X0XB Z [ >X8X7X7X4Xt.I ) L 4 ; 0X0X0X0X0X0X0X0X0X0X0X0X0X",
"0X0X0X0X0X0X0X0X0X0X0X0X0X0X0X0X0X0X0X0X0Xn G H  X8X7X7XXXg L / / 9 0X0X0X0X0X0X0X0X0X0X0X0X0X0X",
"0X0X0X0X0X0X0X0X0X0X0X0X0X0X0X0X0X0X0X0Xe A G m N.7X7X7XXXe > P ^ y 0X0X0X0X0X0X0X0X0X0X0X0X0X0X",
"0X0X0X0X0X0X0X0X0X0X0X0X0X0X0X0X0X0X0X` P M S A f.7X7X8X+Xg e q I 0X0X0X0X0X0X0X0X0X0X0X0X0X0X0X",
"0X0X0X0X0X0X0X0X0X0X0X0X0X0X0X0X0X0X` U R P I C f.3X8X7X8X}.u.{ y.0X0X0X0X0X0X0X0X0X0X0X0X0X0X0X",
"0X0X0X0X0X0X0X0X0X0X0X0X0X0X0X0X0X1 b 5 P / U V g l.oX7X8X8XOX.XOX;.2.$.0X0X0X0X0X0X0X0X0X0X0X0X",
"0X0X0X0X0X0X0X0X0X0X0X0X0X0X0X0X@ n G A l 5 U R ^ U ' B.+X4X X4X|.9.T.L.I.$.0X0X0X0X0X0X0X0X0X0X",
"0X0X0X0X0X0X0X0X0X0X0X0X0X0X0X0X: A G G F m c 3 7 K U Y :.d.|.5Xg.I.T.R.T.w.0X0X0X0X0X0X0X0X0X0X",
"0X0X0X0X0X0X0X0X0X0X0X0X0X0X0X0X5 A G G G G F D N 5 3 7 p 6 u.z.h w.C.9.8.0X0X0X0X0X0X0X0X0X0X0X",
"0X0X0X0X0X0X0X0X0X0X0X0X0X0X0X0Xe A G F F F F F G F D m M T q 0X0X0X0X0X0X0X0X0X0X0X0X0X0X0X0X0X",
"0X0X0X0X0X0Xq ` e 5 T _ _ [ V b m F F G G F G G F F G G D m n 0X0X0X0X0X0X0X0X0X0X0X0X0X0X0X0X0X",
"0X0X0X0X% 9 4 m S S S S S S G G G F F F F G G G F F F m k D Z C 0X0X0X0X0X0X0X0X0X0X0X0X0X0X0X0X",
"& < 2 w J L 2 , Z G G G G G G G G G F F F G G G G F D , l F F Z M B 0X0X0X0X0X0X0X0X0X0X0X0X0X0X",
"@ 6 L L L J y 1 c S G G G G G G G F G G G G G G F A , , Z F G F F A n B 0X0X0X0X0X0X0X0X0X0X0X0X",
"0Xp L J L L p 2 < c n z v x l n N n n x v n N m N ; * c Z G G G G F F G m c 0X0X0X0X0X0X0X0X0X0X",
"0X2 L L L L 9 + 0X0X0X0X0X0X0X0X0X0X0X0X0X0X0X0X0X0X0X0X3 n F F G G F G G S C 0 0X0X0X< < 0X0X0X",
"0X< L L L q u 0X0X0X0X0X0X0X0X0X0X0X0X0X0X0X0X0X0X0X0X0X0X0XC S G G F Z G S > 2 q 1 6 p p p 8 0X",
"0X1 L L L w % 0X0X0X0X0X0X0X0X0X0X0X0X0X0X0X0X0X0X0X0X0X0X0X0Xb x D G G G N 5 w L L L L L p < 0X",
"0X1 L J L q # 0X0X0X0X0X0X0X0X0X0X0X0X0X0X0X0X0X0X0X0X0X0X0X0X0X0X> n S x 6 L J L L L L q 9 0X0X",
"0X0Xa p q < 0X0X0X0X0X0X0X0X0X0X0X0X0X0X0X0X0X0X0X0X0X0X0X0X0X0X0X0X0X4 6 p L L J J p 2 @ 0X0X0X",
"0X0X0X0X0X0X0X0X0X0X0X0X0X0X0X0X0X0X0X0X0X0X0X0X0X0X0X0X0X0X0X0X0X0X0X0X0X8 9 p y p a 0X0X0X0X0X",
"0X0X0X0X0X0X0X0X0X0X0X0X0X0X0X0X0X0X0X0X0X0X0X0X0X0X0X0X0X0X0X0X0X0X0X0X0X0X0X0X9 u 0X0X0X0X0X0X"
};
