/* XPM */
static char *_0e6412ff1d94a95c570325144f36260apN3OqeL2rJwalaa[] = {
/* columns rows colors chars-per-pixel */
"48 48 186 2 ",
"   c None",
".  c #393B37",
"X  c #383A38",
"o  c #333734",
"O  c #4D351B",
"+  c #52361D",
"@  c #54391F",
"#  c #583A1F",
"$  c #67371C",
"%  c #4D3820",
"&  c #563921",
"*  c #593D22",
"=  c #573D31",
"-  c #663723",
";  c #6A3620",
":  c #673F25",
">  c #6C3B26",
",  c #733D20",
"<  c #773F2B",
"1  c #59442B",
"2  c #4A4439",
"3  c #5A4838",
"4  c #67432E",
"5  c #6D472E",
"6  c #714227",
"7  c #7C4125",
"8  c #784128",
"9  c #77492B",
"0  c #664C30",
"q  c #6E4C34",
"w  c #6C4235",
"e  c #744D36",
"r  c #67563E",
"t  c #6F5B3E",
"y  c #7F5634",
"u  c #75533A",
"i  c #444643",
"p  c #474944",
"a  c #4A4C46",
"s  c #474948",
"d  c #4B4E4A",
"f  c #4A4743",
"g  c #514D41",
"h  c #4E514D",
"j  c #565144",
"k  c #52534D",
"l  c #5B564B",
"z  c #56594E",
"x  c #5D594C",
"c  c #4F5351",
"v  c #535552",
"b  c #555A53",
"n  c #5A5C56",
"m  c #565B5A",
"M  c #5B5E59",
"N  c #5D5451",
"B  c #625548",
"V  c #625B4E",
"C  c #645547",
"Z  c #7A5B40",
"A  c #625C51",
"S  c #755E50",
"D  c #5D6056",
"F  c #5E625B",
"G  c #73624B",
"H  c #79614F",
"J  c #62645D",
"K  c #6B6D5F",
"L  c #686154",
"P  c #706156",
"I  c #746C5E",
"U  c #7E6B5A",
"Y  c #5F6561",
"T  c #5F6861",
"R  c #636662",
"E  c #666A63",
"W  c #6A6C65",
"Q  c #656B69",
"!  c #6B6D69",
"~  c #746B63",
"^  c #6E7165",
"/  c #6E726A",
"(  c #7E7567",
")  c #72756D",
"_  c #7C7668",
"`  c #76796E",
"'  c #797A6E",
"]  c #767363",
"[  c #737671",
"{  c #7A7772",
"}  c #767A72",
"|  c #7A7D75",
" . c #7B7E78",
".. c #814F26",
"X. c #80452A",
"o. c #854D2C",
"O. c #8F4F2D",
"+. c #834526",
"@. c #8B542D",
"#. c #8F582F",
"$. c #875229",
"%. c #93562A",
"&. c #985C2D",
"*. c #854C30",
"=. c #865530",
"-. c #8F5533",
";. c #8D5B34",
":. c #825C3C",
">. c #935C34",
",. c #9C5C36",
"<. c #915F3C",
"1. c #966136",
"2. c #9A6136",
"3. c #956339",
"4. c #9B6339",
"5. c #A46535",
"6. c #AB6634",
"7. c #A76A36",
"8. c #AC6935",
"9. c #A4653A",
"0. c #AB663B",
"q. c #A1683A",
"w. c #AD6A3C",
"e. c #B26E37",
"r. c #B26D3C",
"t. c #AF713F",
"y. c #B4723C",
"u. c #BA753E",
"i. c #BC783F",
"p. c #C17A3F",
"a. c #815749",
"s. c #805B42",
"d. c #8F6C4E",
"f. c #846A4B",
"g. c #9A6A45",
"h. c #936845",
"j. c #927052",
"k. c #AC6C42",
"l. c #A26C45",
"z. c #B16E42",
"x. c #AC7344",
"c. c #AB764E",
"v. c #B57443",
"b. c #BB7542",
"n. c #BB7945",
"m. c #B57449",
"M. c #B9774B",
"N. c #BC7A4B",
"B. c #A17552",
"V. c #A77956",
"C. c #A97B57",
"Z. c #BA7750",
"A. c #B57F5B",
"S. c #B37B51",
"D. c #89796E",
"F. c #897565",
"G. c #9E7C62",
"H. c #817F72",
"J. c #C17B41",
"K. c #C47D4C",
"L. c #C87E4C",
"P. c #C87D45",
"I. c #C17B50",
"U. c #7D8176",
"Y. c #7A8079",
"T. c #7E8179",
"R. c #7E827B",
"E. c #BE8054",
"W. c #BF865C",
"Q. c #81857B",
"!. c #80837C",
"~. c #82867D",
"^. c #82857D",
"/. c #84897E",
"(. c #B48764",
"). c #C9804E",
"_. c #C4804C",
"`. c #C58254",
"'. c #CA8252",
"]. c #C58759",
"[. c #C9895A",
"{. c #848780",
"}. c #858A82",
"|. c #898B85",
" X c #8A8D85",
".X c #8D9286",
/* pixels */
"                                      | | } } } } | | }                                         ",
"                                    J |.~.}./././.R. .[ m                                       ",
"                                    M  .| Y.| R.} W W Q h                                       ",
"                                    R [ | } | R.} W W M                                         ",
"                                      ! } | } | } / / v                                         ",
"                                | ! v F [ { ) | | } ) b ! [                                     ",
"                  ! [       E  . . .J h ) ) / } } Y./ F ~. .| } J      .}                       ",
"                } R.| W J [ ~.} [ / W h } R.R.U.| } / E Y.) / } | F !.|.|.| n                   ",
"            F | | } } [ W R  .Y.| ' ^ l I _ ' } } ) J / } } ) ) F E  X}.{.!.) n                 ",
"            M } ) } } } } T Q } ( G t 0 Z d.U     W E ` | ` ) ! J ~.Q.~.~.}.Y.F                 ",
"              b ) | } ` { | N C s.g.B.h.c.A.                / n | /.Q.R.U.| F                   ",
"              b M / } { { P = : k.K.N.4.M.`.                  ! ) } | ~.) F F                   ",
"            R R.[ M / ~ V 1 e o.b.P.n.5.n.'.                      n E J F | | J                 ",
"          Y [ Y.| E k 3 * :.<.@.v.P.n.5.J.'.                        d n R.~.~.) J               ",
"          Q | } | H.B q ;.9.9.>.M.`.N.5.n.[.                          ! | ~.Q.| E               ",
"        M b E ) H.I e l.r.6.0.>.Z.`.K.5.n.].                            )  .} / n v             ",
"        | } K K ] G ;.m.u.r.0.%.m.K.N.5.n.].                            ) R E E W R             ",
"        ) ` ` ' L f.x.i.i.t.9.#.m._.N.5.n.[.                              R ) } ` !             ",
"        } ) / ) r 3.v.J.b.v.w.@.M.).N.5.n.W.                              ) / ) ) } R.          ",
"      F / / / E 1 3.v.i.y.w.w.;.M.).N.q.x.(.                              / Q / / ) J           ",
"      Q / ^ / x O 4.w.e.e.w.k.>.M.).N.4.C.G.                                b W E J E           ",
"  J ` R.} U./.L @ 4.w.u.y.z.k.#.m.L.N.3.u H                                 n R.R.~.}.| } v     ",
"  } } } / ^ ) x * 4.r.i.v.z.w.@.m.P.N.3.H D.                                n | | R.R.} } k     ",
"  | } | ~.U.` x * 4.y.J.y.w.9.@.m.K.N.g.U A                                 J | ` | | | } k     ",
"  / } | | | { x # 4.b.J.u.w.9.@.M.L.K.g.F.~                                 E ~.{ | | | ) k     ",
"  J ! W W / [ l * 2.b.J.y.7.9.@.M.'.I.;.U P                                 J R.) / ) W R d     ",
"  v n b b n n g * 2.b.J.y.5.9.>.M.'.I.;.5 Z                                 d F n n n v k i     ",
"      d / | ^ j @ 1.b.J.6.5.k.>.M.).N.&.5.E.                                h / { ! d           ",
"      v |..XQ.V + 2.b.J.8.9.z.1.v.K.N.2.b.K.                                R }.| ) v           ",
"      c | /.U.V + 2.b.J.6.0.v.>.y.P.N.5.v.N.                                Q !.} [ v           ",
"      h / | U.V + 2.u.p.e.w.m.>.v.L.N.5.b.`.                                J | / / v           ",
"      h / | ` l & 2.b.J.y.z.v.>.n.).N.5.b.`.                                M [ J J k           ",
"      h ! E J j & 2.b.i.8.w.k.>.v.L.N.5.v.K.                                v / E J h           ",
"  p a d v z a 2 + 2.b.p.e.0.k.>.r.P.N.5.v.N.                                s b b b d a h       ",
"  Q R.}.}./.Q.A @ 2.b.J.y.5.0.>.w.P.N.5.y.M.                                J R.R. .| | [ v     ",
"  ) | } Y.U.| l & 2.b.b.6.%.,.-.k.K.N.5.x.c.                                J ) E ) R.~.| k     ",
"  ` } R.R.` ) l + 2.r.u.7.$.>.@.k.N.N.q.B.                                  R | W ` /.~.} k     ",
"  { | !.R.` ^ l + 1.6.r.9.o.*.$.0.K.S.h.                                    R }.| | | } } v     ",
"  ) |  .R.` / l & >.&.9.-.9 6 ..6.M.V.                                      F ~.U.| ~.| / v     ",
"  J ) ) W J J g & >.%.,.*.> > 9 l.A.                                        h W / ! ) W M i     ",
"  a k h b J D g + ;.@.O.7 ; - q j.                                          i b F F h p . X     ",
"      h [ U.U.A O >.o.+., - w                                               M R.R.| v           ",
"      h / ` | A + ;.X.7 $ 4                                                 R R.) ) v           ",
"      v } ` ` n O =.8 < e                                                   R  .} } v           ",
"      v | ) ) x O y 5 a.                                                    M } } | n           ",
"      k / Q Q j % Z S                                                       v [ | !.M           ",
"      p m m v f                                                             s M F R h           ",
"        o                                                                                       "
};
