/* XPM */
static char *result[] = {
/* columns rows colors chars-per-pixel */
"48 48 102 2 ",
"   c #352718",
".  c #3D2F1D",
"X  c #4B3E2E",
"o  c #583F26",
"O  c #5D452C",
"+  c #5E482F",
"@  c #5F4B31",
"#  c #5F4C3A",
"$  c #62462A",
"%  c #644A2C",
"&  c #6B4E2E",
"*  c #6E512F",
"=  c #71522F",
"-  c #644D32",
";  c #6A4F30",
":  c #655136",
">  c #6B5133",
",  c #6B563B",
"<  c #6F583A",
"1  c #735432",
"2  c #785732",
"3  c #775834",
"4  c #7B5A35",
"5  c #735739",
"6  c #735B3C",
"7  c #7B5D3A",
"8  c #665744",
"9  c #6E5A42",
"0  c #6C5F4C",
"q  c #725D43",
"w  c #6F604A",
"e  c #766145",
"r  c #7B6446",
"t  c #75634A",
"y  c #7C6649",
"u  c #7E694B",
"i  c #776955",
"p  c #7C6C53",
"a  c #756A5B",
"s  c #7B6F5E",
"d  c #766E68",
"f  c #797061",
"g  c #7F756A",
"h  c #797470",
"j  c #815E36",
"k  c #815F39",
"l  c #856137",
"z  c #84623B",
"x  c #8A663D",
"c  c #8D683F",
"v  c #856742",
"b  c #886640",
"n  c #8D6A42",
"m  c #816749",
"M  c #846C4C",
"N  c #896F4D",
"B  c #936D42",
"V  c #87704F",
"C  c #8C714E",
"Z  c #937047",
"A  c #92744E",
"S  c #846E51",
"D  c #877151",
"F  c #8C7352",
"G  c #857258",
"H  c #897358",
"J  c #927653",
"K  c #987751",
"L  c #957954",
"P  c #997C55",
"I  c #907758",
"U  c #957B59",
"Y  c #9B7E5A",
"T  c #827562",
"R  c #837867",
"E  c #8F7D65",
"W  c #8B7D6A",
"Q  c #877E75",
"!  c #887D70",
"~  c #847E78",
"^  c #9D815C",
"/  c #A4855D",
"(  c #918168",
")  c #8B8275",
"_  c #8D867B",
"`  c #938673",
"'  c #A58760",
"]  c #A78961",
"[  c #8D8884",
"{  c #968E83",
"}  c #998F81",
"|  c #958F89",
" . c #9B9180",
".. c #97908A",
"X. c #9A938E",
"o. c #9E9992",
"O. c #A0988A",
"+. c #A49F96",
"@. c #A59F9B",
"#. c #A7A29C",
"$. c #AAA39C",
"%. c None",
/* pixels */
"%.%.%.%.%.%.%.%.%.%.%.%.%.%.%.%.%.%.%.%.%.%.%.%.%.%.%.%.%.%.%.%.%.%.%.%.%.%.%.%.%.%.%.%.%.%.%.%.",
"%.%.%.%.%.%.%.%.%.%.%.%.%.%.%.%.%.%.%.%.%.%.%.%.%.%.%.%.%.%.%.%.%.%.%.%.%.%.%.%.%.%.%.%.%.%.%.%.",
"%.%.%.%.%.%.%.%.%.%.%.%.%.%.%.%.%.%.%.O % = 1 1 %.%.%.%.%.%.%.%.%.%.%.%.%.%.%.%.%.%.%.%.%.%.%.%.",
"%.%.%.%.%.%.%.%.%.%.%.%.%.%.%.%.%.%.%.$ % $ ; 1 1 1 1 %.%.%.%.%.%.%.%.%.%.%.%.%.%.%.%.%.%.%.%.%.",
"%.%.%.%.%.%.%.%.%.%.%.%.%.%.%.%.%.%.% & % - @ O 9 q 1 1 1 1 1 %.%.%.%.%.%.%.%.%.%.%.%.%.%.%.%.%.",
"%.%.%.%.%.%.%.%.%.%.%.%.%.%.%.%.%.& & ; > y y y g d # % & 1 1 1 1 5 %.%.%.%.%.%.%.%.%.%.%.%.%.%.",
"%.%.%.%.%.%.%.%.%.%.%.%.%.%.%.%.& & & > m N S E | s 9 , : % $ & 1 3 1 1 3 5 %.%.%.%.%.%.%.%.%.%.",
"%.%.%.%.%.%.%.%.%.%.%.%.%.%.%.& & * ; y N V S ) g y e M N u q - $ $ % 1 1 2 2 3 7 %.%.%.%.%.%.%.",
"%.%.%.%.%.%.%.%.%.%.%.%.%.%.& & * ; r v C V M p u q m F S m M y r q : + - > * 1 3 2 3 4 %.%.%.%.",
"%.%.%.%.%.%.%.%.%.%.%.%.%.& & = & e M M C V M V M m F F F S y y m m r u s Q 8 O % > 1 2 2 = > %.",
"%.%.%.%.%.%.%.%.%.%.%.%.* * * & 6 V N N C N C N y S F F V M m N N m M S  ...p q , - % 1 = & & %.",
"%.%.%.%.%.%.%.%.%.%.%.& * * * < V V C n C C C m M F J F N u N N M y F G | ) p y M M 7 1 % & %.%.",
"%.%.%.%.%.%.%.%.%.%.%.* = = : M M C C Z C N m u F L F V m M V C m M N F R p m m F N k = & * %.%.",
"%.%.%.%.%.%.%.%.%.%.& > 1 ; M N C C Z C N N y C L L C N m F C C r N J F S F M S N N j 1 = 1 %.%.",
"%.%.%.%.%.%.%.%.%.* & 2 & m V C C A C C V N N J L J V N N V A M m J J I F D M F A b 7 = 2 3 %.%.",
"%.%.%.%.%.%.%.%.& * 2 & r V A A K L A C V M V J L J V N V V F r F L L I F F N N C v j * 4 %.%.%.",
"%.%.%.%.%.%.%.* & 3 * q V A A J K F A F M V A A A C V V A C V u J P L J F V V A C z 2 1 7 %.%.%.",
"%.%.%.%.%.%.* * 3 * 5 C C A J K A A F V V V ^ A ^ F C C A V u C A ^ U I C V J A C z 2 2 4 %.%.%.",
"%.%.%.%.%.> * 3 = , V C A K P L F J J V F ^ A A A A ^ A ^ V M A A L ^ F V V J A N l 1 2 4 %.%.%.",
"%.%.%.%.* * 3 3 ; M J C A L L J F J V F A C ^ ^ ^ C A ^ C V Z ^ ^ ^ F C D C A C v l = 7 3 %.%.%.",
"%.%.%.* & 2 2 % r J F F L J J F ( V F ^ V F ^ A L L ^ L C V ^ ^ ^ A ^ C A K L A v j = j 4 %.%.%.",
"%.%.* * = 2 & q V F C J L J F F V u F J F p V ^ L L J F V F K ^ ^ L A ^ L L L A x j 4 j %.%.%.%.",
"%.> & * 2 * 6 V V V F J J F F F u F ( ` ( a t u A L A J M A ^ ^ ^ L A ^ ^ A L C z 7 l j %.%.%.%.",
"%.%.* 3 * 6 V C V V F F F S F M p ` _ _ ~ [ ) p C L J V V ^ A ^ A A ^ A ^ K J N z 2 l j %.%.%.%.",
"%.%.- 1 o - F C N J F S N F S t g | f w w a h { ( C F u L U P L K Y P P P K J x x 2 l j %.%.%.%.",
"%.%.%.- O . q V J J N F S F y y ` X.p u p p a X.( C V D L U U L Y P P P P K J x l 4 l 7 %.%.%.%.",
"%.%.%.%.O   X q m J J C N M y t ) +.( p p V ( o.( D u F L P L U Y Y Y P P L A x l 7 l %.%.%.%.%.",
"%.%.%.%.%.%.%.%.%.q m F J N M q p _ $.+._  .o._ G V u I L U J Y / Y Y P P K Z x j 7 z %.%.%.%.%.",
"%.%.%.%.%.%.%.%.%.%.9 y M F N m e t { #.#.#.) p u u D I L U I Y Y Y Y Y P L n c 4 l x %.%.%.%.%.",
"%.%.%.%.%.%.%.%.%.%.%.%.q e m F M r t t i p e t p y I I U F U ^ / ^ Y U L J n x 4 z z %.%.%.%.%.",
"%.%.%.%.%.%.%.%.%.%.%.%.%.%.9 r V C u e e w t u u V J I U F U ^ Y Y U L L J c x 4 z z %.%.%.%.%.",
"%.%.%.%.%.%.%.%.%.%.%.%.%.%.%.%.e u C C C V V H y F I ^ I L U Y Y ^ U L L A c x 4 x x %.%.%.%.%.",
"%.%.%.%.%.%.%.%.%.%.%.%.%.%.%.%.%.%.t M J Y Y A V J U ^ F U Y Y Y / P L L Z c x 4 c %.%.%.%.%.%.",
"%.%.%.%.%.%.%.%.%.%.%.%.%.%.%.%.%.%.%.q r F P Y ^ P ^ L L U U Y Y ( U U K B c x j x %.%.%.%.%.%.",
"%.%.%.%.%.%.%.%.%.%.%.%.%.%.%.%.%.%.%.%.%.t m V ^ / / P Y U Y ^ ^ Y Y U K B n z z x %.%.%.%.%.%.",
"%.%.%.%.%.%.%.%.%.%.%.%.%.%.%.%.%.%.%.%.%.%.%.e m A / / / Y Y Y ^ U U L A B n k z c %.%.%.%.%.%.",
"%.%.%.%.%.%.%.%.%.%.%.%.%.%.%.%.%.%.%.%.%.%.%.%.%.r V P / / / ^ ^ U U U Z c B 7 x c %.%.%.%.%.%.",
"%.%.%.%.%.%.%.%.%.%.%.%.%.%.%.%.%.%.%.%.%.%.%.%.%.%.t r V ^ / / ' U U J B c b 7 c %.%.%.%.%.%.%.",
"%.%.%.%.%.%.%.%.%.%.%.%.%.%.%.%.%.%.%.%.%.%.%.%.%.%.%.%.e u V Y ( / / Y B c z k c %.%.%.%.%.%.%.",
"%.%.%.%.%.%.%.%.%.%.%.%.%.%.%.%.%.%.%.%.%.%.%.%.%.%.%.%.%.%.e r N K ^ K B n z z c %.%.%.%.%.%.%.",
"%.%.%.%.%.%.%.%.%.%.%.%.%.%.%.%.%.%.%.%.%.%.%.%.%.%.%.%.%.%.%.%.9 r S n c n 7 x B %.%.%.%.%.%.%.",
"%.%.%.%.%.%.%.%.%.%.%.%.%.%.%.%.%.%.%.%.%.%.%.%.%.%.%.%.%.%.%.%.%.%.8 v B n 7 c n %.%.%.%.%.%.%.",
"%.%.%.%.%.%.%.%.%.%.%.%.%.%.%.%.%.%.%.%.%.%.%.%.%.%.%.%.%.%.%.%.%.%.%.v b b k n n %.%.%.%.%.%.%.",
"%.%.%.%.%.%.%.%.%.%.%.%.%.%.%.%.%.%.%.%.%.%.%.%.%.%.%.%.%.%.%.%.%.%.%.5 k 7 k n %.%.%.%.%.%.%.%.",
"%.%.%.%.%.%.%.%.%.%.%.%.%.%.%.%.%.%.%.%.%.%.%.%.%.%.%.%.%.%.%.%.%.%.%.%.5 > 7 v %.%.%.%.%.%.%.%.",
"%.%.%.%.%.%.%.%.%.%.%.%.%.%.%.%.%.%.%.%.%.%.%.%.%.%.%.%.%.%.%.%.%.%.%.%.%.- < 6 %.%.%.%.%.%.%.%.",
"%.%.%.%.%.%.%.%.%.%.%.%.%.%.%.%.%.%.%.%.%.%.%.%.%.%.%.%.%.%.%.%.%.%.%.%.%.%.%.%.%.%.%.%.%.%.%.%.",
"%.%.%.%.%.%.%.%.%.%.%.%.%.%.%.%.%.%.%.%.%.%.%.%.%.%.%.%.%.%.%.%.%.%.%.%.%.%.%.%.%.%.%.%.%.%.%.%."
};
