/* XPM */
static char *result[] = {
/* columns rows colors chars-per-pixel */
"48 48 186 2 ",
"   c #040404",
".  c #080707",
"X  c #090807",
"o  c #0C0B09",
"O  c #140C05",
"+  c #190E06",
"@  c #130F0C",
"#  c #1D1107",
"$  c #14130E",
"%  c #1C120B",
"&  c #161512",
"*  c #191711",
"=  c #1C1B14",
"-  c #1D1B18",
";  c #201207",
":  c #231C14",
">  c #2B1E15",
",  c #211F1A",
"<  c #232117",
"1  c #2E2016",
"2  c #25231A",
"3  c #2A251B",
"4  c #2C2A1D",
"5  c #33251B",
"6  c #342B1E",
"7  c #3C2B1E",
"8  c #322217",
"9  c #292722",
"0  c #2E2A24",
"q  c #2B2825",
"w  c #322D22",
"e  c #3C2E21",
"r  c #322F29",
"t  c #363223",
"y  c #393626",
"u  c #3C3927",
"i  c #35322C",
"p  c #39352E",
"a  c #3D3A29",
"s  c #3B3631",
"d  c #3E3932",
"f  c #462F1F",
"g  c #4D331C",
"h  c #50321E",
"j  c #402E21",
"k  c #443323",
"l  c #4B3423",
"z  c #423E2B",
"x  c #463A28",
"c  c #523D2C",
"v  c #583A26",
"b  c #413C35",
"n  c #603E27",
"m  c #46412D",
"M  c #49432F",
"N  c #55412E",
"B  c #494530",
"V  c #46413B",
"C  c #4A453D",
"Z  c #4D4933",
"A  c #584330",
"S  c #524C34",
"D  c #524A3F",
"F  c #575036",
"G  c #5C553A",
"H  c #5F583C",
"J  c #585238",
"K  c #65442C",
"L  c #6B432B",
"P  c #764A23",
"I  c #7B4E24",
"U  c #73482F",
"Y  c #7F5025",
"T  c #664533",
"R  c #7D4E33",
"E  c #724D38",
"W  c #635C3E",
"Q  c #79523B",
"!  c #4F4941",
"~  c #544E46",
"^  c #544F48",
"/  c #584F43",
"(  c #565047",
")  c #5B5245",
"_  c #5B554C",
"`  c #5E5952",
"'  c #655E42",
"]  c #635C52",
"[  c #6C6545",
"{  c #6E6748",
"}  c #6F6948",
"|  c #716847",
" . c #736C49",
".. c #656058",
"X. c #6C655B",
"o. c #6D6457",
"O. c #706657",
"+. c #746B5E",
"@. c #6F6960",
"#. c #746C62",
"$. c #7B6F60",
"%. c #7A7164",
"&. c #7D766C",
"*. c #7E786F",
"=. c #8A5637",
"-. c #865B38",
";. c #9A5E32",
":. c #925C3B",
">. c #975D34",
",. c #9B6336",
"<. c #9D6539",
"1. c #9D6839",
"2. c #A26539",
"3. c #8C5E42",
"4. c #875B41",
"5. c #976648",
"6. c #996945",
"7. c #A56D44",
"8. c #AE6D45",
"9. c #A36F49",
"0. c #B06F47",
"q. c #A47246",
"w. c #AD7246",
"e. c #A5724A",
"r. c #AE7449",
"t. c #AD7A4B",
"y. c #B17047",
"u. c #B17249",
"i. c #B17D4E",
"p. c #B9774E",
"a. c #A47651",
"s. c #AD7953",
"d. c #B37E52",
"f. c #BC7B52",
"g. c #847A6C",
"h. c #8A7E6D",
"j. c #847967",
"k. c #897F70",
"l. c #827B71",
"z. c #C07E55",
"x. c #AF8258",
"c. c #B48253",
"v. c #BB8356",
"b. c #B48559",
"n. c #BB8A5D",
"m. c #8F8372",
"M. c #928674",
"N. c #908678",
"B. c #938A7C",
"V. c #9A8E7C",
"C. c #968976",
"Z. c #9E917E",
"A. c #C38158",
"S. c #988F84",
"D. c #9D9383",
"F. c #9E9589",
"G. c #A29685",
"H. c #A69985",
"J. c #A19789",
"K. c #A59A8B",
"L. c #AC9F8C",
"P. c #AEA18E",
"I. c #B0A38F",
"U. c #AFA493",
"Y. c #B2A593",
"T. c #B7AA97",
"R. c #B0A698",
"E. c #B4AA9C",
"W. c #BAAE9B",
"Q. c #BEB19E",
"!. c #BBB1A2",
"~. c #C0B39F",
"^. c #C3B6A3",
"/. c #C6BAA6",
"(. c #C8BBA7",
"). c #C5BAA8",
"_. c #CABDAA",
"`. c #CFC2AF",
"'. c #CDC2B1",
"]. c #D2C5B2",
"[. c #D6C9B5",
"{. c #DBCEBB",
"}. c #D8CBB8",
"|. c #DDD0BD",
" X c #E1D4C1",
".X c None",
/* pixels */
".X.X.X.X.X.X.X.X.X.X.X.X.X.X.Xj c l j e 7 5 1 : @   & @ @ o .X.X.X.X.X.X.X.X.X.X.X.X.X.X.X.X.X.X",
".X.X.X.X.X.X.X.X.X.X.X.X.X.X: 6.v.v.d.f.i.c.s.e.e v 5.5.5.3.4.4.[ Q Q T 8 : c A N N c x k e 6 . ",
".X.X.X.X.X.X.X.X.X.X.X.X.X.X: 9.i.p.s.f.i.p.i.p.n 7.p.p.f.z.f.z.f.f.A.:.T e.b.n.b.n.b.b.c.x.-.# ",
".X.X.X.X.X.X.X.X.X.X.X.X.X.X> 9.w.w.w.w.w.w.y.i.>.u.0.0.8.0.0.0.0.0.u.<.q.c.t.c.i.c.i.c.t.t.=.; ",
".X.X.X.X.X.X.X.X.X.X.X.X.X.X: 9.w.u.y.w.w.r.w.r.;.u.0.8.8.0.8.0.8.8.0.2.q.c.t.t.r.t.t.t.t.t.I ; ",
".X.X.X.X.X.X.X.X.X.X.X.X.X.X: 9.w.r.w.r.y.r.w.w.;.u.0.0.8.0.8.0.8.8.0.<.q.c.t.t.t.i.t.i.t.t.I # ",
".X.X.X.X.X.X.X.X.X.X.X.X.X.X: 8.w.u.r.r.w.r.w.w.;.u.8.8.8.0.8.0.w.8.y.1.t.c.t.c.t.t.t.i.t.t.I # ",
".X.X.X.X.X.X.X.X.X.X.X.X.X.X: e.w.u.w.r.w.r.w.w.>.p.8.8.8.0.8.0.y.8.y.,.q.c.t.t.t.t.t.t.t.t.I # ",
".X.X.X.X.X.X.X.X.X.X.X.X.X.X: e.w.w.y.t.y.r.w.w.;.u.0.8.8.0.8.0.y.8.u.<.r.c.t.t.t.t.q.t.t.w.I # ",
".X.X.X.X.X.X.X.X.X.X.X.X.X.X: e.w.w.y.w.w.r.w.w.>.u.8.0.8.0.8.0.8.8.0.<.t.t.t.t.t.c.t.c.t.t.I # ",
".X.X.X.X.X.X.X.X.X.X.X.X.X.X> e.w.w.w.w.w.r.w.w.;.u.0.0.8.0.8.8.y.8.y.,.t.t.t.t.t.t.q.c.t.t.I # ",
".X.X.X.X.X.X.X.X.X.X.X.X.X.X> r.w.w.r.w.w.r.u.r.;.u.0.0.8.0.8.0.y.8.y.,.t.c.t.t.t.t.t.t.t.t.I # ",
".X.X.X.X.X.X.X.X.X.X.X.X.X.X> a.w.w.w.w.r.r.r.2.>.y.8.8.8.0.8.0.0.8.y.,.1.c.t.c.t.t.q.c.t.t.I O ",
".X.X.X.X.X.X.X.X.X.X.X.X.X.X> r.w.w.w.w.r.u.w.w.>.y.8.0.8.0.8.0.0.w.y.,.c.c.t.c.t.c.1.t.t.t.I O ",
".X.X.X.X.X.X.X.X.X.X.X.X.X.X> e.w.w.i.y.r.u.w.8.>.p.8.8.8.0.8.8.w.y.1.;.c.c.c.1.w.c.c.c.t.t.I # ",
".X.X.X.X.X.X.X.X.X.X.X.X.X.X> e.w.w.w.w.u.u.w.0.;.u.8.8.8.0.8.0.y.w.w.;.c.c.q.c.t.t.t.t.t.t.I O ",
".X.X.X.X.X.X.X.X.X.X.X.X.X.X> s.w.w.w.w.i.p.2.p.2.y.0.0.2.y.0.0.8.8.u.,.c.t.i.t.t.t.t.t.t.w.I O ",
".X.X.X.X.X.X.X.X.X.X.X.X.X.X> r.w.w.w.w.2.p.i.2.;.p.0.y.u.y.0.0.8.8.8.,.c.t.t.t.t.c.t.t.t.t.P O ",
".X.X.X.X.X.X.X.X.X.X.X.X.X.X> w.w.w.p.2.w.i.i.2.;.y.y.u.0.y.0.0.8.8.w.,.c.t.t.t.t.i.t.t.t.t.I O ",
".X.X.X.X.X.X.X.X.X.X.X.X.X.X> e.p.w.w.c.w.w.p.i.2.y.2.u.0.u.2.0.8.8.w.,.c.t.t.t.t.i.t.t.t.t.P O ",
".X.X.X.X.X.X.X.X.X.X.X.X.X.X> w.w.2.w.w.w.i.p.2.;.0.8.8.0.0.0.0.8.8.8.,.c.t.t.t.t.t.t.t.t.t.I O ",
".X.X.X.X.X.X.X.X.X.X.X.X.X.X1 e.w.c.w.c.2.p.i.2.2.0.8.8.0.0.8.0.8.8.8.,.c.c.t.t.t.c.t.i.t.t.P O ",
".X.X.X.X.X.X.X.X.X.X.X.X.X.X1 e.p.w.w.2.i.w.w.w.2.0.8.8.0.0.8.0.8.8.7.1.c.t.t.t.t.t.t.t.t.t.P o ",
".X.X.X.X.X.X.X.X.X.X.X.X.X.X1 7.2.c.w.p.p.w.w.w.2.0.8.8.0.0.8.0.8.y.8.1.c.t.t.t.t.t.t.t.t.e.P O ",
".X.X.X.X.X.X.X.X.X.X.X.X.X.X> e.r.w.r.r.w.w.r.r.2.0.0.8.0.y.0.0.8.w.2.1.c.t.t.t.t.t.t.t.t.r.P O ",
".X.X.X.X.X.X.X.X.X.X.X.X.X.X: 1.2.w.7.w.r.u.r.r.2.0.0.0.0.y.0.0.8.y.y.2.c.i.t.t.t.c.q.c.t.t.P + ",
".X.X.X.X.X.X.X.X.X.X.X.X.X  @ : 1 1 1 5 7 g g l h n n L U R =.=.-.:.,.-.t.q.q.t.q.t.q.t.q.6.g .X",
".X.X.X.X.X.X.X.X.X.X.X.Xo = Z [ [ H G J F Z Z M m z x u t t w 5 6 w 6 6 t 7 t k f k k f 6 : X .X",
".X.X.X.X.X.X.X.X.X.X.X.X3 t 3 a z M B S J G H W W [ [ [ | |  . . . . . .} } } } [ [ [ } ' $ .X.X",
".X.X.X.X.X.X.X.X.X.X.X= m < = < < = = = = = = = = = : < , 2 3 6 4 t u a z m M S F J G W m . .X.X",
".X.X.X.X.X.X.X.X.X.Xo z 6 * y z z a a a y u y y t t t w w 4 4 4 2 2 2 < < < = = = = = * . .X.X.X",
".X.X.X.X.X.X.X.X.XX t u * w z m z z z m a a a a a y y y y t y y y y y y y t y y y t t =   .X.X.X",
".X.X.X.X.X.X.X.X.X3 m * 2 a M m z m z z z a a a a a y y y y y y y y y y t y t w 0 t 4 o .X.X.X.X",
".X.X.X.X.X.X.X.X* M < < u M M m m z z z z a a a a y y y y y t 4 2 2 4 t t w 2 s 9 : &   .X.X.X.X",
".X.X.X.X.X.X.Xo a 4 * y m M m m m z z z z a u y a a a y y t = i #.] p - & * ) M.m.s   .X.X.X.X.X",
".X.X.X.X.X.XX 6 u $ w m M M M m m m z z z t - & $ < 4 t 4 = ) J.P.P.P.B.+.b r y ) w .X.X.X.X.X.X",
".X.X.X.X.X.X< m $ 4 z B M M m M m m m m 6 p J.J.&.( i = o q ] %.m.M.Z.G.P.P.D.%.q   .X.X.X.X.X.X",
".X.X.X.X.X= m = < a B B M M M m m m m 0 d E._.^.(._./.Y.B.X.V r w p / X.j.M.V.V.q .X.X.X.X.X.X.X",
".X.X.X.Xo a 3 * y m 4 = 3 w a m m m 6 b U.(.W.W.W.W.Q.~./.(.(.W.J.&._ d w s ~ b   .X.X.X.X.X.X.X",
".X.X.X. t t $ t m 2 r *...V q , < = = #.V.D.H.L.Y.Y.T.T.E.W.Q.Q.^.(.(./.R.B.~   .X.X.X.X.X.X.X.X",
".X.X.X< a $ 4 a < 9 W. X|.|.'.E.S.#.^ b r s C ] %.m.Z.G.L.U.Y.T.T.W.W.W.^.^._   .X.X.X.X.X.X.X.X",
".X.X* m = < a 2 , E.|.`.'.].].[.{.{.{.[.).K.l.] V p p V _ O.m.V.H.L.Y.Y.T.N.& .X.X.X.X.X.X.X.X.X",
".X$ u 2 * y 3 - K. X`.`.`.`.'.`.].`.].].].}.{.{.}._.R.B.+.~ d d b ( o.j.M.s .X.X.X.X.X.X.X.X.X.X",
"  $ 3 o 2 4 & #.!.E.Q.Q.~.^./.`._.`._._.'.].'.].].].[.}.|.}.'.Q.F.&.` C 9 . .X.X.X.X.X.X.X.X.X.X",
".X.X.X.Xo   o d C ( ] #.g.N.Z.K.U.Y.W.^.^./.(._._.'.'.'.`.`.'.].}.{.{.(.r .X.X.X.X.X.X.X.X.X.X.X",
".X.X.X.X.X.X.X.X.X.X.X.X.X- 2 i b ~ _ o.%.k.B.J.P.U.E.Q./.(.`.`.`.`.].#.. .X.X.X.X.X.X.X.X.X.X.X",
".X.X.X.X.X.X.X.X.X.X.X.X.X.X.X.X.X.X.X.X.X.X2 0 p b C ( ] X.%.g.B.G.B.2 .X.X.X.X.X.X.X.X.X.X.X.X",
".X.X.X.X.X.X.X.X.X.X.X.X.X.X.X.X.X.X.X.X.X.X.X.X.X.X.X.X.X.XX @ & - & .X.X.X.X.X.X.X.X.X.X.X.X.X"
};
