/* XPM */
static char *c823a5f4dd7142bade7e88d377c9be5cyrG7GpJDrcy24DGQ[] = {
/* columns rows colors chars-per-pixel */
"48 48 224 2 ",
"   c None",
".  c #53341E",
"X  c #69321B",
"o  c #723A1C",
"O  c #793E1F",
"+  c #4C3927",
"@  c #5F3424",
"#  c #5C3B2B",
"$  c #563A27",
"%  c #543C35",
"&  c #592E20",
"*  c #6B392C",
"=  c #673827",
"-  c #743C24",
";  c #7B3B26",
":  c #743D2D",
">  c #7C3E2A",
",  c #773726",
"<  c #673D31",
"1  c #743F30",
"2  c #3D403D",
"3  c #56432E",
"4  c #5D442C",
"5  c #45453D",
"6  c #5C463A",
"7  c #55483A",
"8  c #5D513F",
"9  c #64462E",
"0  c #634A2B",
"q  c #6D432C",
"w  c #7C432B",
"e  c #76472A",
"r  c #654B33",
"t  c #6D4B34",
"y  c #684836",
"u  c #7C4A33",
"i  c #7C4B3A",
"p  c #764735",
"a  c #6D543C",
"s  c #75543A",
"d  c #7B573B",
"f  c #3E464B",
"g  c #464A45",
"h  c #4B4E4A",
"j  c #484944",
"k  c #5B4D42",
"l  c #504C4D",
"z  c #4E514D",
"x  c #5D5243",
"c  c #53554E",
"v  c #5C554B",
"b  c #575649",
"n  c #545553",
"m  c #565A54",
"M  c #5A5C54",
"N  c #5B5D5A",
"B  c #595651",
"V  c #4B5256",
"C  c #625545",
"Z  c #6B5A44",
"A  c #63594E",
"S  c #67584A",
"D  c #735B49",
"F  c #615A52",
"G  c #5D625B",
"H  c #67614E",
"J  c #646254",
"K  c #6C6254",
"L  c #61645D",
"P  c #6A695D",
"I  c #716555",
"U  c #766A5B",
"Y  c #70715D",
"T  c #5E6461",
"R  c #646661",
"E  c #656A62",
"W  c #6A6C65",
"Q  c #6B6D69",
"!  c #646C68",
"~  c #736C65",
"^  c #7B6B64",
"/  c #6D7266",
"(  c #6D726B",
")  c #6E796D",
"_  c #66706A",
"`  c #747163",
"'  c #7B7365",
"]  c #73756C",
"[  c #79756C",
"{  c #74796D",
"}  c #7B796D",
"|  c #737671",
" . c #757A72",
".. c #7A7C74",
"X. c #7B7D79",
"o. c #777977",
"O. c #706F73",
"+. c #823E29",
"@. c #83431F",
"#. c #854425",
"$. c #84432B",
"%. c #8E4B2B",
"&. c #884929",
"*. c #914B2E",
"=. c #935325",
"-. c #94512C",
";. c #9A532B",
":. c #9D5B2A",
">. c #995526",
",. c #8D4B33",
"<. c #934D31",
"1. c #954F36",
"2. c #815434",
"3. c #8D5535",
"4. c #8A5B35",
"5. c #85543D",
"6. c #845B3B",
"7. c #895B3A",
"8. c #8B5639",
"9. c #955633",
"0. c #9C5333",
"q. c #935C3B",
"w. c #995A39",
"e. c #83542C",
"r. c #A25735",
"t. c #A25934",
"y. c #A45738",
"u. c #A35C3A",
"i. c #AA5E3A",
"p. c #AA5F32",
"a. c #A45B2F",
"s. c #84613D",
"d. c #88603D",
"f. c #94623C",
"g. c #9C623C",
"h. c #AE692E",
"j. c #A6642B",
"k. c #AB6235",
"l. c #AE6E32",
"z. c #A3653C",
"x. c #AD633A",
"c. c #AD6C3B",
"v. c #B26D36",
"b. c #B3663C",
"n. c #B56A3B",
"m. c #B96B3D",
"M. c #B66B36",
"N. c #AF7033",
"B. c #B97236",
"V. c #B5743B",
"C. c #BB7439",
"Z. c #B7783A",
"A. c #B9793C",
"S. c #B57536",
"D. c #C1773D",
"F. c #C47A3E",
"G. c #885B46",
"H. c #9F6542",
"J. c #846955",
"K. c #966C52",
"L. c #A56442",
"P. c #AE6C43",
"I. c #A96845",
"U. c #B36B42",
"Y. c #BB6D44",
"T. c #B56B47",
"R. c #B47144",
"E. c #BB7343",
"W. c #BD7B42",
"Q. c #B5754B",
"!. c #BE7B4A",
"~. c #BB764A",
"^. c #B17E53",
"/. c #A77450",
"(. c #857C72",
"). c #C16F43",
"_. c #C37444",
"`. c #C47C43",
"'. c #CB7D45",
"]. c #C47649",
"[. c #C57C4A",
"{. c #CB7E4A",
"}. c #C97547",
"|. c #D17E45",
" X c #D27E49",
".X c #C67A50",
"XX c #7D8175",
"oX c #7D827A",
"OX c #77827A",
"+X c #BE804F",
"@X c #808376",
"#X c #82857B",
"$X c #85897C",
"%X c #89817B",
"&X c #9E8876",
"*X c #BE926F",
"=X c #AF8F78",
"-X c #C48144",
";X c #CB8246",
":X c #CD824A",
">X c #CA8649",
",X c #D28245",
"<X c #D3844B",
"1X c #D8874B",
"2X c #D5894D",
"3X c #D98A4E",
"4X c #C38252",
"5X c #CC8C53",
"6X c #CB8755",
"7X c #D38552",
"8X c #D48B53",
"9X c #DA8D53",
"0X c #D88B56",
"qX c #CA915A",
"wX c #DC9155",
"eX c #DD945A",
"rX c #D69358",
"tX c #E1965C",
"yX c #E3985B",
"uX c #848682",
"iX c #858B82",
"pX c #8A8D86",
"aX c #908D8D",
"sX c #C09F88",
/* pixels */
"                                                                                                ",
"                                    X... .........o.|                                           ",
"                                  m #XuXuXuXuXuXoXX...E                                         ",
"                                  z X.X.XXX.X.oXQ W Q N                                         ",
"                                    Q X. . .XXXX( W E n                                         ",
"                                    G  . . . .X.] ] R g                                         ",
"                              o. .G c (  .] { X. . .L L X.oXE                                   ",
"              L | | Q   N ( X.o. .Q g Q  .]  .{  .X.G  .oX|  . .N   ..uX..                      ",
"            ( X.X. ./ G | uXo.o. .( z Q #XXXoXoXX. .G X. .( (  .E Q pXiXuX..B                   ",
"          T X. . . .{ ] G | X.X.{ P v A U U ` ' ^ K A } [  .] Q M @XiX$X#X#X{ M                 ",
"          m ( |  . . ...( G ` I Z 9 t s G.5.G.K.G.d s r D I W G oX@X@XXX#XuXQ                   ",
"            z E  . .| X.} x 3 p 8.9.g.g.L.0.u.Q.I.I.L.g.q.p 3 J $X@X#X@X .E c                   ",
"            ( L E  .] ` 8 # u I.x.p.b.c.R.k.c.{.}._._.m.T.9.7.r C ~  . .G ] W                   ",
"          | oXX.M J J 3 9 8.-.Y.m.m.].[.[.V.W.0X<X X X}..Xt.P.z.q 6 n N  .@XXXL                 ",
"        Q X. ...[ k $ u f.z.:.!.!.[.:X X<XC.;XeX9X<X<X<X0Xx.!._.L.p 7 ' @X$X@X] R               ",
"      m G ] { (.' 6 u L.P.c.j.5X>X:X<X1X1XF.>XtX9X8X2X2X0Xv.>X{.E.P.2.a } XX.. .M               ",
"      | E G / } Z y H.U.E.A.h.8X<X<X1X3X3XF.>XeX8X2X2X<X1XC.8X7X'._.P.2.Z ] E L L L             ",
"      { } .. .K e q.U.].{.`.h.9X1X2X3X1X9XF.>XeX<X<X2X<X2XB.>X2X{.`.E.H.t F ) { [ R             ",
"    oX] [ | | Z e.c.E.{.:X;XZ.wX1X9X3X<X1XD.>XwX1X<X<X<X2XB.>X1X{.`.W.R.5.K ) ] [ {             ",
"    _ ] ' ] W a g.E.[.{.<X;XZ.wX1XwX2X1X1XD.>XwX1X,X<X<X9XC.>X2X{.'._.R.I.D / / { | Q           ",
"    G Q P W v t Q.[.{.<X2X2XZ.tX1X3X<X<X<XD.>XwX1X1X2X2X9XC.2X9X7X<X;X_.Q.r b P R L L           ",
"_  .oXoX#X$XA d 4X<X<X1X9X2XA.yX1X2X<X<X<X`.>XwX9X1X2X9XwXC.8X9X8X1X1X<X~.t J #XoX$XuXX.| z     ",
"iX . .( Q ] C 6.:X<X<X1X1X>XA.yX1X2X<X<X<X`.>XwX9X3X2X8X9XC.wX9X<X<X1X<X:Xd K  .X.@XXX .] z     ",
"iX{ oXuXX.] x 7.:X<X1X1X2X>XA.yX<X<X<X<X<XF.;XwX3XwX2X1X1XB.eX9X<X<X<X<X8X6.`  ...XXX.X. .h     ",
"XX{ X.X.X.{ x 7.{.<X<X9X<X:XA.tX<X>X>X<X<XF.-XwX1XwX3X<X1XB.wX1X<X>X<X<X9Xs.' X. . . . .] z     ",
"( W W Q ( ] x 7.{.'.<X<X<X:XA.tX<X:X:X<X<XD.>XwX1X9X1X<X<XB.wX<X>X:X:X:XeXs.U X.] ( ] W L h     ",
"m n c n m m 7 7.:X:X<X<X<X:XZ.tX<X;X:X<X<XC.-X9X<X<X9X<X<XB.rX2X:X:X:X;XeXd b M M M n z z j     ",
"    c X.#X] 8 4.:X<X<X<X<X'.N.eX X'.'.:X:XC.`.9X<X<X<X:X<Xh.8X,X'.|.,X'.rXd M  .XXQ h           ",
"    L pXpXoXS 4.:X<X<X<X<X'.l.wX<X:X;X<X<XC.W.9X:X{.<X:X<Xh.8X;X'.'.'.'.8Xs { #X{ ( z           ",
"    B X.#XX.C 7.:X<X<X<X:X;XZ.9X<X:X:X<X<XD.`.<X'.'.<X;X:Xv.8X{.~.Q.Q.W.5X6.' X. .| z           ",
"    c ] X.X.C 4.:X:X<X<X:X'.Z.9X|.;X:X<X<XD.-X<X'.'.'.`.:XB.5X[./.=XsX*X4Xd.U ] ! Q h           ",
"    B ] ] ( x 4.{.'.:X:X:X`.l.9X|.{.:X X<XC.`.<X'.<X:X;X<Xv.5XQ.9 ~ aXJ.^.s.K ] T G h           ",
"    z G G c 7 7.:X:X:X:X:X`.h.wX<X:X{.<X<XB.W.9X'.<X<X>X<Xh.5X/.D Q aX(.K.a v R G G g           ",
"T W E E E L 7 7.:X{.'.'.:X`.N.tX<X:X<X<X1XD.;X9X:X<X<X>X<Xh.qXf.&Xn V %X=X3 v E E E G L G z     ",
"#X#X#XuX$XXXC 7.{.:X'.'.'.`.l.eX<X:X<X<X<Xm.A.9X'.:X<X:X<Xl.qXe.U h f l J.$ `  .}  .XX#X..z     ",
"@X{ X.oX} { x 7.{.'.{.{.'._.j.9X<X:X:X{.7XM.v.0X'.'.'.:X:Xj.qX2.I X.O.O.y $ ~ _ E { $X#X| z     ",
"iX .#XoX] / x 7.[.'._._._.E.:.0X}.{.{.'.7Xn.v.7X[.'.'.{.{.:.4Xq.. r S 6 q # { OX) X.oXX.| n     ",
"iX .oXoX] / x 7.]._.Y.Y.m.b.=.7X}._.{.'.}.M.V.7X_._.'.].].>.+Xx.w.4.4.f.^.0 Y @X@XXXoX .] n     ",
"X. . .] E P k 5.~._.Y.U.b.k.=.6X).Y.[._.}.p.c.{.n.m.Y.m.Y.=.Q.x.Y.E.b.x.!.0 H ..(.{ X.] R j     ",
"m M B n M m 7 i Y.b.i.x.x.t.=..Xm.n.E.m.).a.c.!.k.k.b.b.U.&.P.y.t.y.;.;.U.9 5 B N M B h 5 2     ",
"    n  .XX..v q y.r.r.y.y.-.&..Xi.i.U.i.b.;.z.R.t.t.i.u.i.#.I.-.-.3.&.%.z.4 J XXOX] h           ",
"    n ( {  .A q 0.0.0.0.0.%.#.T.y.y.i.y.b.-.z.P.0.0.r.0.r.@.g.%.#.w w #.w.0 ' XX| ( h           ",
"    M  .] { A = ,.*.%.<.%.#.O L.1.<.0.0.y.*.9.u.*.*.*.*.*.o 3.#.O w > +.3.4 ` } o.| c           ",
"    M OX( ] C # w $.$.$.w - o w.&.&.*.<.%.#.<.w.#.#.#.$.w X $.w o e ; ; u + J {  .o.n           ",
"    m ( E P k # 1 ; ; > - - X 8.$.+.$.,.$.> ,.1.> ; > w : X : > - - - , p $ J { X.#Xn           ",
"    h m m B 7 % < * * * = = @ i : : : p : * i i * * * * * & = * @ # = = < + h G L R h           ",
"                                                                                                ",
"                                                                                                "
};
