/* XPM */
static char *cb6abd91340d4023e6a2032daa330202vGYz0ZMyNDqSWlaG[] = {
/* columns rows colors chars-per-pixel */
"48 48 170 2 ",
"   c None",
".  c #3C3F3B",
"X  c #5A301B",
"o  c #65381F",
"O  c #60341D",
"+  c #483727",
"@  c #493827",
"#  c #453728",
"$  c #4D3B29",
"%  c #503D2A",
"&  c #5D3521",
"*  c #6A3D22",
"=  c #753C27",
"-  c #7A3F26",
";  c #3C423F",
":  c #5D412D",
">  c #52453A",
",  c #5E4938",
"<  c #5A4435",
"1  c #754822",
"2  c #7B4C24",
"3  c #7D422A",
"4  c #7B4C2A",
"5  c #764A29",
"6  c #684D37",
"7  c #715137",
"8  c #785131",
"9  c #3E4341",
"0  c #414643",
"q  c #454A46",
"w  c #474C48",
"e  c #494D4A",
"r  c #494A45",
"t  c #514D42",
"y  c #4D514D",
"u  c #4E5350",
"i  c #515651",
"p  c #565A56",
"a  c #595C56",
"s  c #5A5E59",
"d  c #6D5442",
"f  c #765940",
"g  c #645F5A",
"h  c #5D615C",
"j  c #61655F",
"k  c #6C675B",
"l  c #76675B",
"z  c #626761",
"x  c #656A63",
"c  c #6A6D65",
"v  c #6B6F68",
"b  c #6D7067",
"n  c #6D726A",
"m  c #72766D",
"M  c #75796E",
"N  c #787A6F",
"B  c #7A726C",
"V  c #727571",
"C  c #767A71",
"Z  c #7A7D74",
"A  c #797D79",
"S  c #80472B",
"D  c #834C2D",
"F  c #8B4D2B",
"G  c #82512E",
"H  c #8C522B",
"J  c #8D592E",
"K  c #91562D",
"L  c #975B2E",
"P  c #985C2F",
"I  c #884C31",
"U  c #845431",
"Y  c #8A5431",
"T  c #8E5933",
"R  c #80573B",
"E  c #845B3C",
"W  c #995634",
"Q  c #925B34",
"!  c #9B5C33",
"~  c #965F38",
"^  c #9B5E39",
"/  c #A25F37",
"(  c #9E6434",
")  c #9F643C",
"_  c #A16235",
"`  c #A66835",
"'  c #AA6A36",
"]  c #A6653A",
"[  c #AB663A",
"{  c #AC6A3C",
"}  c #B36C3D",
"|  c #B86F3E",
" . c #B7713F",
".. c #BA723F",
"X. c #BE793F",
"o. c #966D4C",
"O. c #9A6743",
"+. c #AF6C41",
"@. c #A46E42",
"#. c #B76F40",
"$. c #AA7147",
"%. c #B67445",
"&. c #BB7543",
"*. c #BB7946",
"=. c #BB7648",
"-. c #BE7A49",
";. c #B4794F",
":. c #816F63",
">. c #887467",
",. c #9F7D6F",
"<. c #997964",
"1. c #A57F6F",
"2. c #C07541",
"3. c #C07C42",
"4. c #C37E4B",
"5. c #C87F4B",
"6. c #7D8176",
"7. c #7E8279",
"8. c #BF855B",
"9. c #9F816C",
"0. c #808276",
"q. c #81857B",
"w. c #85897E",
"e. c #B6886A",
"r. c #B08772",
"t. c #C58244",
"y. c #C98445",
"u. c #C7804E",
"i. c #CA814D",
"p. c #CB8451",
"a. c #C68F68",
"s. c #CC9774",
"d. c #878A82",
"f. c #898E84",
"g. c #898B88",
"h. c #928D89",
"j. c #8B9086",
"k. c #8C9187",
"l. c #8D9289",
"z. c #989A99",
"x. c #ABADAC",
"c. c #A0A2A1",
"v. c #B6B7B6",
"b. c #BDBEBD",
"n. c #BCB6B1",
"m. c #CDB9A9",
"M. c #DFBDA6",
"N. c #C8BAB1",
"B. c #DDC5B5",
"V. c #E1C8B7",
"C. c #EBD1BD",
"Z. c #CCCCCC",
"A. c #D2D2D2",
"S. c gainsboro",
"D. c #EED4C1",
"F. c #EDD4C1",
"G. c #E3D1C2",
"H. c #EEDFD4",
"J. c #DFE0DF",
"K. c #F1E6DE",
"L. c #DFE2E2",
"P. c #E6E6E6",
"I. c #EEEEEE",
"U. c #F0EAE6",
"Y. c #F5F5F5",
"T. c #F7F8F8",
"R. c white",
"E. c #FEFEFE",
"W. c gray99",
"Q. c #FFFFFF",
/* pixels */
"                                      h k.j.k.j.k.j.f.f.Z i                                     ",
"                                      c 7.6.q.6.7.Z n n n y                                     ",
"                                      h Z Z Z Z 7.C x c x                                       ",
"                                      i m C Z C 6.C v c a                                       ",
"                                      w n N Z M Z C m m s y                                     ",
"                    s           x Z V i h N m v Z Z Z M p Z 7.C z         c                     ",
"                  V 6.x     n Z Z M m a y C C C C C Z m h 7.M m Z C p   Z d.Z                   ",
"              z Z Z C m x h q.6.C C M x i 6.6.7.7.6.C b x 6.M n n C s C f.w.q.m i               ",
"            i C C C C C C z z 7.C C n j y j b m V C n h x C C M M j j w.w.w.q.q.n               ",
"              x m C C C C Z h c m l f E 8 O.$.m.L.J.A.b.x.g.Z c c h w.q.q.6.q.q.x               ",
"              w h C C m C Z c > 6 ) %.=._ -.5.D.R.R.R.R.R.Y.Z.z.h n w.0.q.q.Z z e               ",
"              s x h C M C x > * G 4.4.%.( 4.i.D.R.R.R.R.R.R.R.T.b.V c m Z C h n s               ",
"            p 7.7.x h n s < 5 Y T 4.4.*.( 4.i.D.R.R.R.R.R.R.R.R.R.Z.V a h s C q.m e             ",
"            m 6.N C p r : 4 _ ! Q 4.4.*.( 4.i.D.R.R.R.R.R.R.R.R.R.R.A.A y Z q.w.q.c             ",
"          p C N Z 6.k : ( Q [ _ Q p.u.*.( 4.p.D.R.R.R.R.R.R.R.R.R.R.R.S.g.c 6.q.6.N i           ",
"          a h b C C , ! *._ } _ Q p.4.*.( -.p.D.R.R.R.R.R.R.R.R.R.R.R.R.P.g.m Z b j i           ",
"        c Z n n n k Y { t.' } _ Q 4.4.*.( 4.i.D.R.R.R.R.R.R.R.R.R.R.R.R.R.A.z h c n n i         ",
"        M N N Z c 7 } } y.' } ! Q u.4.*.( 4.p.D.R.R.R.R.R.R.R.R.R.R.R.R.R.I.7.x C N N x         ",
"        m N m m j 5 &.&.y.' ..! T p.4.*.( -.5.C.R.R.R.R.R.R.R.R.R.R.R.R.R.R.v.c m m N m         ",
"      . c b c c t 4 &.} t._ | _ Q p.4.*._ ;.e.V.R.R.R.R.R.R.R.R.R.R.R.R.R.R.S.n c c b c .       ",
"      n m m m z # 2  .] *.( | ] Q p.4.*.( 9.>.B.R.R.R.R.R.R.R.R.R.R.R.R.R.R.Y.A h n x c n       ",
"  j m 7.C Z q.n $ 2 } [ 3.` ..] Q 4.4.=.L d k N.R.R.R.R.R.R.R.R.R.R.R.R.R.R.R.z.x q.7.d.q.Z m e ",
"  C C Z m n n x % 2  .} y.' .._ Q 4.4.*.J l h.A.T.R.R.R.R.R.R.R.R.R.R.R.R.R.R.x.v Z Z q.Z N m e ",
"  C C Z q.q.N x % 2 &.} y.' } ! Q 4.4.=.o.l <.S.T.R.R.R.R.R.R.R.R.R.R.R.R.R.R.x.C m Z 6.Z Z m e ",
"  c C Z Z Z Z x % 2 &.&.y.' } ! T i.4.=.o.:.B b.R.R.R.R.R.R.R.R.R.R.R.R.R.R.R.x.Z Z Z Z Z C n e ",
"  j c c c v C z $ 2 ..2.y.` } ^ Q p.4.*.R V g n.R.R.R.R.R.R.R.R.R.R.R.R.R.R.R.x.C Z n m m c j w ",
"  i s p p a s i $ 2 &.2.t._ [ _ Q p.4.*.D 6 U B.R.R.R.R.R.R.R.R.R.R.R.R.R.R.R.x.p h s s p i y 0 ",
"      w z V n a $ 2 &.&.X.P } ] ~ p.4.=.K { 4.F.R.R.R.R.R.R.R.R.R.R.R.R.R.R.R.x.i n V h 0       ",
"      y q.k.w.b @ 2 ..&.3.P } { Q 4.4.%.( *.4.C.R.R.R.R.R.R.R.R.R.R.R.R.R.R.R.x.C q.Z c w       ",
"      e N d.6.c @ 2 ..&.&.L #.+.T 4.4.=.( *.3.C.R.R.R.R.R.R.R.R.R.R.R.R.R.R.R.x.Z Z C n w       ",
"      w c Z 0.c @ 2 ..&.3.! &.+.Q u.4.=.( -.4.C.R.R.R.R.R.R.R.R.R.R.R.R.R.R.R.x.m m n b e       ",
"      w c Z Z j $ 2 ..&.t.` &.{ ~ p.4.=.( -.i.D.R.R.R.R.R.R.R.R.R.R.R.R.R.R.R.x.v n j j w       ",
"      e c b x s $ 2 &.&.X.( | { Q 4.4.=.( *.4.C.R.R.R.R.R.R.R.R.R.R.R.R.R.R.R.x.j n z j w       ",
"      0 i i y q @ 2 ....3.! } ] T 4.4.=.( *.3.C.R.R.R.R.R.R.R.R.R.R.R.R.R.R.R.x.y p i i 0       ",
"  h C A 6.7.Z x @ 2  .| y.( } ] Y -.4.=.( =.&.C.R.R.R.R.R.R.R.R.R.R.R.R.R.R.R.x.x C C C n m x y ",
"  n 6.Z 6.q.6.x $ 2 &.&.3.P [ _ T -.4.*.( %.=.F.R.R.R.R.R.R.R.R.R.R.R.R.R.R.R.x.V n n N 6.q.M w ",
"  n C 6.7.Z N j $ 2  .| X.K / ^ Y =.4.*.( =.M.W.R.R.R.R.R.R.R.R.R.R.R.R.R.R.R.x.V c c Z d.q.m e ",
"  C Z q.q.N n z @ 2 } [ &.H ! ! Y =.-.=.@.V.R.R.R.R.R.R.R.R.R.R.R.R.R.R.R.R.R.x.6.Z N Z 6.Z m y ",
"  m Z Z 0.C m h $ 2 [ ! } 1 W Q G =.=.8.G.R.R.R.R.R.R.R.R.R.R.R.R.R.R.R.R.R.R.x.C q.6.6.6.m n y ",
"  c Z Z C b c s $ 2 _ H ] * I Y G %.a.H.R.R.R.R.R.R.R.R.R.R.R.R.R.R.R.R.R.R.R.x.x Z Z N Z m j q ",
"  y s s i p p u @ 2 ! F W o D D 4 s.K.W.T.T.T.T.R.R.R.R.R.R.R.R.R.R.R.R.R.R.R.x.q p p p p y 9 ; ",
"      w c Z C z + 2 ! 3 F O S D <.U.T.Y.Y.Y.Y.Y.Y.Y.Y.T.T.R.R.R.R.R.R.R.R.R.R.x.h Z A n w       ",
"      e c N Z b + 2 Q - S X D r.U.W.T.T.T.Y.Y.Y.Y.Y.Y.Y.Y.Y.Y.T.R.R.R.R.R.R.R.x.Z C m b w       ",
"      e m C m c @ 1 H = 3 & 1.Y.R.T.T.T.T.T.T.Y.Y.Y.T.Y.Y.Y.Y.Y.Y.Y.T.R.R.R.R.x.Z C C n e       ",
"      e C C m c @ 1 D = D ,.                  T.T.T.T.T.T.Y.Y.Y.Y.Y.Y.Y.T.R.R.x.n M m N e       ",
"      e M m b h + 1 D 3                                 T.Y.Y.Y.Y.Y.Y.Y.Y.Y.R.x.x N Z Z y       ",
"      w x x j p @ 1 Y                                       Y.Y.Y.Y.Y.Y.Y.Y.Y.c.h m C C e       ",
"      9 w w w 9                                                 I.Y.Y.Y.I.I.I.z.; e e y 0       "
};
