/* XPM */
static char *result[] = {
/* columns rows colors chars-per-pixel */
"48 48 214 2 ",
"   c #020202",
".  c #060609",
"X  c #0E0C0A",
"o  c #090706",
"O  c #160D08",
"+  c #15130D",
"@  c #1C120D",
"#  c #1B1917",
"$  c #1A1819",
"%  c #2A0A09",
"&  c #380D07",
"*  c #24150D",
"=  c #2B140B",
"-  c #2E1A0E",
";  c #39130C",
":  c #331A0E",
">  c #39190B",
",  c #251611",
"<  c #2D1B11",
"1  c #271F1C",
"2  c #2C1E19",
"3  c #331D11",
"4  c #3B1D12",
"5  c #3F1312",
"6  c #1D2714",
"7  c #2A230F",
"8  c #3C200F",
"9  c #25231C",
"0  c #232D16",
"q  c #342114",
"w  c #3C2212",
"e  c #2E3C1A",
"r  c #293319",
"t  c #333C1C",
"y  c #3B3B1A",
"u  c #37311A",
"i  c #282721",
"p  c #3A2C20",
"a  c #36392B",
"s  c #410E07",
"d  c #400F08",
"f  c #41140A",
"g  c #4D130A",
"h  c #4C1B0C",
"j  c #471D0E",
"k  c #5D1207",
"l  c #54140A",
"z  c #5C150B",
"x  c #511C0D",
"c  c #591A0F",
"v  c #561507",
"b  c #471911",
"n  c #5A1811",
"m  c #6D1505",
"M  c #631409",
"N  c #6C1509",
"B  c #68170A",
"V  c #731607",
"C  c #731509",
"Z  c #641810",
"A  c #42230F",
"S  c #49200F",
"D  c #422411",
"F  c #4C2411",
"G  c #4D2913",
"H  c #472C1C",
"J  c #532D14",
"K  c #5A2E14",
"L  c #532716",
"P  c #473618",
"I  c #543113",
"U  c #5C3115",
"Y  c #5D3319",
"T  c #543B1A",
"R  c #583A17",
"E  c #702A1F",
"W  c #613115",
"Q  c #603219",
"!  c #64251D",
"~  c #462E23",
"^  c #4B2B21",
"/  c #423326",
"(  c #45382B",
")  c #593B28",
"_  c #443D37",
"`  c #552F29",
"'  c #602621",
"]  c #34431C",
"[  c #3A4A23",
"{  c #364521",
"}  c #3D5323",
"|  c #4D451C",
" . c #54441C",
".. c #5B431E",
"X. c #554D1F",
"o. c #4C4C21",
"O. c #424323",
"+. c #534F20",
"@. c #5B4322",
"#. c #43532B",
"$. c #47582B",
"%. c #465925",
"&. c #595525",
"*. c #585725",
"=. c #43463A",
"-. c #5B4433",
";. c #564639",
":. c #4A5934",
">. c #634B39",
",. c #69523C",
"<. c #60582B",
"1. c #4D622C",
"2. c #5D642A",
"3. c #536D2C",
"4. c #57682B",
"5. c #5B742F",
"6. c #5C7632",
"7. c #5E7238",
"8. c #5E7B35",
"9. c #526637",
"0. c #617C33",
"q. c #637A36",
"w. c #636B32",
"e. c #5F4F40",
"r. c #484343",
"t. c #664B41",
"y. c #6A5545",
"u. c #6E5942",
"i. c #7A5F45",
"p. c #6A5E53",
"a. c #667C40",
"s. c #7E6649",
"d. c #6A6864",
"f. c #726B68",
"g. c #7A706E",
"h. c #757274",
"j. c #845D4C",
"k. c #85674C",
"l. c #927354",
"z. c #987A5C",
"x. c #846655",
"c. c #A07858",
"v. c #896B65",
"b. c #917768",
"n. c #837977",
"m. c #927773",
"M. c #638334",
"N. c #668339",
"B. c #6C8B3A",
"V. c #698738",
"C. c #72813F",
"Z. c #6E913B",
"A. c #72943C",
"S. c #759C3D",
"D. c #789B3D",
"F. c #7AA43E",
"G. c #79A63D",
"H. c #759B41",
"J. c #799E44",
"K. c #759544",
"L. c #6B8642",
"P. c #7BA541",
"I. c #7AA841",
"U. c #AB815B",
"Y. c #B1855D",
"T. c #828878",
"R. c #AE8661",
"E. c #B98D66",
"W. c #BF9167",
"Q. c #A98578",
"!. c #C7986F",
"~. c #C79971",
"^. c #CEA274",
"/. c #D8A578",
"(. c #E4AD7B",
"). c #E8AF7F",
"_. c #F4B97F",
"`. c #888787",
"'. c #8E918A",
"]. c #8E8E90",
"[. c #9C9A9A",
"{. c #989896",
"}. c #93998D",
"|. c #A59A98",
" X c #A09FA0",
".X c #ACAAAA",
"XX c #A8A6A4",
"oX c #AEAEB0",
"OX c #B4B4B4",
"+X c #BCBBBC",
"@X c #B9ABA6",
"#X c #D9A792",
"$X c #D2AB8A",
"%X c #E4B284",
"&X c #EDB683",
"*X c #F4B984",
"=X c #FCBD85",
"-X c #FCBF88",
";X c #CEB5A2",
":X c #EDB5A5",
">X c #FDC086",
",X c #F8CAA2",
"<X c #C4C5C5",
"1X c #C9C8C6",
"2X c #CCCBCC",
"3X c #C6C8C7",
"4X c #D1CFCF",
"5X c #D2CFD1",
"6X c #D4D4D4",
"7X c #D5D8D6",
"8X c #E2D9D7",
"9X c #E1DBDA",
"0X c #F1E5DD",
"qX c None",
/* pixels */
"qXqXqXqXqXqXqXqXqX$.$.#.$.$.3.N.N.0.8.8.5.5.1.} e qXqXqXqXqXqXqXqXqXqXqXqXqXqXqXqXqXqXqXqXqXqXqX",
"qXqXqXqXqXqXqX:.q.K.H.D.F.P.F.F.I.F.I.I.F.F.G.S.A.0.3.} qXqXqXqXqXqXqXqXqXqXqXqXqXqXqXqXqXqXqXqX",
"qXqXqXqXqXqX1.H.F.G.G.G.F.F.F.F.G.F.F.F.G.F.G.G.F.P.P.S.V.%.qXqXqXqXqXqXqXqXqXqXqXqXqXqXqXqXqXqX",
"qXqXqXqXqX6.F.I.F.G.G.G.F.I.F.F.F.P.P.F.G.F.F.G.F.G.P.P.F.D.7.qXqXqXqXqXqXqXqXqXqXqXqXqXqXqXqXqX",
"qXqXqXt N.P.P.F.G.G.G.G.F.P.G.G.F.F.P.S.A.Z.V.0.5.2.2.*.X. .@.H qXqXqXqXqXqXqXqXqXqXqXqXqXqXqXqX",
"qXqX=.%.H.S.S.S.A.Z.D.A.A.Z.B.w.%.| |  . .R I I J U W U U U W G qXqXqXqXqXqXqXqXqXqXqXqXqXqXqXqX",
"{.'.=.u ] y y P P P @.T T R R J G J J K K U Y U K J J P P P  .+.t qXqXqXqXqXqXqXqXqXqXqXqXqXqXqX",
"<Xh.* F L G G U U W Y Y I J R .. . .&.&.+.| X.*.*.3.M.B.Z.Z.S.P.B.qXqXqXqXqXqXqXqXqXqXqXqXqXqXqX",
"{.i { &.<.*.*.*.*.2.5.B.q.M.A.D.D.H.P.F.F.S.G.F.G.G.I.F.P.P.T.G.B.{ qXqXqXqXqXqXqXqXqXqXqXqXqXqX",
"r.9 a.P.P.P.T.G.G.G.F.F.J.P.F.D.F.F.F.F.P.P.P.P.I.G.P.S.B.0.3.} 6 # qXqXqXqXqXqXqXqXqXqXqXqXqXqX",
"qXr.:.7.6.1.1.%.[ [ y 7 0 r r e t [ ] ] { ] [ #.] ] ] 0 + o       o qXqXqXqXqXqXqXqXqXqXqXqXqXqX",
"qXqX$ . .             # 1         .                               o qXqXqXqXqXqXqXqXqXqXqXqXqXqX",
"qXqX.               1 E.^.u.+     >.l.-.X                 o         qXqXqXqXqXqXqXqXqXqXqXqXqXqX",
"qX.     $ ;.+     o ;.,.s.b.p.9 >.%X>X).l.+                       . qXqXqXqXqXqXqXqXqXqXqXqXqXqX",
"qX.   qX;.$Xl.o   -.~.;..X9X8X;X%X>X>X>X*Xz.9     + u.i             qXqXqXqXqXqXqXqXqXqXqXqXqXqX",
"qXqXqXqXt.&X_.i.* W.(.( .X7X0X,X=X_.>X*X=X%XU.X * c.%X(           o qXqXqXqXqXqXqXqXqXqXqXqXqXqX",
"qXqXqXQ.x.~.>X(.Y.*X).,.=.p.#X=X=X=X=X=X=X=X!./ W.=X*Xy.    o     o qXqXqXqXqXqXqXqXqXqXqXqXqXqX",
"qXqXv.:X#Xj.(.>X=X=X=X_./.%X>X=X=X=X=X_.=X-XE.E.&X(.~.t.o   o qX    qXqXqXqXqXqXqXqXqXqXqXqXqXqX",
"qXqXqXQ.#Xy.i.).=X=X=X=X_.=X=X=X=X_.=X=X=X=X!.z.i.qXqXqXqXX qXqXqX  . qXqXqXqXqXqXqXqXqXqXqXqXqX",
"qXqXqXqXqXqXqXqXU.!.(.=X_.=X=X=X=X=X=X).(.c.>.qXqXqXqXqXqXqXqXqXqXqXqXqXqXqXqXqXqXqXqXqXqXqXqXqX",
"qXqXqXqXqXqXqXqXqXqXqXR.R.R.c.!.!.$Xk.@.H ` y.m.n.qXqXqXqXqXqXqXqXqXqXqXqXqXqXqXqXqXqXqXqXqXqXqX",
"qXqXqXqXqXqXqXqXqXqXqXqXqXqX_ f.{.f.H 4 t.@X1X5X5X3X<XOXqXqXqXqXqXqXqXqXqXqXqXqXqXqXqXqXqXqXqXqX",
"qXqXqXqXqXqXqXqXqXqXqXqXqXqXa g.h.q I / .X6X6X5X7X6X6X5X+XXX'.qXqXqXqXqXqXqXqXqXqXqXqXqXqXqXqXqX",
"qXqXqXqXqXqXqXqXqXqXqXqXqXqXqXb ; A U ^ |.5X6X6X6X7X7X7X7X6X4X.XqXqXqXqXqXqXqXqXqXqXqXqXqXqXqXqX",
"qXqXqXqXqXqXqXqXqXqXqXqXqXqXqXc j U U g E j.b.m.m.v.v.m.|.2X6X6XOXqXqXqXqXqXqXqXqXqXqXqXqXqXqXqX",
"qXqXqXqXqXqXqXN.Z.B.6.} qXqXqX' K W I l V V N C N M m B b f.3X6X6X.XqXqXqXqXqXqXqXqXqXqXqXqXqXqX",
"qXqXqXqXqXqXqXJ.I.I.I.V.=.`.qXqXL Y Y x V V C V C V V C c ~ [.1X3XOXqXqXqXqXqXqXqXqXqXqXqXqXqXqX",
"qXqXqXqXqXqXqXN.P.G.A.9. X2X`.d.H U Q x N C V C C M n b D p ].OXOXOX].qXqXqXqXqXqXqXqXqXqXqXqXqX",
"qXqXqXqXqXqXqXqXqXL.:.{.6XXXoX3Xn.R Q x N C V m v j A G L ( `.'.}.T.d.qXqXqXqXqXqXqXqXqXqXqXqXqX",
"qXqXqXqXqXqXqXqXqXqXd.+X{..X6X6X.XR Y x V m z h F U I L 4 7 5.V.B.V.:.qXqXqXqXqXqXqXqXqXqXqXqXqX",
"qXqXqXqXqXqXqXqXqXqXqXqXqXqX+X+X[.-.Y F x F G J L 8 > f k A A.G.I.J.qXqXqXqXqXqXqXqXqXqXqXqXqXqX",
"qXqXqXqXqXqXqXqXqXqXqXqXqXqXqXqXqXqXF F S S f ; s v B m V x 5.F.H.0.qXqXqXqXqXqXqXqXqXqXqXqXqXqX",
"qXqXqXqXqXqXqXqXqXqXqXqXqXqXqXqXqXqXn M N N m N V V C V C N x T T 3 qXqXqXqXqXqXqXqXqXqXqXqXqXqX",
"qXqXqXqXqXqXqXqXqXqXqXqXqXqXqXqXc N C M k V V V C C C V C V C C C l qXqXqXqXqXqXqXqXqXqXqXqXqXqX",
"qXqXqXqXqXqXqXqXqXqXqXqXqXqXM B C C C C M k C V C C V V V C V V C C z & qXqXqXqXqXqXqXqXqXqXqXqX",
"qXqXqXqXqXqXqXqXqXqXqXqX' Z C C V C C C C M k C V V C C V V V V V V C M g % qXqXqXqXqXqXqXqXqXqX",
"qXqXqXqXqXqXqXqXqXqXqXqXZ V V V C V V V C N l g M N C C C C C C C C C V C M s qXqXqXqXqXqXqXqXqX",
"qXqXqXqXqXqXqXqXqXqXqXqXz C C C C V C M & & qXqXqXqXz v M C V C C V V V C C C M g 5 qXqXqXqXqXqX",
"qXqXqXqXqXqXqXqXqXqXqXqXb M C V C V C C l = qXqXqXqXqXqXqXl z N C V V V C C V V C g = qXqXqXqXqX",
"qXqXqXqXqXqXqXqXqXqXqXqXqX; c C C V V M f 4 * qXqXqXqXqXqXqXqXqXs g M m V C C z & : w * qXqXqXqX",
"qXqXqXqXqXqXqXqXqXqXqXqXqXqXqXc C z l f 8 D q * qXqXqXqXqXqXqXqXqXqXO & l l > = > w A D < @ qXqX",
"qXqXqXqXqXqXqXqXqXqXqXqXqXqXqXqX5 = : D A D D w , qXqXqXqXqXqXqXqXqXqXqXqX* @ : D D D D D 3 + qX",
"qXqXqXqXqXqXqXqXqXqXqXqXqXqXqXqXqX, w D D D D w 2 qXqXqXqXqXqXqXqXqXqXqXqXqX# * D D A A D - O qX",
"qXqXqXqXqXqXqXqXqXqXqXqXqXqXqXqXqX* w A A D w 3 qXqXqXqXqXqXqXqXqXqXqXqXqXqXqX< D w A D 3 qXqXqX",
"qXqXqXqXqXqXqXqXqXqXqXqXqXqXqXqXqX3 A A D 3 @ qXqXqXqXqXqXqXqXqXqXqXqXqXqXqX* 3 A A D > qXqXqXqX",
"qXqXqXqXqXqXqXqXqXqXqXqXqXqXqXqXqX3 D w 3 * qXqXqXqXqXqXqXqXqXqXqXqXqXqXqXqX< D D w w @ qXqXqXqX",
"qXqXqXqXqXqXqXqXqXqXqXqXqXqXqXqXqXqX, * qXqXqXqXqXqXqXqXqXqXqXqXqXqXqXqXqXqX3 D D D * qXqXqXqXqX",
"qXqXqXqXqXqXqXqXqXqXqXqXqXqXqXqXqXqXqXqXqXqXqXqXqXqXqXqXqXqXqXqXqXqXqXqXqXqXqXq 4 * qXqXqXqXqXqX"
};
