/* XPM */
static char *result[] = {
/* columns rows colors chars-per-pixel */
"48 48 216 2 ",
"   c #020202",
".  c #080605",
"X  c #090806",
"o  c #070708",
"O  c #0C0B0B",
"+  c #080809",
"@  c #140D0A",
"#  c #180D07",
"$  c #0D100A",
"%  c #15130D",
"&  c #1C120C",
"*  c #151C0D",
"=  c #1C1A15",
"-  c #1B1511",
";  c #2A0B08",
":  c #380D08",
">  c #23130D",
",  c #2A150C",
"<  c #26180F",
"1  c #2D1A0F",
"2  c #34130B",
"3  c #3B120B",
"4  c #341C0E",
"5  c #3A1C0E",
"6  c #3B1005",
"7  c #241711",
"8  c #2C1B12",
"9  c #241E1A",
"0  c #261813",
"q  c #331C12",
"w  c #3B1B13",
"e  c #381613",
"r  c #3C210F",
"t  c #252916",
"y  c #342114",
"u  c #3D2212",
"i  c #32251A",
"p  c #3E2A16",
"a  c #27311A",
"s  c #393618",
"d  c #3E2A25",
"f  c #3A362A",
"g  c #3C3A39",
"h  c #292F23",
"j  c #420F08",
"k  c #490F0A",
"l  c #480E07",
"z  c #4C1107",
"x  c #44130C",
"c  c #4C130A",
"v  c #4B1C0F",
"b  c #52120A",
"n  c #5C150B",
"m  c #56180D",
"M  c #5A160A",
"N  c #441A14",
"B  c #641307",
"V  c #6D1507",
"C  c #63140A",
"Z  c #6C1609",
"A  c #6D180B",
"S  c #62180F",
"D  c #741606",
"F  c #731509",
"G  c #611C14",
"H  c #43240F",
"J  c #422411",
"K  c #4B2613",
"L  c #4C2B14",
"P  c #462A18",
"I  c #542D14",
"U  c #552818",
"Y  c #4A3917",
"T  c #563214",
"R  c #5D3115",
"E  c #5D3219",
"W  c #553B1A",
"Q  c #583E19",
"!  c #553817",
"~  c #613215",
"^  c #603518",
"/  c #472C27",
"(  c #542922",
")  c #4C352C",
"_  c #48392B",
"`  c #543C2B",
"'  c #5D3E27",
"]  c #483B35",
"[  c #622A20",
"{  c #31411B",
"}  c #3B4B23",
"|  c #3D4C28",
" . c #344222",
".. c #3F5421",
"X. c #47451A",
"o. c #53451D",
"O. c #54471D",
"+. c #494623",
"@. c #554C22",
"#. c #5A4B27",
"$. c #43552A",
"%. c #465A27",
"&. c #555423",
"*. c #565826",
"=. c #4C4134",
"-. c #424335",
";. c #544233",
":. c #594738",
">. c #4B5A33",
",. c #575F3A",
"<. c #694E38",
"1. c #624C37",
"2. c #6A523D",
"3. c #75583D",
"4. c #4E652B",
"5. c #4F6A29",
"6. c #486126",
"7. c #546A2C",
"8. c #5D742F",
"9. c #546B32",
"0. c #54653C",
"q. c #567132",
"w. c #5C7535",
"e. c #5E783A",
"r. c #607632",
"t. c #657B37",
"y. c #676C35",
"u. c #594E45",
"i. c #5A524D",
"p. c #524F4D",
"a. c #704740",
"s. c #64544A",
"d. c #6B5654",
"f. c #5C6257",
"g. c #76695E",
"h. c #716C6A",
"j. c #726967",
"k. c #78726F",
"l. c #7E7F77",
"z. c #876649",
"x. c #8B6D55",
"c. c #957559",
"v. c #926A54",
"b. c #A57D57",
"n. c #856E60",
"m. c #817C79",
"M. c #86726A",
"N. c #6A8536",
"B. c #6A8C37",
"V. c #648338",
"C. c #6C8C3A",
"Z. c #68833A",
"A. c #708F3C",
"S. c #6E923B",
"D. c #72963C",
"F. c #759A3E",
"G. c #789F3F",
"H. c #7BA53E",
"J. c #7CA83E",
"K. c #77A03F",
"L. c #728D46",
"P. c #769B40",
"I. c #759941",
"U. c #6C8347",
"Y. c #77A141",
"T. c #7CA541",
"R. c #7DA841",
"E. c #AC815A",
"W. c #9C8171",
"Q. c #86827D",
"!. c #A68669",
"~. c #B78C64",
"^. c #BB946E",
"/. c #BC8F7A",
"(. c #AD8A7E",
"). c #C6976C",
"_. c #C79B72",
"`. c #CA9C73",
"'. c #C29974",
"]. c #CEA67E",
"[. c #DAA97A",
"{. c #E3AD7B",
"}. c #E6AC74",
"|. c #E7B07B",
" X c #948E8A",
".X c #999694",
"XX c #948E87",
"oX c #A09E9E",
"OX c #B89380",
"+X c #A9A29B",
"@X c #A7A6A5",
"#X c #B4B6B4",
"$X c #BDBBB8",
"%X c #B3A7A2",
"&X c #CAA18E",
"*X c #E6AF80",
"=X c #ECB583",
"-X c #EAB584",
";X c #F4BA84",
":X c #FCBD84",
">X c #FCBF88",
",X c #F3BC8A",
"<X c #C0BFBF",
"1X c #F8BEA6",
"2X c #FAC08C",
"3X c #D2C8BD",
"4X c #F8CCA1",
"5X c #CBCCCA",
"6X c #C5C5C5",
"7X c #D1D0CE",
"8X c #D4D4D4",
"9X c #D6D6D9",
"0X c #DAD5D9",
"qX c #F6DDC9",
"wX c #FCF5F5",
"eX c None",
/* pixels */
"eXeXeXeXeXeXeXeXeXeXh h a  .| | | | eXeXeXeXeXeXeXeXeXeXeXeXeXeXeXeXeXeXeXeXeXeXeXeXeXeXeXeXeXeX",
"eXeXeXeXeXeXeX>.t.r.e.Z.B.D.P.D.D.D.S.S.V.8.6.{ eXeXeXeXeXeXeXeXeXeXeXeXeXeXeXeXeXeXeXeXeXeXeXeX",
"eXeXeXeXeX6.Z.P.T.T.R.T.R.J.H.K.H.J.T.T.H.H.H.D.B.5.$.eXeXeXeXeXeXeXeXeXeXeXeXeXeXeXeXeXeXeXeXeX",
"eXeXeXeX..S.E.R.H.H.H.H.Y.R.H.H.H.H.H.H.H.H.H.K.T.T.S.5.eXeXeXeXeXeXeXeXeXeXeXeXeXeXeXeXeXeXeXeX",
"eXeXeX5.F.K.J.J.H.H.H.H.H.H.K.H.H.H.H.H.H.J.J.T.H.F.D.C.,.eXeXeXeXeXeXeXeXeXeXeXeXeXeXeXeXeXeXeX",
"eXeX%.G.J.J.J.K.H.H.J.J.J.J.H.K.P.S.S.N.r.7.*.&.&.O.W W W p eXeXeXeXeXeXeXeXeXeXeXeXeXeXeXeXeXeX",
"eX-.q.G.K.F.S.S.D.D.B.B.N.w.&.X.X.Y Q T T T R R R R ~ E ~ p eXeXeXeXeXeXeXeXeXeXeXeXeXeXeXeXeXeX",
"g f s s a s s s ! O.! Y ! T K I I I R R R R I I L Y Y Y o.+.t eXeXeXeXeXeXeXeXeXeXeXeXeXeXeXeXeX",
"% 1 K L K I R ~ R ~ ^ I T Q Q o.O.&.O.X.o.&.*.7.r.B.S.F.K.Y.5.eXeXeXeXeXeXeXeXeXeXeXeXeXeXeXeXeX",
"- +.@.#.@.@.o.@.*.y.t.w.N.A.D.D.T.T.Y.K.H.K.H.T.J.J.J.J.J.R.V.eXeXeXeXeXeXeXeXeXeXeXeXeXeXeXeXeX",
"a D.P.T.T.T.P.T.R.R.E.J.H.J.R.J.J.H.R.R.J.R.J.J.E.J.K.S.e.| t eXeXeXeXeXeXeXeXeXeXeXeXeXeXeXeXeX",
"f f.I.C.Z.V.q.9.q...{ 6.%.%.6.q.5.5.9.5.q.q.9.7.6.{ * * X   o O eXeXeXeXeXeXeXeXeXeXeXeXeXeXeXeX",
"eX= * * $ O . . o o .         X   . .     X                   X eXeXeXeXeXeXeXeXeXeXeXeXeXeXeXeX",
"eXX               ] !.:..     = _ %                             eXeXeXeXeXeXeXeXeXeXeXeXeXeXeXeX",
"      % O       % x.~.~.:.O % c.-X).;.                        eXeXeXeXeXeXeXeXeXeXeXeXeXeXeXeXeX",
"X     :.c.-   . =.2.u.XX+Xk.v.;X2X2X[.;.o       9 +         . eXeXeXeXeXeXeXeXeXeXeXeXeXeXeXeXeX",
". eXeXc.:Xx.. y [.E.Q.wXwXqX2X:X:X:X:X_.;..   ` !.t           eXeXeXeXeXeXeXeXeXeXeXeXeXeXeXeXeX",
"eXeXeXx.2X|.1.z.|.3.p.@X3X4X:X:X:X:X:X:X^.- ` [.[.d         . + eXeXeXeXeXeXeXeXeXeXeXeXeXeXeXeX",
"eXn.&Xv.[.2X}.|.2X`.2.2.'.2X:X:X2X|.:X>X^.<.|.2X*X:.    + .     eXeXeXeXeXeXeXeXeXeXeXeXeXeXeXeX",
"eXW.1X'.z.|.:X2X:X:X|.;X2X:X:X:X:X:X:X:X~.`.{.`.c.eX+ + eX+     eXeXeXeXeXeXeXeXeXeXeXeXeXeXeXeX",
"eXeX(.OX] E.=X2X:X2X:X:X|.:X2X:X:X:X:X;X).z.eXeXeXeXeX@ eXeXeX. eXeXeXeXeXeXeXeXeXeXeXeXeXeXeXeX",
"eXeXeXeXeXeXeXE.).|.:X:X2X2X:X:X:X|.].~.j.i.eXeXeXeXeX+ eXeXeXeXeXeXeXeXeXeXeXeXeXeXeXeXeXeXeXeX",
"eXeXeXeXeXeXeXeXeXeXE.E.E.~.).&Xc.#./ oX5X5X@XeXeXeXeXeXeXeXeXeXeXeXeXeXeXeXeXeXeXeXeXeXeXeXeXeX",
"eXeXeXeXeXeXeXeXeXeXeXeX=.s.Q.Q._ r h.7X8X8X8XoXeXeXeXeXeXeXeXeXeXeXeXeXeXeXeXeXeXeXeXeXeXeXeXeX",
"eXeXeXeXeXeXeXeXeXeXeXeXeXh..Xf P ` #X8X0X7X7X<X) eXeXeXeXeXeXeXeXeXeXeXeXeXeXeXeXeXeXeXeXeXeXeX",
"eXeXeXeXeXeXeXeXeXeXeXeXeXw e q E ) @X8X7X7X0X%X[ m eXeXeXeXeXeXeXeXeXeXeXeXeXeXeXeXeXeXeXeXeXeX",
"eXeXeXeXeXeXeXeXeXeXeXeXeX2 2 T ^ q  X8X7X0X0XM.n m eXeXeXeXeXeXeXeXeXeXeXeXeXeXeXeXeXeXeXeXeXeX",
"eXeXeXeXeXeXeXeXeXeXeXeXeX0 y ^ I e d.7X8X8X7X<.V C e eXeXeXeXeXeXeXeXeXeXeXeXeXeXeXeXeXeXeXeXeX",
"eXeXeXeXeXeXeXeXeXeXeXeXeXeXJ E q : s.8X8X9X#X( F F c eXeXeXeXeXeXeXeXeXeXeXeXeXeXeXeXeXeXeXeXeX",
"eXeXeXeXeXeXeXeXeXeXeXeXeXeX5 u w 2 h.0X9X9X@XU F m v / eXeXeXeXeXeXeXeXeXeXeXeXeXeXeXeXeXeXeXeX",
"eXeXeXeXeXeXeXeXeXeXeXeXeXeXg p.] h.$X0X9X9X X( L K L I / eXeXeXeXeXeXeXeXeXeXeXeXeXeXeXeXeXeXeX",
"eXeXeXeXeXeXeXeXeXeXeX..%.>.f.6X.X6X8X0X6X.X] P K I I 5 x 3 eXeXeXeXeXeXeXeXeXeXeXeXeXeXeXeXeXeX",
"eXeXeXeXeXeXeXeXeXeX4.I.T.G.0.<X#X#X5XoXs.L T T I N 6 B F C ; eXeXeXeXeXeXeXeXeXeXeXeXeXeXeXeXeX",
"eXeXeXeXeXeXeXeXeXeXL.T.H.T.f.U.<Xh.s.` I L H 2 6 b Z D F Z : eXeXeXeXeXeXeXeXeXeXeXeXeXeXeXeXeX",
"eXeXeXeXeXeXeXeXeXeXeXw.t.L.f.-.m.f 4 u 5 : z C A F D D F F x eXeXeXeXeXeXeXeXeXeXeXeXeXeXeXeXeX",
"eXeXeXeXeXeXeXeXeXeXeXeXeXeXeXeXeXJ v M n Z D D D D D F F F 3 0 eXeXeXeXeXeXeXeXeXeXeXeXeXeXeXeX",
"eXeXeXeXeXeXeXeXeXeXeXeXeXeXeXeXl C Z F D F D D D D F D D Z k k v ( / d / e e / / eXeXeXeXeXeXeX",
"eXeXeXeXeXeXeXeXeXeXeXeXeXeXeXeXS D D D F D D F F D D Z Z C Z F F F Z Z A A Z n 2 1 & eXeXeXeXeX",
"eXeXeXeXeXeXeXeXeXeXeXeXeXeXv n Z D D D F D D D F D Z B B Z F F F F D D D D F j , J H w 8 > & eX",
"eXeXeXeXeXeXeXeXeXeXeX, v n A D D F V D D D F Z C Z B B V F F F D D D F F A c , r J J J J q # eX",
"eXeXeXeXeXeXeXeXeXeXx n F F F D Z F F Z M j : 3 z b z z b b M M k z z j M c > 8 r J K H H y eXeX",
"eXeXeX> > eXeXeXe G F D D F F F F C x ; > eXeXeXeXeXeXeXeXeXeXeXeXeXeXeXeXeXeX@ < u J J r 8 eXeX",
"eX8 u u w 4 1 q > z D F F D F D A U eXeXeXeXeXeXeXeXeXeXeXeXeXeXeXeXeXeXeXeXeXeXt q J J J , eXeX",
"eX< u H H H J J r x C V D Z n c eXeXeXeXeXeXeXeXeXeXeXeXeXeXeXeXeXeXeXeXeXeXeXeXeXq J J J < eXeX",
"eXeX8 y J J J J H J 3 M C c eXeXeXeXeXeXeXeXeXeXeXeXeXeXeXeXeXeXeXeXeXeXeXeXeXeXeX8 J H J < eXeX",
"eXeXeX& q J J J J J q 1 eXeXeXeXeXeXeXeXeXeXeXeXeXeXeXeXeXeXeXeXeXeXeXeXeXeXeXeXeX< q p y # eXeX",
"eXeXeXeX& i u u 4 0 7 eXeXeXeXeXeXeXeXeXeXeXeXeXeXeXeXeXeXeXeXeXeXeXeXeXeXeXeXeXeXeXeXeXeXeXeXeX",
"eXeXeXeXeXeXi < eXeXeXeXeXeXeXeXeXeXeXeXeXeXeXeXeXeXeXeXeXeXeXeXeXeXeXeXeXeXeXeXeXeXeXeXeXeXeXeX"
};
