/* XPM */
static char *result[] = {
/* columns rows colors chars-per-pixel */
"48 48 217 2 ",
"   c #020202",
".  c #0B0A0A",
"X  c #090807",
"o  c #1B0F09",
"O  c #1B0906",
"+  c #1D120D",
"@  c #13190C",
"#  c #1C1B1A",
"$  c #191715",
"%  c #2D0B07",
"&  c #240A05",
"*  c #320D07",
"=  c #320E0B",
"-  c #3F0F0A",
";  c #24150D",
":  c #29160C",
">  c #2A180E",
",  c #2F1105",
"<  c #34120C",
"1  c #3C140C",
"2  c #341D0F",
"3  c #3B1E0F",
"4  c #3D1007",
"5  c #261A12",
"6  c #2E1C12",
"7  c #261716",
"8  c #341514",
"9  c #321D11",
"0  c #3C1B12",
"q  c #361D19",
"w  c #1F2811",
"e  c #39220E",
"r  c #222B15",
"t  c #2A2417",
"y  c #352213",
"u  c #3A2212",
"i  c #32241B",
"p  c #3A2618",
"a  c #2E3B1C",
"s  c #2C3819",
"d  c #373C19",
"f  c #392923",
"g  c #2F3B21",
"h  c #3F3122",
"j  c #3E342E",
"k  c #313A25",
"l  c #3C3433",
"z  c #3E3831",
"x  c #292B29",
"c  c #44120B",
"v  c #4C130B",
"b  c #44190B",
"n  c #5C1307",
"m  c #541209",
"M  c #5B140A",
"N  c #5E190E",
"B  c #441C13",
"V  c #4D1914",
"C  c #561B11",
"Z  c #5B1B11",
"A  c #641307",
"S  c #6D1607",
"D  c #64150A",
"F  c #6B1509",
"G  c #64190E",
"H  c #6E180A",
"J  c #731606",
"K  c #731608",
"L  c #621B13",
"P  c #43240F",
"I  c #49200E",
"U  c #422411",
"Y  c #452B13",
"T  c #4D2B15",
"R  c #4D2D19",
"E  c #462617",
"W  c #542E14",
"Q  c #582E16",
"!  c #542F19",
"~  c #4C3A19",
"^  c #563115",
"/  c #5B3215",
"(  c #593619",
")  c #613315",
"_  c #46372D",
"`  c #493531",
"'  c #622C26",
"]  c #34431E",
"[  c #36491F",
"{  c #384F1D",
"}  c #344221",
"|  c #394B23",
" . c #3C5222",
".. c #57421D",
"X. c #4D471E",
"o. c #4D4B20",
"O. c #49472B",
"+. c #495F2A",
"@. c #455828",
"#. c #565624",
"$. c #494737",
"%. c #584233",
"&. c #574638",
"*. c #475934",
"=. c #664B3A",
"-. c #69523E",
";. c #4D622D",
":. c #5E6A2C",
">. c #586729",
",. c #5C742D",
"<. c #4F6830",
"1. c #576D38",
"2. c #566A36",
"3. c #5A7633",
"4. c #606C2E",
"5. c #61742D",
"6. c #606731",
"7. c #626932",
"8. c #636B39",
"9. c #667B32",
"0. c #65783A",
"q. c #4D4A48",
"w. c #594945",
"e. c #5C5451",
"r. c #654F41",
"t. c #6C5440",
"y. c #685748",
"u. c #775A46",
"i. c #635D5A",
"p. c #636F59",
"a. c #7B6457",
"s. c #7A6047",
"d. c #626261",
"f. c #6A6662",
"g. c #78736F",
"h. c #7E7672",
"j. c #7B7977",
"k. c #737070",
"l. c #7D6861",
"z. c #81664D",
"x. c #8F6E4E",
"c. c #906F52",
"v. c #8E7056",
"b. c #947255",
"n. c #977457",
"m. c #896C52",
"M. c #A57C58",
"N. c #987B66",
"B. c #847570",
"V. c #648336",
"C. c #6A8438",
"Z. c #6C8C3B",
"A. c #6B8836",
"S. c #6F913B",
"D. c #71963D",
"F. c #749B3D",
"G. c #789D3E",
"H. c #71883C",
"J. c #77A13F",
"K. c #7AA53E",
"L. c #7BA93E",
"P. c #6D8B41",
"I. c #6B8048",
"U. c #769B41",
"Y. c #769742",
"T. c #7BA441",
"R. c #7CA841",
"E. c #AD845E",
"W. c #B2865F",
"Q. c #95857E",
"!. c #A88463",
"~. c #BA8D77",
"^. c #C08F65",
"/. c #C2956A",
"(. c #C7996D",
"). c #C49971",
"_. c #C79E79",
"`. c #CCA27D",
"'. c #D4A375",
"]. c #DAA97B",
"[. c #E4AD7C",
"{. c #E1AA75",
"}. c #ECB37E",
"|. c #E7B17E",
" X c #8B8A88",
".X c #928C88",
"XX c #9C9594",
"oX c #9A9A97",
"OX c #A69283",
"+X c #BDA693",
"@X c #A7A6A4",
"#X c #ADAFAE",
"$X c #AEB0AC",
"%X c #B1B1AE",
"&X c #BAB8B7",
"*X c #B8B7B7",
"=X c #B9ACA3",
"-X c #CB9E90",
";X c #D3A780",
":X c #E3AF81",
">X c #E6B282",
",X c #F5BA84",
"<X c #FCBD84",
"1X c #FCBE89",
"2X c #F3B786",
"3X c #E2B39E",
"4X c #E3AE9A",
"5X c #FDC088",
"6X c #F8C394",
"7X c #F9D5BB",
"8X c #CDCDCD",
"9X c #C9C6C6",
"0X c #D3CECD",
"qX c #D4D4D4",
"wX c #D6D7D5",
"eX c #F7EFEE",
"rX c None",
/* pixels */
"rXrXrXrXrXrXrXrXrXrXrXrXrXrXrXrXrXrXrXrXrXrXrXrXrX]  .@.@.;.;.;.@.] } k k rXrXrXrXrXrXrXrXrXrXrX",
"rXrXrXrXrXrXrXrXrXrXrXrXrXrXrXrXrXrXrXrXrX . .<.V.S.D.F.J.J.J.L.J.G.F.S.Z.P.1.rXrXrXrXrXrXrXrXrX",
"rXrXrXrXrXrXrXrXrXrXrXrXrXrXrXrXrXrXrX| ,.Z.K.K.L.K.K.K.K.K.K.K.K.K.K.K.T.K.K.P.*.rXrXrXrXrXrXrX",
"rXrXrXrXrXrXrXrXrXrXrXrXrXrXrXrXrXrX<.D.L.K.K.K.T.K.K.K.K.K.K.K.K.K.K.K.J.K.K.R.D.@.rXrXrXrXrXrX",
"rXrXrXrXrXrXrXrXrXrXrXrXrXrXrXrXrXO.8.9.C.S.F.F.G.K.K.K.L.L.K.K.K.K.K.K.K.K.L.L.K.G.,.rXrXrXrXrX",
"rXrXrXrXrXrXrXrXrXrXrXrXrXrXrXrXrX! ( ^ ( ( ~ X.X.#.>.5.9.A.S.D.K.K.L.L.L.L.L.L.L.K.F.{ rXrXrXrX",
"rXrXrXrXrXrXrXrXrXrXrXrXrXrXrXrX5 T Q / / ) ) / ) / Q / ^ Y p d #.:.5.,.C.9.,.V.V.V.A.@.q.d.q.rX",
"rXrXrXrXrXrXrXrXrXrXrXrXrXrXrXrX@.4.#.o.X.~ ~ T ^ Q W W ^ ^ / / W / Q ^ ^ T Y e e y y t z @X XrX",
"rXrXrXrXrXrXrXrXrXrXrXrXrXrXrX| D.L.L.L.J.F.Z.V.5.:.>.:.8.4.#.#.#...~ ( ( ( W W Q W Q R ; k.oXrX",
"rXrXrXrXrXrXrXrXrXrXrXrXrXrXrXa V.F.L.!.K.K.K.R.L.L.R.R.K.R.T.T.T.F.Z.Y.H.9.,.<.7.7.7.7.O.x .Xd.",
"rXrXrXrXrXrXrXrXrXrXrXrXrXrXrX$ @ s @.3.Z.F.T.U.T.T.T.T.J.J.T.G.T.U.U.S.U.!.L.J.R.R.R.R.3.x rXrX",
"rXrXrXrXrXrXrXrXrXrXrXrXrXrXrXX         @ r s a ] ] a a a s ] s r w w w r k { { @.+.<.1.$.rXrXrX",
"rXrXrXrXrXrXrXrXrXrXrXrXrXrXrXX                                     . 7 X             X # rXrXrX",
"rXrXrXrXrXrXrXrXrXrXrXrXrXrXrX        X               X d m.%.    + b.;X-.              X rXrXrX",
"rXrXrXrXrXrXrXrXrXrXrXrXrXrXrX.                     X -.:X1X]._ t a.n.u.t.+     X j #     rXrXrX",
"rXrXrXrXrXrXrXrXrXrXrXrXrXrXrXX           _ i     . &.[.1X<X<X_.=X0X9Xf.b.s.X   %._.&.rX  X rXrX",
"rXrXrXrXrXrXrXrXrXrXrXrXrXrXrXX           b.).i   &.'.1X}.}.5X5X7XeXeXg.b.|.p y '.2Xu.rXrXrXrXrX",
"rXrXrXrXrXrXrXrXrXrXrXrXrXrXrXX         . E.5X/.h v.<X1X5X5X<X<X6X+Xp.l x.<XM.W.5X[.u.a.rXrXrXrX",
"rXrXrXrXrXrXrXrXrXrXrXrXrXrXrXX   . X   # !.>X5X/.n.1X<X<X<X}.<X<X|.W.W.}.<X,X,X1XM.~.3Xm.rXrXrX",
"rXrXrXrXrXrXrXrXrXrXrXrXrXrXX   X rX. . rXrXrX!._.W.,X1X<X<X5X5X<X5X5X5X<X<X1X1X/.=.4X-XrXrXrXrX",
"rXrXrXrXrXrXrXrXrXrXrXrXrXrXrXrXrXrX. . rXrXrXrXf s.'.<X5X<X}.5X5X<X<X}.<X,X[._.t.w.N.rXrXrXrXrX",
"rXrXrXrXrXrXrXrXrXrXrXrXrXrXrXrXrXrXrXrXrXrXrXrX XoXQ.z.M.'.<X}.}.|.|.{.(.b.rXrXrXrXrXrXrXrXrXrX",
"rXrXrXrXrXrXrXrXrXrXrXrXrXrXrXrXrXrXrXrXrXrXrX%XqXwX8Xi.e &.~.!.u.=.rXrXrXrXrXrXrXrXrXrXrXrXrXrX",
"rXrXrXrXrXrXrXrXrXrXrXrXrXrXrXrXrXrXrXrXrXrXB.wXqXqXwX%X_ p e.#Xj.rXrXrXrXrXrXrXrXrXrXrXrXrXrXrX",
"rXrXrXrXrXrXrXrXrXrXrXrXrXrXrXrXrXrXrXrXrXV .XwXqXqXqX9Xe.^ y w.` rXrXrXrXrXrXrXrXrXrXrXrXrXrXrX",
"rXrXrXrXrXrXrXrXrXrXrXrXrXrXrXrXrXrXrXrXB D u.0XqXqXqX*X_ ^ T , 1 rXrXrXrXrXrXrXrXrXrXrXrXrXrXrX",
"rXrXrXrXrXrXrXrXrXrXrXrXrXrXrXrXrXrXrXrXB F ' &XqXqXqXXXq ! ) 9 8 rXrXrXrXrXrXrXrXrXrXrXrXrXrXrX",
"rXrXrXrXrXrXrXrXrXrXrXrXrXrXrXrXrXrXrX= M J Z XXqXqXwXh.8 U / T + rXrXrXrXrXrXrXrXrXrXrXrXrXrXrX",
"rXrXrXrXrXrXrXrXrXrXrXrXrXrXrXrXrXrXrXE G S A B.wXqXwX X* 1 W E rXrXrXrXrXrXrXrXrXrXrXrXrXrXrXrX",
"rXrXrXrXrXrXrXrXrXrXrXrXrXrXrXrXrXrXE E I Z L a.qXqXqX%X` f i i rXrXrXrXrXrXrXrXrXrXrXrXrXrXrXrX",
"rXrXrXrXrXrXrXrXrXrXrXrXrXrXrXrXrXp U ! W P E $.#XqXwXwX&Xj. Xd.a rXrXrXrXrXrXrXrXrXrXrXrXrXrXrX",
"rXrXrXrXrXrXrXrXrXrXrXrXrXrXrXrX= D m 0 E W Q R _ h.&XwX8X@X8Xp.C.Z.3.[ rXrXrXrXrXrXrXrXrXrXrXrX",
"rXrXrXrXrXrXrXrXrXrXrXrXrXrXrXrXv J K F c - b W W R -..XoX%X%X1.T.T.R.0.rXrXrXrXrXrXrXrXrXrXrXrX",
"rXrXrXrXrXrXrXrXrXrXrXrXrXrXrXrXn J J J K A v 4 < 3 U U _ oXd.2.Y.Y.S.I.rXrXrXrXrXrXrXrXrXrXrXrX",
"rXrXrXrXrXrXrXrXrXrXrXrXrXrXrX; m J K K J J J F n v b P u z rXrXrXrXrXrXrXrXrXrXrXrXrXrXrXrXrXrX",
"rXrXrXrXrXrXrXj 7 f l l q.` 8 = m J J K J J K K J J S G Z 1 rXrXrXrXrXrXrXrXrXrXrXrXrXrXrXrXrXrX",
"rXrXrXrXrX; 0 Z M G Z Z Z D F D n F K K K K K J J K J J K M rXrXrXrXrXrXrXrXrXrXrXrXrXrXrXrXrXrX",
"rXo ; > 9 0 < n J J J J J J J K F A A K J J J K K K K J K H Z rXrXrXrXrXrXrXrXrXrXrXrXrXrXrXrXrX",
"o > U U U U 2 , D K J J J J J J K F A n A F J J J J J K K J H D V 8 rXrXrXrXrXrXrXrXrXrXrXrXrXrX",
"rX9 P U E P u > < F A n D A F F F F D A n n m m m D J K K K J K S D v = rXrXrXrXrXrXrXrXrXrXrXrX",
"rX> Y P P u > + + 8 & O O & & % = % rX& % = % o + < - m F J K K K J J D Z rXrXrXrXrXrXrXrXrXrXrX",
"rX: U P U y 7 rXrXrXrXrXrXrXrXrXrXrXrXrXrXrXrXrXrXrXrXrXV H J J K J J J m : 5 + : 9 2 9 rXrXrXrX",
"rX: U P U 9 rXrXrXrXrXrXrXrXrXrXrXrXrXrXrXrXrXrXrXrXrXrXrXC M F J J K H c 2 U 0 U P P u ; rXrXrX",
"rX> u P U 9 rXrXrXrXrXrXrXrXrXrXrXrXrXrXrXrXrXrXrXrXrXrXrXrXrX- m F A c 3 P U U U U u > rXrXrXrX",
"rX; y U u ; rXrXrXrXrXrXrXrXrXrXrXrXrXrXrXrXrXrXrXrXrXrXrXrXrXrXrXc b 0 U U U U U 9 ; rXrXrXrXrX",
"rXrXrXrXrXrXrXrXrXrXrXrXrXrXrXrXrXrXrXrXrXrXrXrXrXrXrXrXrXrXrXrXrXrXrX7 9 u U U u o rXrXrXrXrXrX",
"rXrXrXrXrXrXrXrXrXrXrXrXrXrXrXrXrXrXrXrXrXrXrXrXrXrXrXrXrXrXrXrXrXrXrXrXrX: 9 i rXrXrXrXrXrXrXrX",
"rXrXrXrXrXrXrXrXrXrXrXrXrXrXrXrXrXrXrXrXrXrXrXrXrXrXrXrXrXrXrXrXrXrXrXrXrXrXrXrXrXrXrXrXrXrXrXrX"
};
