/* XPM */
static char *_1e8337e000b45929894c9aa4e6d693fu6jfdRNnnnRPKsGJ[] = {
/* columns rows colors chars-per-pixel */
"48 48 188 2 ",
"   c None",
".  c #010000",
"X  c #0C0204",
"o  c #0F0901",
"O  c #0F0108",
"+  c #130205",
"@  c #170903",
"#  c #1D0F04",
"$  c #15020A",
"%  c #1D0509",
"&  c #1B0505",
"*  c #100010",
"=  c #1E0112",
"-  c #1D0219",
";  c #220006",
":  c #290007",
">  c #230D07",
",  c #24050C",
"<  c #2A040C",
"1  c #260C09",
"2  c #2C090C",
"3  c #330209",
"4  c #3B030B",
"5  c #360E09",
"6  c #3D0D0B",
"7  c #211403",
"8  c #261904",
"9  c #2B1109",
"0  c #3C1708",
"q  c #341909",
"w  c #240513",
"e  c #2B0412",
"r  c #2A021B",
"t  c #320413",
"y  c #380210",
"u  c #340913",
"i  c #3E0C15",
"p  c #33021F",
"a  c #330C1C",
"s  c #380D18",
"d  c #361D1F",
"f  c #230321",
"g  c #3D0524",
"h  c #3D0E25",
"j  c #2D1323",
"k  c #3D1022",
"l  c #43030D",
"z  c #49010B",
"x  c #45090A",
"c  c #4E0D0E",
"v  c #56050E",
"b  c #5A040C",
"n  c #510F0B",
"m  c #5F0D0E",
"M  c #44140C",
"N  c #44180C",
"B  c #49150D",
"V  c #54150D",
"C  c #551F0E",
"Z  c #4A0212",
"A  c #450A15",
"S  c #4C0D16",
"D  c #45051D",
"F  c #470F1A",
"G  c #4B0B1A",
"H  c #4C051B",
"J  c #520710",
"K  c #580410",
"L  c #540D1B",
"P  c #5D0D1B",
"I  c #5D061A",
"U  c #4B1C12",
"Y  c #4D121B",
"T  c #561016",
"R  c #5E1917",
"E  c #5E111E",
"W  c #58191D",
"Q  c #62050D",
"!  c #6E040E",
"~  c #70060F",
"^  c #6A0712",
"/  c #620816",
"(  c #680F16",
")  c #630C19",
"_  c #6C0C1C",
"`  c #67161C",
"'  c #651A1C",
"]  c #6E1E1A",
"[  c #611D14",
"{  c #7E141F",
"}  c #4A2B0E",
"|  c #4C2819",
" . c #552718",
".. c #582718",
"X. c #63241F",
"o. c #673E1F",
"O. c #4C0424",
"+. c #410D25",
"@. c #430622",
"#. c #570624",
"$. c #570C25",
"%. c #590923",
"&. c #540729",
"*. c #5C052F",
"=. c #5C1122",
"-. c #581D27",
";. c #57182B",
":. c #630F21",
">. c #6C0E27",
",. c #64052D",
"<. c #68072F",
"1. c #700A24",
"2. c #651023",
"3. c #6C1223",
"4. c #681D27",
"5. c #721124",
"6. c #7C1625",
"7. c #731824",
"8. c #7D1529",
"9. c #630630",
"0. c #5C2320",
"q. c #562B25",
"w. c #612725",
"e. c #682E24",
"r. c #64202F",
"t. c #632B28",
"y. c #662D23",
"u. c #742022",
"i. c #792123",
"p. c #702B22",
"a. c #6C3223",
"s. c #643A26",
"d. c #663A28",
"f. c #6D3A2F",
"g. c #7A3A24",
"h. c #6E432B",
"j. c #734126",
"k. c #724529",
"l. c #810F14",
"z. c #8C151E",
"x. c #87181F",
"c. c #841627",
"v. c #83152B",
"b. c #8B172B",
"n. c #841A29",
"m. c #8F1E2A",
"M. c #991F26",
"N. c #931D2C",
"B. c #971D31",
"V. c #9B1F34",
"C. c #8D2423",
"Z. c #92242F",
"A. c #9C242C",
"S. c #852930",
"D. c #9C2B32",
"F. c #803735",
"G. c #823C34",
"H. c #A2262F",
"J. c #A42B2D",
"K. c #AF2E2C",
"L. c #B62F2F",
"P. c #B1322B",
"I. c #AA2631",
"U. c #B32C33",
"Y. c #BB2E35",
"T. c #A03138",
"R. c #BD3735",
"E. c #BC3834",
"W. c #C33735",
"Q. c #C23B36",
"!. c #C83F34",
"~. c #C43038",
"^. c #CA3439",
"/. c #CA3F39",
"(. c #83582B",
"). c #885A2C",
"_. c #864C30",
"`. c #914C37",
"'. c #AE5B35",
"]. c #996D2D",
"[. c #976432",
"{. c #9F6234",
"}. c #A1742F",
"|. c #AF6631",
" X c #CD4337",
".X c #CF4338",
"XX c #D64A3A",
"oX c #D84A3A",
/* pixels */
"                                                                                                ",
"                                                                                                ",
"                                              .                                                 ",
"                                              . .                                               ",
"                                              . .                                               ",
"                                              + .                                               ",
"                                              X .                                               ",
"                                              +                                                 ",
"                                              +                                                 ",
"                                              @                                                 ",
"                                            $ 1 &                                               ",
"                                            : q 4                                               ",
"                                            4 2 l                                               ",
"                                            l C v                                               ",
"                                          ; b n v <                                             ",
"                                          < Q 5 b K                                             ",
"                                        . 4 L  .Q I                                             ",
"                                        . 4 t.U z L j                                           ",
"                                        . a w.c x G d                                           ",
"                                        . | p.V M L o.                                          ",
"                                      . . U X.N V L a.                                          ",
"                                      . . q.` 5 m 0.y.                                          ",
"                                      . + d.` N c a.g.                                          ",
"                                      . $ h.' } B g.g.                                          ",
"                                      . s ].' N 6 g.e.l                                         ",
"                                      * +.].-...R _.j.Z                                         ",
"                                L G   p g ).G.W P G.k.H                                         ",
"                                2.:.%.,.&.}.`.Y =.|.(.&.                                        ",
"                                  8.>.,.9.[.G.0.4.|.).<.                                        ",
"                                  2.v.,.*._.F.0.4.{.k.*.                                        ",
"                    Y.~.    n.    G >.v.,.S.T.;.;.'.s.O.                                        ",
"              G E A.Y.^.N.8.N.N.E A D #.1.A./.D.D.Q.r.g @.                                      ",
"          ,   G E m.Y.^.b.v.7.7.G X X t I M. X/..XR.4.f -                                       ",
"        t % S i         n.6.% % @ . . e G x. XoXoXM.3.w X                                       ",
"        e 2 A       H.U.n.S . . . . X < u ( Q.oX!.{ =.2 X                                       ",
"      O.e i u       H.U.5.% . . . . X , 2 [ K.oXP.] Y 2 X . . . . .                             ",
"      D , u         A.I.D . . . . . X , 2 s.C.!.C.f.k , O . . . . . .                           ",
"      D $               X . . . . . X w < w P l.~ =.h w $ . . . .                               ",
"      D                 . . . . . . ; r - + L ! ^ $.a r : . .                                   ",
"    #.                  . . . . . . : t - . A ~ ^ i , e 3 X                                     ",
"    :.                  . . . . . . : l = . T z.z.l $ y 4 .                                     ",
"                          . . . . . ; z 3 . u.W.L.4 + 4 4 .                                     ",
"                        . . . . . . % _ l . i.E.J.< + / G . .                                   ",
"  7.                    . . . . . . A B.6.+ F Z.n.2 3 N.v., .                                   ",
"  F                     . . . . . . ) N.N.< u V.n.+ L V.b.4 .                                   ",
"                        . . . . . X 6 ) 3., X 5.J . S c.S 6                                     ",
"                          . . . . o 7 1 > @ . + + . 0 N 9 q                                     ",
"                                    . 7 o X . . . . 8 # >                                       "
};
