/* XPM */
static char *result[] = {
/* columns rows colors chars-per-pixel */
"48 48 97 2 ",
"   c #010102",
".  c #0E0C05",
"X  c #0C0A09",
"o  c #110E09",
"O  c #1A1604",
"+  c #1B1804",
"@  c #151209",
"#  c #1A160A",
"$  c #1E1A09",
"%  c #231E04",
"&  c #221D0B",
"*  c #262107",
"=  c #2A2504",
"-  c #2E2804",
";  c #262108",
":  c #2B250A",
">  c #2E280C",
",  c #342C07",
"<  c #332C0B",
"1  c #3A320B",
"2  c #453C05",
"3  c #493F02",
"4  c #403709",
"5  c #453B0B",
"6  c #493F0B",
"7  c #4C4204",
"8  c #4D430A",
"9  c #504605",
"0  c #544905",
"q  c #5A4E06",
"w  c #524709",
"e  c #544909",
"r  c #594D09",
"t  c #5C5004",
"y  c #5E5109",
"u  c #615503",
"i  c #675A05",
"p  c #685A03",
"a  c #62550A",
"s  c #6B5C0B",
"d  c #6E6003",
"f  c #6E600D",
"g  c #736404",
"h  c #7B6B05",
"j  c #766609",
"k  c #78670A",
"l  c #776808",
"z  c #7C6B0A",
"x  c #816F03",
"c  c #816F0B",
"v  c #857304",
"b  c #887504",
"n  c #8D7B05",
"m  c #82710B",
"M  c #8C7A09",
"N  c #927E04",
"B  c #937F09",
"V  c #948104",
"C  c #9A8504",
"Z  c #9E8803",
"A  c #958109",
"S  c #9A860A",
"D  c #9F8A0B",
"F  c #A48E03",
"G  c #A18B09",
"H  c #A69002",
"J  c #A99102",
"K  c #AB940C",
"L  c #B49B04",
"P  c #B69D09",
"I  c #B19B10",
"U  c #BBA305",
"Y  c #BCA30B",
"T  c #C0A606",
"R  c #C5AB06",
"E  c #CAAE03",
"W  c #CEB305",
"Q  c #CDB40D",
"!  c #D2B503",
"~  c #D6BC06",
"^  c #DDBF04",
"/  c #D6BD0A",
"(  c #DFC101",
")  c #DFC30C",
"_  c #E3C402",
"`  c #E7C902",
"'  c #EBCB02",
"]  c #E6CA08",
"[  c #E9CD08",
"{  c #EFD105",
"}  c #F5D502",
"|  c #F8D702",
" . c #F7D803",
".. c #FDDD02",
"X. c #F0D208",
"o. c #FFE102",
"O. c None",
/* pixels */
"O.O.O.O.O.O.O.O.O.O.O.O.O.O.O.O.O.O.O.O.O.O.O.O.O.O.O.O.O.O.O.O.O.O.O.O.O.O.O.O.O.O.O.O.O.O.O.O.",
"O.O.O.O.O.O.O.O.O.O.O.O.O.O.O.O.O.O.O.O.                O.O.O.O.O.O.O.O.O.O.O.O.O.O.O.O.O.O.O.O.",
"O.O.O.O.O.O.O.O.O.O.O.O.O.O.O.O.O.O.O.= = = = = : = = = = O.O.O.O.O.O.O.O.O.O.O.O.O.O.O.O.O.O.O.",
"O.O.O.O.O.O.O.O.O.O.O.O.O.O.O.      : / ` ` ` ` ` [ ` [ / :       O.O.O.O.O.O.O.O.O.O.O.O.O.O.O.",
"O.O.O.O.O.O.O.O.O.O.O.O.    0 V N N F ' | | | | | | | | { H A A A 9     O.O.O.O.O.O.O.O.O.O.O.O.",
"O.O.O.O.O.O.O.O.O.O.O.: , , M ....o.| ' _ ' ` ` ` _ ` ` ' | o...o.M , , > O.O.O.O.O.O.O.O.O.O.O.",
"O.O.O.O.O.O.O.O.O.O.  a X.X.{ ' ' ' ' ~ ! ! ! ! ! ! ! ! ! ' ' ' { { { X.a   O.O.O.O.O.O.O.O.O.O.",
"O.O.O.O.O.O.O.O.O.X M W ..| } ' _ _ R 9 2 2 2 2 2 2 2 2 9 R _ _ ' X.| o.W M   O.O.O.O.O.O.O.O.O.",
"O.O.O.O.O.O.O.O.> e / o.| ` _ ^ G C z * + + + + O + + + * m V G ( _ ' | o.~ w : O.O.O.O.O.O.O.O.",
"O.O.O.O.O.O.O.  e  ...| ' W E P ;   + t u u u u u t u t t O   & P E W ' | .. .e   O.O.O.O.O.O.O.",
"O.O.O.O.O.O.  M ~ ..| ` W 9 , , 2 7 9 h v h v h v v h v h 9 7 3 , - 7 ! ' X...~ n   O.O.O.O.O.O.",
"O.O.O.O.O.: a W o.| ' U l , % = i g h V C b y r q q b C V h g p = * , l U ' | o.W a : O.O.O.O.O.",
"O.O.O.O.  , X.o.| ' ! j . 9 u p b n n C Z l o @ @ . j Z C v v v p u 9 . j ! ' | o.X.,   O.O.O.O.",
"O.O.O.O.  , X.| ' W 9 , 9 q d v C F n , ; # X S S X $ % % % a Z b d t 9 , 7 ! ' | { ,   O.O.O.O.",
"O.O.O.O.9 M ' } _ E - % u d v C F b 0 o 8 l l ( ( l j j s # 0 F C h d u % - E _ X.{ M 9 O.O.O.O.",
"O.O.O.  A o.' ' ^ P , = p b V F S 8 X & D ] ]  . .] ] ] / > 0 J F C b i - , P ( ' ' o.A   O.O.O.",
"O.O.O.  N ..' _ G % 2 p v G F G 1 o > Q f : < R R > : : : X e H J F Z v p 3 % G _ { ..N   O.O.O.",
"O.O.O.  B ..' _ B   3 g b F v 6 o 8 M z s 5 o U U o 5 q r r h H U L F b g 3 X B ( ' ..N   O.O.O.",
"O.O.O.> F ..' E m % 0 h N F u X > M Y > l v @ U U @ z L U L U U ! L F N h 0 O c R ' ..F : O.O.O.",
"O.O.% / { ` ! 3 & t x N F J a & Q m > B F c @ Y U @ z E | X.' _ ! L F F N h q = w ! ' ' / = O.O.",
"O.  = ' | ` ! 2 % u x N F J u @ r z m 6 m m @ U U @ c L W } | X.` ! L J C x u O 2 ! ` | ' =   O.",
"O.  = ' | ` ! 2 O t x N J L x & X r B 5 s a @ U U @ a h m ~ X.| ' ( ! J V x u + 2 ! _ | ` =   O.",
"O.  = ` | _ ! 2 O u x N J E T B & o < Y r o @ Y U @ @ @ $ M W } ' ( E J V x u + 2 ! ` | ' =   O.",
"O.  * ' | _ ! 2 O u x G J E ! W m 1 > R I B C _ { U U j X - l E ` ( E J C x u O 2 ! ` | ` =   O.",
"O.  = ` | ` ! 2 O u x C J E ( ' E k 6 M C S C ~ _ U U A 8 @ 1 b W ! T J N x u O 2 ! _ | ` =   O.",
"O.  = [ | _ ! 2 O u x N J E ( ' } W M % o o @ C S @ @ s ) 1 X ; N J J F C x u O 2 ! ` } ` =   O.",
"O.  = ` | ' ! 2 O u x N J E ( ' } { ~ v c a o C C @ z z 8 I s X : j J F N x u O 2 ! ` | ] =   O.",
"O.  = ` | _ ! 2 O u x C J T ! _ } | X.W L c @ C C @ G K r S M e . a J F C x u O 2 ! ` | [ =   O.",
"O.O.= / ' ' ! w & q x N F F L ! _ { { } R l @ C S @ D Q I 1 z Q & a F F V h q ; 9 ! ' ' / = O.O.",
"O.O.O.= F | ' R c O 0 g N F T ! P L L P L c @ C C # G D 1 D z > . a F N h 9 O c R ' ..F = O.O.O.",
"O.O.O.  N o.{ ( B . 3 g n F L L J x y q y 5 o C A @ r f f f 5 o 9 v F n g 3   S _ X.o.B   O.O.O.",
"O.O.O.  A ..{ ( G % 3 p b N F F J r X & ; ; : G Z : & r I > o < C F Z b p 2 ; Z _ ' ..A   O.O.O.",
"O.O.O.  V o.' ' ( P , = p v C F J 0 : I T T T E E T T m & X 6 G F N b p = , P ( ' ' ..V   O.O.O.",
"O.O.O.O.9 M X.X._ E = % i g x C F r @ r y y a L P a a 5 . r v F N v d p % - E _ } } n 0 O.O.O.O.",
"O.O.O.O.  , X. .' ! 7 , 9 t p b F q & % % & . x x X & % , B F G b d t 0 , 9 ! ` } { ,   O.O.O.O.",
"O.O.O.O.  , X.o.| ' ! k . 9 i p b v v C G j o o o o j Z N n n b p p 3 . j ! ` | ..{ ,   O.O.O.O.",
"O.O.O.O.O.: a W o.| ' U l , % = p g h V C b q 0 r r b Z N l g d - % , h Y ' | ..Q a : O.O.O.O.O.",
"O.O.O.O.O.O.  M ~ | | ' ! 9 = , 3 7 9 h x x v v x v x x x 0 3 6 - - 6 ! ` | ../ M   O.O.O.O.O.O.",
"O.O.O.O.O.O.O.  w  ...| ' ! E P &   O q u u u u u u u u q O   % P E ! ' | ..} e   O.O.O.O.O.O.O.",
"O.O.O.O.O.O.O.O.: w ~ ..| ' _ _ G V c * O O O O + + + O % c B G ( _ ' | ..~ w : O.O.O.O.O.O.O.O.",
"O.O.O.O.O.O.O.O.O.X M W ..| X.' _ _ R 9 2 2 2 2 2 2 2 2 9 R ( _ ' X.| o.! n   O.O.O.O.O.O.O.O.O.",
"O.O.O.O.O.O.O.O.O.O.  a X.X.X.' { ' ' ! ! ! ! ! ! ! W ! ~ ' ' ' ' { { { a   O.O.O.O.O.O.O.O.O.O.",
"O.O.O.O.O.O.O.O.O.O.O.: , , n o.o...| ' _ ` ` _ _ ' _ ' ' ....o.o.n , , : O.O.O.O.O.O.O.O.O.O.O.",
"O.O.O.O.O.O.O.O.O.O.O.O.    9 A A A F ' | | | | | | | | ' F V A A 0     O.O.O.O.O.O.O.O.O.O.O.O.",
"O.O.O.O.O.O.O.O.O.O.O.O.O.O.O.      = / [ ` ] ` ` ` ` ` / =       O.O.O.O.O.O.O.O.O.O.O.O.O.O.O.",
"O.O.O.O.O.O.O.O.O.O.O.O.O.O.O.O.O.O.O.= = = = = = = = = = O.O.O.O.O.O.O.O.O.O.O.O.O.O.O.O.O.O.O.",
"O.O.O.O.O.O.O.O.O.O.O.O.O.O.O.O.O.O.O.O.                O.O.O.O.O.O.O.O.O.O.O.O.O.O.O.O.O.O.O.O.",
"O.O.O.O.O.O.O.O.O.O.O.O.O.O.O.O.O.O.O.O.O.O.O.O.O.O.O.O.O.O.O.O.O.O.O.O.O.O.O.O.O.O.O.O.O.O.O.O."
};
