/* XPM */
static char *_516957ae45d4839ad60c5dee91f67c28X9ZCopCn0dSoUgK[] = {
/* columns rows colors chars-per-pixel */
"48 48 217 2 ",
"   c #508E21",
".  c #4A9E25",
"X  c #579724",
"o  c #5D9A23",
"O  c #55932B",
"+  c #5A952E",
"@  c #569C2B",
"#  c #5D9B2C",
"$  c #549532",
"%  c #5C9B33",
"&  c #5A9C38",
"*  c #639D2B",
"=  c #669E25",
"-  c #639F34",
";  c #5EA12C",
":  c #5FAE2F",
">  c #5EA525",
",  c #5FA531",
"<  c #5FA239",
"1  c #5CA83C",
"2  c #59B23C",
"3  c #62A123",
"4  c #62A22C",
"5  c #6AA52D",
"6  c #67AC2F",
"7  c #6CAD2C",
"8  c #6BAA26",
"9  c #71AF26",
"0  c #71AD2D",
"q  c #68B026",
"w  c #78B826",
"e  c #73B32E",
"r  c #7AB32C",
"t  c #7DBC2E",
"y  c #64A334",
"u  c #6BA631",
"i  c #6CAA33",
"p  c #65A43B",
"a  c #6CA53B",
"s  c #6CAC3C",
"d  c #64AA3A",
"f  c #72AD34",
"g  c #72AD3B",
"h  c #7DAF34",
"j  c #6EB235",
"k  c #6BB23C",
"l  c #74B334",
"z  c #79B435",
"x  c #7DBB33",
"c  c #75B33B",
"v  c #79B43C",
"b  c #76BC3B",
"n  c #7CBC3C",
"m  c #7BC42D",
"M  c #7DC13D",
"N  c #5D9B45",
"B  c #679E40",
"V  c #64A344",
"C  c #6CA543",
"Z  c #6EAF44",
"A  c #72AC43",
"S  c #70AB4D",
"D  c #74B343",
"F  c #7BB543",
"G  c #76B844",
"H  c #7DBB42",
"J  c #74B648",
"K  c #7CBC4B",
"L  c #7BB348",
"P  c #6CB156",
"I  c #7DBB58",
"U  c #7EC443",
"Y  c #7BC04C",
"T  c #7FC153",
"R  c #84BB2E",
"E  c #86BC28",
"W  c #81B532",
"Q  c #83BC34",
"!  c #8ABD34",
"~  c #84BD3B",
"^  c #8ABD3C",
"/  c #83B53C",
"(  c #86C32B",
")  c #8AC32D",
"_  c #8CCA2E",
"`  c #94CB2F",
"'  c #97D42F",
"]  c #85C135",
"[  c #8BC434",
"{  c #8BCA35",
"}  c #85C33C",
"|  c #8BC43C",
" . c #85CA3C",
".. c #8DC93C",
"X. c #92C537",
"o. c #92CD35",
"O. c #92C53C",
"+. c #9AC739",
"@. c #92CB3C",
"#. c #98CF3D",
"$. c #9BC935",
"%. c #8ED032",
"&. c #8AD03C",
"*. c #93D23C",
"=. c #99D03F",
"-. c #99D132",
";. c #82B643",
":. c #82BC43",
">. c #8BBD43",
",. c #84BD4B",
"<. c #8CBD49",
"1. c #83B24C",
"2. c #93BE43",
"3. c #93BE4B",
"4. c #85BF54",
"5. c #89BC55",
"6. c #98BE59",
"7. c #93BD57",
"8. c #9ABD61",
"9. c #85C243",
"0. c #8CC543",
"q. c #86C944",
"w. c #8DCA43",
"e. c #85C24A",
"r. c #8CC54A",
"t. c #8CCA4A",
"y. c #86C84A",
"u. c #91C544",
"i. c #99C444",
"p. c #92CD42",
"a. c #95CE41",
"s. c #92CB46",
"d. c #92CA46",
"f. c #94CD45",
"g. c #93CB44",
"h. c #99CE45",
"j. c #92C648",
"k. c #92C44B",
"l. c #9CC74D",
"z. c #91C94A",
"x. c #92CE49",
"c. c #93CE4D",
"v. c #93CC4B",
"b. c #99CC4C",
"n. c #8ED346",
"m. c #8CD349",
"M. c #92D045",
"N. c #94D144",
"B. c #9AD443",
"V. c #94D14B",
"C. c #9AD34C",
"Z. c #9AD947",
"A. c #87C151",
"S. c #8AC351",
"D. c #8ECD52",
"F. c #8DC45C",
"G. c #85C95C",
"H. c #92C651",
"J. c #94C553",
"K. c #94CC52",
"L. c #9BCD53",
"P. c #9AC55B",
"I. c #93CD5D",
"U. c #9DCC5A",
"Y. c #8FD152",
"T. c #95D253",
"R. c #9BD253",
"E. c #93D35C",
"W. c #9CD25A",
"Q. c #A5CD52",
"!. c #A3DD54",
"~. c #A3D35C",
"^. c #A4D95B",
"/. c #AAD65A",
"(. c #B0DD5E",
"). c #9FC967",
"_. c #9CCA69",
"`. c #9ED465",
"'. c #A2CD64",
"]. c #A3D362",
"[. c #ACD460",
"{. c #A5D963",
"}. c #A9DB64",
"|. c #A9D56C",
" X c #ADDB6A",
".X c #B1D66F",
"XX c #B1CE71",
"oX c #A6DE71",
"OX c #B2DE73",
"+X c #AEE166",
"@X c #AEE26B",
"#X c #A7E264",
"$X c #B3E46B",
"%X c #B5EC6D",
"&X c #B7E465",
"*X c #B1F06E",
"=X c #AEE178",
"-X c #B4E671",
";X c #BBE670",
":X c #B6EA73",
">X c #BCEB76",
",X c #B7ED7E",
"<X c #BCEC7A",
"1X c #BBE67A",
"2X c #BFF27B",
"3X c #C2EB75",
"4X c #C3E97D",
"5X c #C8F37F",
"6X c #C2F27C",
"7X c #B9EB84",
"8X c #C6EE83",
"9X c #C1F083",
"0X c #CDF483",
"qX c #C5F882",
"wX c #D2FB85",
"eX c #CFE495",
"rX c #D0FA96",
/* pixels */
"k.| [ o.p.w.0.g.{ { ( [ 0.| 0.w.} w.w.0.w.z.j.0.w.} ..g.| ..M.w.n.9.e.w.{ o.] ,.X.@.@.[ [ a.a.X.",
"| p.p.9.H H } ..H.r.s.s.~ 0.Z.{ s.x.w.| g.f...| ..] ] ..@.s.9.f y l | ..0.s.| ..| ..w.c.c.w.....",
"..M.9.i - s } *.| p...| k.e.c c 0.0.] Q ........M...| | 0.x.e.f a H w...0.s.| @...z.e.v v e.w...",
"..w.0.H H e.w.{ { *.[ | K.L O Z 0.....] g...w.w.~ w.s.u...s.t.e.w.r.r.0.p.N.| r...s.H * 4 :.x...",
"0.0.0.w.p.p.g.0.r.~ w.0.~ z e  .p...u.0.R.e.v i 5 H z.s.@.....w...~ | 0.0.| / J.@.} n v ;.9.....",
"j.j.0.[ [ [ g.L.w.} ..] b.^.w.w.M.] w.z.+XK.F 4 F r.z.g.@.| [ ..L.! _ [ g a c f.....0.w.x.x.g.[ ",
"..w.r.9...a.f.0.......| $X<XJ.r.t.9.b.b.$XR.t.9.z.c.0.| @.| } x.OXf.o.| i a / o...f.p.| | p.g.] ",
"{ M s - c w.p.Q 4.f e.j.u.b.^ R b v 0.^ h.R | N.] [ [ ..f.0.e.K.1Xk.0.t.} w.M.[ j.0...p...Q ^ j.",
"M.x 8 l t.t...t @ s I.^ X.[ w.i $ c ] @.} e.w.| F.} @.>.P.f.{ &.9.t.| 0.v.0.| ..) *.w.b y y :.k.",
"/ w.r.r.r.w.z.| v ] w f.l.8X{.n e.r.{.j.] ..] h.] %.( +XOX>.H D l w.| ] 0.w.p...J.}.L.:.6 l C.{ ",
"R.b.| ..@.g.f.u.z.M...w.r.].~.w.[ R.4Xk.| B.a.0.*.{ ..U.{.b.u $ e ..[ ] 0.w...Q P.9XK.9.t.9.M.] ",
"....) ) o.[ ..] j.v D 4 } R h.| [ u.U.J.L.x ..0.| v I.g 0.[ ] t.s.p.| s.b.r.w.} u.h.[ M.t.v F y ",
"n 9.x ] w.x.c.9.g.l ; k 9.@...a.x.| ^ f G y 9...c.A % y s.[ N.M.z.s.} 9.;.F r.w.! @.( ] T.L + A ",
"D y - A.I.D p p u...m m.y.A.:.V.t.w.V.3 y T r...[ n c :.0.R.>...| s.0.l * u e.0.R.| a...| r.:.e.",
"c g A.7X=Xg y G u...{ ] b.<.>.} x.~ v.} 9.t.| h.o.} t.| b.rXJ.@.u.f.s.} f v x...r.b.g.Q | s.| @.",
"*...| b.b.>...w.Q.}.].j.+.$.X.0.[ g.u.g.{ { @.i.O.z.0...>.).k.-...] ] s.t.t.M.[ | ....a.j.j.b.[ ",
"] u.>.[.&X! g.x '.:Xf...w.~ 0.z.w.x.} ..u.| s.} ..{ @.@.[ 0.e.s # t.0.| O.| w.} @.{ ..@.| a.h.X.",
"} %X~.U.$XL.b.r.u.r R.H ,.o V.] } x.s.g...] w.| D.:.~ 0.g.w.b 3 i e.0.^ L.z.x ..w.;.L 5 V.] ..k.",
"r.@X`.;.;.-X>X;.f.C.} f 4 K n  .0 0.z.u.] ] g.} p y v j.v.s.0.9.t.0.%X^.>.>.~ V.0.a B D w.{ ..r.",
"w.:.* # v z.3.~.K.| N.{ x D.g   z :.w.0.| ....] p g e.b.s.| g.V.x.Q ^.R.k.}.b...@.z v c...*.@.| ",
"v.~ i n q.0.^ 3X-X>.a.R b.r.,.F.W.z.w.0.g.g...| y.w.0.0.g.s.0.0.j.u.^ ^ +X:Xk.u...N.Z.x D.v } ..",
"] | t.0.] a.f.0.w.0.z k. X>X>.&X+Xb.| } ..g...f.....] Q g.v.j.w.~.b.Q ~ j.<.k./.:.w.*.l C C ,.w.",
"| C.0.| !.a.Q w.u o f k.k.{.h.[ L.u.0.] ] g.0.b.| ..| ] w.| } z.9XK.| M.0.b.$X;X:.~ 0.e.- L r...",
"] v.l.^ O.| C.w.P Z y.!.h.| ~ b.| s.!.V.0.s.0.j.u.0.0.s.V.| ~ C.|.r.| ] t ^ k.3.@.C.^.0.R...o._ ",
"[ w.w.y.t.w...@.g.g.>.6X].>.^ O.| b.3XU.D.i w.2.{ K.j.n I y x U.eX_.@ y 1.4X(.) r.+X$Xu.| | s...",
"..0.z 5 f ~ 0...| ..j.>.k.l.}.j.w.| k.v i > n h.B.~ ..x % d w.r.2.~ q l F._.5.F ^ u.0.w.z.w.] ..",
"| 0.z 5 c r.s.| ..| V.Q f.b.@X{.] V.0.v 6 M } ..~ L.| ] t.t.{ | { *.*...D.s + - g.v.0.t.y.0.~ a.",
"} w.9.~ w.b.f.| ..] ..@.| 0.:.A.q t.t.9.} V.| ] 0.s.R @.t.n Y.f b | O.| p.b b t.[ g.n 6 4 :.w.O.",
"..p...| 0...| O.w.p.[ ..] z.i # r Q 0.0.b.| | V...) @.h.t.y S V t.j.i.i.[ { ..w.p.0.b 4 j y.b.[ ",
"[ ..| ..@.| | x.} x...| g.z.:.g u...V.] h.^ s.t.F.z >X<Xb.:.e.| [ ..s.v.| f.b.r.T.n y.r.c.~ 0.@.",
"] | ..g.v.t.H G l 9.| ] s.~ s.x.O.s.V.x | u.r.6 N F 7.6.! | Q ' @.w.U b w.f.j.;., ; n z.0.R ] w.",
"0.s.g.0.t.e.s @ l V.9.w.z...h.| g.}  .] g.z.y.: e *.i.8Xl.OX7XW b.H 2 . t.O.@...1 D e.f.! B.a.} ",
"} w.w.Q ] s./ :.h.~ S.e.n | x.K.) @.M.w.q.q.} ..Q.Q.2.$XI.].^.^ | ~ = / j.f.s.s.v._ o.j.r.s...r.",
"..| w.| | p...b.[ } g * v w.] | n :.F i v r.z.f.wXl.j.v D * / z.w.c.r.r.b.0.9.b x s.r w.t.v 5 } ",
"| ~ s.v.....} 0...w.g a ,.x.@.@.E.G ; u e.z.u.O.<.k.r.= 4 :.K.w.w.0.T.9.w.l 4 y M.L.e.w.7 # K x ",
"[ Q 0.0.} ..p.w.q.U e.T.0.] B.#.n.} x | s.] [ =. X2XR.r.H 9.w.] s.x 0...w.z i I | j.b.s.#XF S.w.",
"| ..z.t.0.p.s.z J u e @.a.a.s./ ] a.....s.w.w.n L.b.W | R.~ g.@.O.Q ] a.@...:.oX^.! X.b.qXb...z.",
"| s.e.H n 0.j.h O F s.X.@.b.w.R.u.b.0.r.r.G D d O.O.| O.z.R.~ } | f.g.g.Q | 0.~.1XO.X.>.<.| @.0.",
"..0.i * i e.}. XK r.b.2.[.>Xz.| e.z.r.R.:.o i K f.| Q g.z c 4 9.w.x.9.9.} | u.j.L r.v v H.0.! a.",
"..x.v D ,.H.|.OXx.w.>X.X8.'.| _  .} 9 ] f.] g...} ..w.w.e.X G Y 9.l 4 i t.0.v.u.K % % t.*X,.r.) ",
":.C.| | C.k.J.U.0XP.4.G.s ,.P.P.V & s t.w.[ @.@.] } w.0.w.{ ..| Y.; y t.| g.0XXXS.0 ] R.,XF.9.{ ",
"x.] ..C.~ L.<X~.~.<.g X 4 r.+X5XH n 0.M.g.f.z.j.w.0.r.9.0.| p.s.0.w.] w.t.;.J.k.0.w.j.>.>.j.f.@.",
"..] ] | e.H.R.] Q w.W.H :.~ w.z.[ | @.| ! | j.>.t.l u i 9.0.w.} W h.{ } i - v w.[ | K.%XC.@.! u.",
"h.C...r.E.:.z s.| w.:X$Xb.| w.~ j.z.g.| [ @.p...t.l i c x.s.g.} z.V.} e.i i } M.@.0.b.$Xz.b.....",
"..Q 0.:.u * z M.w.9.J.S.z w.V.V.c.z.w.w.w.w.M b w.9.t.t.f.[ ..p.9.K p K K.f.! O.K.} ..w.F L 0...",
"u.Q w.:.u F t.w.| t.g * 5 t.~ } ....| w.w.v y < | } t.0...R [ @.j ; p A.v.#.O.u.e.] { n s p n { ",
"g.....} 0.T.w.} @.v.H u n V...a.| ......z.H g D ..} | ~ p.@.a.0.t.z w.v.| ] g...~ V.V.e u F z.| ",
"g.[ @...| w.| g.[ W K.D.t.} @.X.:.j.u.| g...| V...| w.} w...s.0.l.h.` E M.w.} w.) | r.t.x...| f."
};
