/* XPM */
static char *_b76a37f0ade4a2d828257a9dbf1f15cnNgmHBoVzpXD8QuY[] = {
/* columns rows colors chars-per-pixel */
"48 48 208 2 ",
"   c #5F1D07",
".  c #5E1705",
"X  c #631D05",
"o  c #641E09",
"O  c #6B1E0D",
"+  c #6C1E11",
"@  c #652006",
"#  c #6A2007",
"$  c #65230B",
"%  c #6B230D",
"&  c #6D290F",
"*  c #72240E",
"=  c #652413",
"-  c #6C2412",
";  c #6D2A13",
":  c #6C261B",
">  c #6E2C19",
",  c #642B10",
"<  c #732413",
"1  c #792615",
"2  c #732A15",
"3  c #7A2C15",
"4  c #732619",
"5  c #7A2719",
"6  c #752C1A",
"7  c #7B2C1B",
"8  c #73311C",
"9  c #7C321C",
"0  c #7C2C21",
"q  c #7D3322",
"w  c #7E3A22",
"e  c #753422",
"r  c #822A16",
"t  c #822E1B",
"y  c #8C2E1C",
"u  c #84331D",
"i  c #8C331C",
"p  c #8B3B1D",
"a  c #863719",
"s  c #91351E",
"d  c #91391E",
"f  c #832E22",
"g  c #843422",
"h  c #8B3523",
"j  c #843A24",
"k  c #8B3B25",
"l  c #863728",
"z  c #8E362A",
"x  c #863A29",
"c  c #8B3C2A",
"v  c #933624",
"b  c #9B3727",
"n  c #933B25",
"m  c #9C3C23",
"M  c #933629",
"N  c #9B3728",
"B  c #943C2B",
"V  c #9C3D2C",
"C  c #973E31",
"Z  c #9C3E31",
"A  c #A23E2E",
"S  c #A33E33",
"D  c #8B4225",
"F  c #8E442B",
"G  c #8D482B",
"H  c #934125",
"J  c #9F4326",
"K  c #94432C",
"L  c #9B432C",
"P  c #94492D",
"I  c #9C4A2D",
"U  c #994924",
"Y  c #954330",
"T  c #9C4432",
"R  c #924C32",
"E  c #9C4933",
"W  c #9D473A",
"Q  c #A2442D",
"!  c #AB432D",
"~  c #A44A2D",
"^  c #A8492D",
"/  c #A6512E",
"(  c #AA512F",
")  c #A34434",
"_  c #A94435",
"`  c #A44C34",
"'  c #AA4C34",
"]  c #A4453B",
"[  c #AC473A",
"{  c #A44C3B",
"}  c #AB4C3C",
"|  c #B24B36",
" . c #B94F37",
".. c #B34D3D",
"X. c #BA4E3D",
"o. c #B2473D",
"O. c #A65136",
"+. c #AC5235",
"@. c #A55339",
"#. c #AC533C",
"$. c #B3533C",
"%. c #BA533E",
"&. c #B1593B",
"*. c #C0523E",
"=. c #AD4E41",
"-. c #A54D43",
";. c #B44D42",
":. c #BD4E43",
">. c #AD5342",
",. c #AD5D44",
"<. c #B45343",
"1. c #BC5444",
"2. c #B45A44",
"3. c #BC5945",
"4. c #B35449",
"5. c #BC554A",
"6. c #B6594A",
"7. c #BB5B4C",
"8. c #BE5D51",
"9. c #BD6247",
"0. c #B76148",
"q. c #BD624B",
"w. c #BE684D",
"e. c #BD6251",
"r. c #C24E43",
"t. c #C25445",
"y. c #C25945",
"u. c #C2554A",
"i. c #C35C4C",
"p. c #CA5B4D",
"a. c #C95949",
"s. c #C45E52",
"d. c #CE5E53",
"f. c #C85F59",
"g. c #D25E52",
"h. c #D05D58",
"j. c #C36445",
"k. c #C3624C",
"l. c #CB634E",
"z. c #C46B4D",
"x. c #CA6B4E",
"c. c #D0634F",
"v. c #C56352",
"b. c #CB6354",
"n. c #C56C53",
"m. c #CC6B54",
"M. c #C7655A",
"N. c #CD655A",
"B. c #C66B58",
"V. c #CC6A5A",
"C. c #D16355",
"Z. c #D36C55",
"A. c #D3655A",
"S. c #D8655B",
"D. c #D36A5C",
"F. c #D96B5D",
"G. c #CC7254",
"H. c #CC705B",
"J. c #D47356",
"K. c #D67957",
"L. c #D4725B",
"P. c #D9755E",
"I. c #D7795A",
"U. c #DF7A5C",
"Y. c #E1775D",
"T. c #E47C5D",
"R. c #E97C5E",
"E. c #D56B61",
"W. c #DE6C62",
"Q. c #D37160",
"!. c #DA7662",
"~. c #DB7C62",
"^. c #D57B61",
"/. c #E37D63",
"(. c #EC7E64",
"). c #E67D69",
"_. c #EF7F69",
"`. c #F17E64",
"'. c #E6835E",
"]. c #EB835D",
"[. c #DD8061",
"{. c #DF836C",
"}. c #E58263",
"|. c #EB8364",
" X c #EC8966",
".X c #E6826B",
"XX c #EC846B",
"oX c #ED8969",
"OX c #F28465",
"+X c #F28965",
"@X c #F3856B",
"#X c #FA836D",
"$X c #F38A6C",
"%X c #F98A6D",
"&X c #EE926D",
"*X c #F4906E",
"=X c #FA926E",
"-X c #ED8B72",
";X c #F68773",
":X c #FB8770",
">X c #F58A73",
",X c #F98E71",
"<X c #FB8C74",
"1X c #FB8C79",
"2X c #F18C78",
"3X c #F59074",
"4X c #FC9174",
"5X c #FC937C",
/* pixels */
"+X4X/ x.,X+X%X Xn 1.1.1.y.V #.5XOXoX4X^ 3.b.b.F.e.J <XoX$X,Xz.n y.1.1.1.n ~.>X$X=X/.n V.b.m.D.4.",
"3.k.n } i.q.k.2.7 V Z T ) i B i.v.e.v.B B <.{ ] ] 1 b.k.3.V.{ y ) B L V r #.k.k.3.1.y { [ { } M ",
"2 t 9 7 7 - 1 q q 7 6 > j u j p 4 - 1 6 6 5 - 9 q w 7 & $ < ; 5 0 - q l g k u $ x h j c 7 > k k ",
"$.F.s.b.V.k i.N.b.D.2.` >X$X X,X<.B i.<.3.1.r v.C.k.D.7.n 1.$.t.1.i z.*X|.$X|.U }.OX].=Xx.~ 4X].",
"<.d.b.p.V.n u.A.d.C.$.Q @X`.|.$X$.J *.| 1.X.y v.g.b.b.<.i 1.$.X.u.n z.XXXX_.).L .X(.OX%Xb.{ >X|.",
">.s.e.7.7.h 5.6.8.v.#.T ).~.^..X} n <.<.[ <.h 6.s.7.M.>.z <.>.=.} h 9..X~./.!.H J.}.K.~.k.` /.^.",
"% - $ & * X % ; = 1 O o 3 & % * - $ < & & * X * - ; * o # O % - 4 = O 6 % 2 5 o * < - 7 % @ < 2 ",
"<.6.k 2.L.L.m.G.g 1.1.3.<.T h _ ] { [ i 7.L.G.Z.B.i Z.L.m.P.#.n 6.2.<.1.i n _ } [ V c V.Z.J.Z.2.",
"d.D.k m.<XR.OX'.c b.g.b.D.#.i y.X.<.1.i I.$X}.OX[.J @XR.|.$Xn.Z Z.k.d.D.k ` 1.X.5...p &X+X].%Xz.",
"A.D.) Z.>X>X:XXXB d.A.D.A.<.Z u.1.1.1.b L.1X3X#X.X) 1X>X$X4Xn.) F.N.C.A.V [ t.1.5...I XX#X>X;XZ.",
"g g & j P G K P ; j j w c 7 - 7 9 9 t < c L D P F 2 K P P I w 7 h j k c - 5 u 9 u 3 3 T K G T j ",
"P $.O.+.O.3 h B T E c 9 <.#.O.2.k 9 T T T V 2 O.+.@.` K 3 B K T T 7 7 M M B h ; K B B T g 9 #.` ",
"Z.:X@X#X>XQ a.A.h.A.6.) 1X#XOX4X1.[ F.N.b.A.V .X%XoX<XP.N W.N.g.F.) ) 1.t.r...h b.S.C.A.1.+.4X#X",
"z.>XoX$X2XL i.D.N.D.6.I 1X@X X=X<.` D.b.b.b.n {.OX X$XG.v E.M.b.D.T ` 3.3.1.<.c v.D.v.N.+.` 3X X",
"O.v.0.7.9.u Z { { } T k v.k.9.x.K k =.{ } ) u 2.k.z.k.#.h } { #.} u u V T ) V 3 { =.{ >.B H k.k.",
"% 1 $ * 7 6 7 8 $ < 2 - < % - 5 7 6 7 - 6 t 3 3 0 . 3 2 - 7 - % 7 6 9 7 % % 1 2 < < $ 2 < 2 < - ",
"$.1.h m.$X XOX.Xc o.1.;.5.V $.>X}..X>X` n.>X|.|.).B M.f.C.b.{ <.$X}.'.$XE ) 3.<.<.| h v.v.b.b.<.",
"..1.v m.@X}.R.}.K | %.$.X.V +.OX|.}.@X~ x.@X}.|.T.d v.i.C.b.` <.%XXXR.+X) ) 1...<.[ y b.b.s.C.<.",
"1.1.s l.+X|.+X}.i ..%.$.1.) +.$X/..X>X~ m.<XU.|./.n b.v.i.b.{ <.@X.X}.+XQ Q %.1.1.o.B s.b.s.d.;.",
"< < - 7 9 2 7 7 ; < 5 - < % ; 3 9 2 9 ; 2 7 9 u 3 & < 6 2 6 = 2 g 0 7 u - - 5 : 5 * $ 3 5 2 7 & ",
"2.L.G.G.m.p ..>.>.6.] h 7.6.>.5.B l ] T ) ) 3 v.L.z.L.e.u } { ) ' t #.J.B.m.G.u L ) T ) n u _ T ",
"x.$X XXX2XT 5.V.k.A.5.n b.l.b.S.A T 3.1.$.%.n XX|.+X#XJ.i X.%. .3.M m.$XXXXX.XB | y.$.3.) i 5.1.",
"Z.4X+X%X$XJ a.Z.C.F.1.V Z.Z.b.W.[ T y.1.y.1.i XX4X|.<XP.v u.y.*.y.v m.4X$X%XOXn ..t.<.u.[ v u.u.",
"x B I I P > l x c z q > j k c z 6 ; g h y 7 ; c K I Q j = f q u g : j L L ~ L > u t j u < ; t u ",
"K K 8 2 g g f 9 = g r h g 6 > k n j x > c T E K K ; g z z B e 6 h c l l - 6 t u g 7 > K E E B j ",
"@X5X' ! a.X.t.1.h y.t.%.a.) Q W.g.b.D.V Z.<X|.<XXXn V.C.d.F.#._ W.b.A.E.V } a.1.1.| J >X#X|.<XJ.",
"|.1X' m y.3.X.$.h ;.%.$.3.L T D.d.Q.N.m J.#X|.OXoXi b.b.b.Z.` V A.b.b.b.v ) X.1.3.! m $X|.oX$Xj.",
"V.E.L B ) E [ T 7 ] ] ] ] M h 6.4.-.4.h 2.Z.n.I.M.h 6.>.4.6.Y T 7.#.>.2.h V [ ` T ) h V.m.B.P.2.",
"- < 8 7 6 ; < 6 6 7 6 2 3 5 3 7 2 > g 3 9 9 % - 2 2 < - - < > < 5 % - 5 6 3 < $ 6 1 > 7 < ; 1 2 ",
"<.A.7.b.i.n 1.v.k.b...Q >XoX X#X&.2.>X}.}.XXn ;.%...t.) v 1.<.1.5.M =.b.s.s.v.M v.b.v.b.<.B N.s.",
"} b.v.b.m.n 3.b.l.b.1.J oXT.|.%X+.9.%X|.'.oXd } %.X.r.) a %.%...1.v } b.b.b.s.h v.p.b.b...n A.b.",
"4.N.v.b.M.h s.b.b.N.4.E >X}.}.>X>.9.<X|.}.oXn } <.;.u.E k 3...1.5.n +.D.i.b.b.k k.b.b.b.<.B D.b.",
"& 1 4 4 2 $ < - 4 7 & - 0 7 6 3 O 2 7 6 6 9 # < < 2 1 % * < ; - 1 = - 2 4 4 * $ & < < 0 + - 7 5 ",
"q.k.k { 9.0.k.q.7 V L L T i K k.9.w.3.k k V T V K 3 V T T T g l V W L J l >.k.n.n.3.u ] } { <.B ",
"oX4X~ Z.,XoX@X}.K <.$.1.3.L #.3X|. X5X' ) 1.7.1.#.t 1.<.<.i.T B %.<.X.y.h ^.+X|.XX}.n m.b.v.N.>.",
"OX,X+.Z.1X#X#X+Xk X.t.y.1.V &.<X@X|.5X| ) u.1.r.<.v t.1.:.p.) N a.1.r.t.v ^.<X@X<XXXn b.A.A.S.<.",
"#.#.a K 2.{ } @.; h B h B 9 j $.+.@.{ t t n k n g < h M h v 3 1 i l M h < P ( #.#.` 2 K C C Z u ",
"7 g j g c - k D R E c # g g 9 u < w Y F P E ; j k j k g 9 E P P P q k E R P H % 3 u 9 l 6 6 T K ",
"6.A.D.C.N.T ).1X@X<X^.J u.:.1.t.V v.1X>X$X>XQ s.C.V.D.<.} >XXX#X4X<.b.,X>X$X@XC <.r.1.:.) +.1X;X",
">.A.p.b.V.k /.+X|.+XG.a 1.:.%.1.s z.$X].|.@XL 7.C.i.D.$.~ 5X}.OX$X#.j.=X|.OX+Xc +.t.%.y.Q I 4X|.",
"E <.7.<.>.k k.L.Z.L.q.p [ _ ` ' y ,.I.Z.Z.m.B o...2.<._ Q Z.G.L.!.L &.I.G.m.L.a I _ =.[ M T L.Z.",
"% < o O 4 $ % * - < %   < - $ % - , ; X 2 2 $ 2 3 $ + - % * $ % < ; % % $ & < % 2 * o 1 - ; * # ",
"~..XE } 8.7.s.6.7 ..$.#.} L ` -X/.P..X~ k.|./.Y.Q.M ;.=.=.<.B T k.q.i.v.n n./.~.~.!.k 7.7.6.i.>.",
"|.@X' | C.C.d.k.z ;.:.1.u.V +.@X(.oX<XI G.@XXXOX.Xi | ;...1.) V D.s.d.C.v Q.:X(.@XY.d m.b.b.C.$.",
"|.>X' $.D.b.D.v.u 1.%.$.y.J &.4X X X,X/ G.4X].+X}.i 1.1.1.i.B ) Z.k.C.Z.H G.$X].XX/.n M.b.s.D.#.",
"j k 2 6 g q 1 6 = 4 6 6 6 - ; u h x z - 7 z c g u ; 1 4 6 1 ; - 0 e 7 0 > w g D c g ; 7 q q 7 6 ",
"h S B Z V t 1.v.v.b.#.n k.k.9.l.K 3 L T T B 2 K N T ] h h ;.{ =.} h h ) B V V * n S C Z M g } =.",
"_ 1.1.1.3.i |.+X@X$XK.~ >X>XoX4X<.L i.X.t.1.u <.y.$.5.{ m Z.m.b.D.T L 1.1.1.1.h $.1.1.y.Q L F.l."
};
